STARTFONT 2.1
FONT -FreeType-TeX Gyre Adventor-Medium-R-Normal--46-440-75-75-P-295-ISO10646-1
SIZE 44 75 75
FONTBOUNDINGBOX 109 80 -37 -22
COMMENT "Generated by fontforge, http://fontforge.sourceforge.net"
COMMENT "Copyright 2007-2018 for TeX Gyre extensions by B. Jackowski, J.M. Nowacki, et al. (on behalf of TeX USERS GROUPS). Vietnamese characters were added by Han The Thanh."
STARTPROPERTIES 32
FOUNDRY "FreeType"
FAMILY_NAME "TeX Gyre Adventor"
WEIGHT_NAME "Medium"
SLANT "R"
SETWIDTH_NAME "Normal"
ADD_STYLE_NAME ""
PIXEL_SIZE 46
POINT_SIZE 440
RESOLUTION_X 75
RESOLUTION_Y 75
SPACING "P"
AVERAGE_WIDTH 295
CHARSET_REGISTRY "ISO10646"
CHARSET_ENCODING "1"
FONTNAME_REGISTRY ""
CHARSET_COLLECTIONS "ISO8859-2 ISO8859-9 ISO8859-4 ISO10646-1"
FONT_NAME "TeXGyreAdventorMedium"
FACE_NAME "TeX Gyre Adventor Medium"
COPYRIGHT "Copyright 2007-2018 for TeX Gyre extensions by B. Jackowski, J.M. Nowacki, et al. (on behalf of TeX USERS GROUPS). Vietnamese characters were added by Han The Thanh."
FONT_VERSION "001.000"
FONT_ASCENT 31
FONT_DESCENT 15
UNDERLINE_POSITION -5
UNDERLINE_THICKNESS 3
X_HEIGHT 25
CAP_HEIGHT 34
RAW_ASCENT 703
RAW_DESCENT 297
NORM_SPACE 12
FIGURE_WIDTH 26
AVG_LOWERCASE_WIDTH 261
AVG_UPPERCASE_WIDTH 306
ENDPROPERTIES
CHARS 1199
STARTCHAR $0020
ENCODING 32
SWIDTH 259 0
DWIDTH 12 0
BBX 0 0 0 0
BITMAP
ENDCHAR
STARTCHAR $0021
ENCODING 33
SWIDTH 296 0
DWIDTH 14 0
BBX 3 35 6 0
BITMAP
E0
E0
E0
E0
E0
E0
E0
E0
E0
E0
E0
E0
E0
E0
E0
E0
E0
E0
E0
E0
E0
E0
E0
E0
E0
E0
00
00
00
E0
E0
E0
E0
E0
C0
ENDCHAR
STARTCHAR $0022
ENCODING 34
SWIDTH 296 0
DWIDTH 14 0
BBX 7 10 3 27
BITMAP
82
82
82
82
82
82
82
82
82
82
ENDCHAR
STARTCHAR $0023
ENCODING 35
SWIDTH 555 0
DWIDTH 26 0
BBX 26 35 0 0
BITMAP
00601C00
00601C00
00601C00
00601C00
00601C00
00601C00
00401C00
01C01000
01C03000
01C07000
1FFFFFC0
3FFFFFC0
7FFFFFC0
03F07000
01C07000
01C07000
01807000
03806000
03806000
0383E000
FFFFFF00
FFFFFF00
FFFFFF00
FFFFFE00
0703E000
0203E000
1E038000
1E078000
1E078000
1E078000
1E078000
1E078000
1C078000
10038000
10018000
ENDCHAR
STARTCHAR $0024
ENCODING 36
SWIDTH 555 0
DWIDTH 26 0
BBX 19 39 3 0
BITMAP
004000
004000
004000
01E000
01F800
01F800
1FFF00
3E0380
7E03C0
7C03E0
7C03E0
7C0040
7C0000
7C0000
7C0000
7C0000
7E0000
0FE000
07F000
01FC00
001F80
000FC0
0007E0
0003E0
0003E0
0003E0
0003E0
E003E0
E003E0
E003E0
F00380
F80380
7C0780
7FFC00
3FFC00
03F800
004000
004000
004000
ENDCHAR
STARTCHAR $0025
ENCODING 37
SWIDTH 777 0
DWIDTH 36 0
BBX 35 35 0 0
BITMAP
03E000E000
07FC01C000
0FFC01C000
1C0C03C000
380703C000
700707C000
E0078F0000
E0078F0000
E0078F0000
E0079C0000
700F1C0000
3ABE1C0000
1FFC1C0000
0FF8700000
0000700000
0000700000
0000700000
0000E00000
0000E00000
0003E0FF00
00078FFF80
00078FFF80
00079F0780
00071E03E0
000E1C01E0
000C1C00E0
001C1C00E0
00381C00E0
00381C01E0
00381E03E0
00381F0780
00381F8F80
00380FFF00
007001FC00
006001FC00
ENDCHAR
STARTCHAR $0026
ENCODING 38
SWIDTH 740 0
DWIDTH 35 0
BBX 30 35 3 0
BITMAP
007C0000
03FF8000
03FF8000
0FC38000
1E03C000
1E01E000
1E00E000
1E006000
1E006000
1E00E000
0F83E000
07A7C020
03FF80E0
03FC01E0
07F803C0
0FF803C0
1FF803C0
3E3F0FC0
7E3F0FC0
FC0F8F00
F007FF00
F007FF00
E000FE00
E0007C00
E0007C00
E0007C00
E0007FC0
E000E7E0
E000E3E0
7007E1F8
1C0780FC
1C07807C
0FFF803C
03F80018
03F00000
ENDCHAR
STARTCHAR $0027
ENCODING 39
SWIDTH 185 0
DWIDTH 9 0
BBX 1 10 3 27
BITMAP
80
80
80
80
80
80
80
80
80
80
ENDCHAR
STARTCHAR $0028
ENCODING 40
SWIDTH 370 0
DWIDTH 18 0
BBX 11 42 3 -7
BITMAP
0060
00E0
01E0
03E0
03C0
03C0
0380
1E00
1E00
7E00
7C00
7C00
7C00
7C00
F800
F000
E000
E000
E000
E000
E000
E000
E000
E000
F000
F000
FC00
7C00
7C00
7C00
7C00
7C00
7C00
1E00
1E00
0E00
0380
01C0
01C0
01E0
0020
0020
ENDCHAR
STARTCHAR $0029
ENCODING 41
SWIDTH 370 0
DWIDTH 18 0
BBX 12 43 1 -8
BITMAP
E000
F800
FC00
7C00
7E00
3E00
0E00
0380
0380
03C0
01C0
01C0
01C0
01C0
01E0
01E0
01E0
00F0
0060
0060
0060
0070
0060
0060
0060
0060
01F0
01C0
01C0
01C0
01C0
01C0
03C0
0380
0780
0F80
1E00
3C00
7C00
F000
C000
8000
8000
ENDCHAR
STARTCHAR $002A
ENCODING 42
SWIDTH 444 0
DWIDTH 21 0
BBX 17 17 1 18
BITMAP
01C000
01C000
01C000
E1CC00
F1FF00
F1FF00
FFFF80
1FF800
1FF800
1FE000
FFFC00
FFFC00
FDCC00
01C000
01C000
01C000
01C000
ENDCHAR
STARTCHAR $002B
ENCODING 43
SWIDTH 703 0
DWIDTH 33 0
BBX 26 27 3 1
BITMAP
000C0000
000C0000
000C0000
000C0000
000C0000
000C0000
001C0000
000C0000
001C0000
000C0000
001C0000
02BE4400
FFFFFF00
FFFFFFC0
001FC000
000F8000
000F0000
001E0000
000C0000
000C0000
000C0000
001C0000
000C0000
000C0000
000C0000
000C0000
001C0000
ENDCHAR
STARTCHAR $002C
ENCODING 44
SWIDTH 259 0
DWIDTH 12 0
BBX 7 9 6 -1
BITMAP
7E
7C
7C
7C
78
70
E0
E0
E0
ENDCHAR
STARTCHAR $002D
ENCODING 45
SWIDTH 333 0
DWIDTH 16 0
BBX 11 3 1 12
BITMAP
FFE0
FFE0
FFE0
ENDCHAR
STARTCHAR $002E
ENCODING 46
SWIDTH 259 0
DWIDTH 12 0
BBX 3 6 6 0
BITMAP
E0
E0
E0
E0
E0
E0
ENDCHAR
STARTCHAR $002F
ENCODING 47
SWIDTH 518 0
DWIDTH 24 0
BBX 17 37 3 -5
BITMAP
000780
000F00
000F00
000C00
000C00
000C00
001C00
003800
003800
003800
003800
003000
006000
007000
01E000
01E000
01E000
01C000
01C000
01C000
03C000
03C000
038000
038000
038000
038000
1F8000
1E0000
1E0000
1E0000
1C0000
1C0000
7C0000
7C0000
780000
700000
E00000
ENDCHAR
STARTCHAR $0030
ENCODING 48
SWIDTH 555 0
DWIDTH 26 0
BBX 22 35 1 0
BITMAP
01FC00
07FFC0
0FFFE0
1E03F0
3E00F0
7E00F0
7C007C
E0001C
E0001C
E0001C
E0001C
E0001C
E0001C
E0001C
E0001C
E0001C
E0001C
E0001C
E0001C
E0001C
E0001C
E0001C
E0001C
E0001C
E0001C
E0001C
E0001C
7C007C
7C0078
7E00F0
1E03F0
1E03F0
0FFFE0
01FF80
00FF80
ENDCHAR
STARTCHAR $0031
ENCODING 49
SWIDTH 555 0
DWIDTH 26 0
BBX 10 35 7 0
BITMAP
FFC0
FFC0
FFC0
03C0
01C0
01C0
01C0
01C0
01C0
01C0
01C0
01C0
01C0
01C0
01C0
01C0
01C0
01C0
01C0
01C0
01C0
01C0
01C0
01C0
01C0
01C0
01C0
01C0
01C0
01C0
01C0
01C0
01C0
01C0
00C0
ENDCHAR
STARTCHAR $0032
ENCODING 50
SWIDTH 555 0
DWIDTH 26 0
BBX 22 35 1 0
BITMAP
01FC00
07FFC0
0FFFE0
1E03F0
3E00F0
7E00F0
7C0070
E00078
E0003C
E0001C
E0001C
00003C
00007C
000070
0000E0
0000E0
0003E0
0007E0
0007C0
000F80
003F00
003E00
007C00
007800
00F000
01E000
038000
060000
0E0000
7C0000
7C0000
7C0000
FFFFFC
FFFFFC
FFFFF8
ENDCHAR
STARTCHAR $0033
ENCODING 51
SWIDTH 555 0
DWIDTH 26 0
BBX 22 35 1 0
BITMAP
01FC00
03FF80
03FF80
0E0780
1E03C0
1E03E0
7C03E0
7003E0
3003E0
0003E0
0003E0
0003E0
0003E0
007F80
007F80
007F80
007F80
0000E0
0000E0
000070
000070
000038
00001C
00001C
C0001C
E00018
E00070
FC0070
FC0070
7E00E0
1E0380
1E0380
0FFF80
01FC00
00FC00
ENDCHAR
STARTCHAR $0034
ENCODING 52
SWIDTH 555 0
DWIDTH 26 0
BBX 24 35 0 0
BITMAP
000070
0000F0
0000F0
0003F0
0007F0
0007F0
0007F0
000C70
001C70
003C70
003C70
003470
006070
01F070
01C070
01C070
01C070
038070
030070
1E0070
3E0070
7E0070
7C0070
7C00F0
FFFFFF
FFFFFF
FFFFFF
000070
000070
000070
000070
000070
000070
000070
000030
ENDCHAR
STARTCHAR $0035
ENCODING 53
SWIDTH 555 0
DWIDTH 26 0
BBX 22 35 1 0
BITMAP
1FFFF0
1FFFF0
1FFFF0
1E0000
1E0000
1E0000
1E0000
1E0000
1E0000
1C0000
7C7C00
7EFE40
7FFFE0
7E03F0
7C00F0
7C00F0
700070
000018
00001C
00001C
00001C
00001C
E0001C
E0001C
E0001C
E0001C
E0001C
7C0070
7C0070
7E00F0
1E03F0
1E03F0
0FFFE0
01FC00
00FC00
ENDCHAR
STARTCHAR $0036
ENCODING 54
SWIDTH 555 0
DWIDTH 26 0
BBX 22 35 1 0
BITMAP
000C00
003800
003800
007800
007800
007800
007000
01C000
01C000
038000
03FC00
07FE40
1FFFE0
7E03F0
7C00F0
7C00F0
700070
E00018
E0001C
E0001C
E0001C
E0001C
E0001C
E0001C
E0001C
E0001C
E0001C
FC0070
FC0070
7E00F0
1E03F0
1E03F0
0FFFE0
01FC00
00FC00
ENDCHAR
STARTCHAR $0037
ENCODING 55
SWIDTH 555 0
DWIDTH 26 0
BBX 19 35 3 0
BITMAP
FFFFE0
FFFFE0
FFFFE0
0003E0
0003E0
0003E0
000780
000780
000780
000780
000F00
000E00
000C00
001C00
003800
003800
003800
007000
006000
006000
01C000
01C000
01C000
01C000
03C000
03C000
038000
038000
030000
0E0000
1E0000
1E0000
1C0000
700000
300000
ENDCHAR
STARTCHAR $0038
ENCODING 56
SWIDTH 555 0
DWIDTH 26 0
BBX 22 35 1 0
BITMAP
01FC00
03FF80
03FF80
0E0380
1E03C0
1E01E0
7C00F0
7C0070
7C0070
7C0070
7E00F0
3F01E0
1F83E0
0FFF80
0FFF80
0FFF80
1FFFE0
3E00F0
7E00F0
7C0070
F00018
F0001C
E0001C
E0001C
E0001C
E0001C
E0001C
7C0070
7C0070
7E00F0
1E03F0
1E03F0
0FFFE0
01FC00
00FC00
ENDCHAR
STARTCHAR $0039
ENCODING 57
SWIDTH 555 0
DWIDTH 26 0
BBX 22 35 1 0
BITMAP
01FC00
07FFC0
0FFFE0
1E03F0
3E00F0
7E00F0
7C007C
E0001C
E0001C
E0001C
E0001C
E0001C
E0001C
E0001C
E0001C
E0001C
F0001C
7C0070
7C0070
7E03F0
1FFFE0
1FFFC0
01FF80
01FF80
001F80
000F80
001C00
003800
003800
007800
007800
00F800
01E000
01C000
00C000
ENDCHAR
STARTCHAR $003A
ENCODING 58
SWIDTH 259 0
DWIDTH 12 0
BBX 3 22 6 3
BITMAP
E0
E0
E0
E0
E0
E0
00
00
00
00
00
00
00
00
00
00
00
E0
E0
E0
E0
C0
ENDCHAR
STARTCHAR $003B
ENCODING 59
SWIDTH 259 0
DWIDTH 12 0
BBX 7 26 1 -3
BITMAP
1E
1E
1E
1E
0E
0E
00
00
00
00
00
00
00
00
00
00
00
1E
1E
1E
3C
7C
7C
70
E0
E0
ENDCHAR
STARTCHAR $003C
ENCODING 60
SWIDTH 740 0
DWIDTH 35 0
BBX 27 32 3 -4
BITMAP
000000E0
000007E0
00000FE0
00007FC0
0000FFC0
0000FFC0
0003FC00
000FE000
001FC000
007F0000
03F00000
07E00000
1FC00000
FE000000
FC000000
FC000000
FC000000
7F000000
3F800000
1FC00000
01F80000
00F80000
003F0000
000F8000
0007F000
0007F000
00007F00
00003FC0
00001FC0
000003E0
000001E0
000001E0
ENDCHAR
STARTCHAR $003D
ENCODING 61
SWIDTH 703 0
DWIDTH 33 0
BBX 26 13 3 7
BITMAP
FFFFFFC0
FFFFFFC0
FFFFFFC0
00000000
00000000
00000000
00000000
00000000
00000000
00000000
FFFFFFC0
FFFFFFC0
FFFFFFC0
ENDCHAR
STARTCHAR $003E
ENCODING 62
SWIDTH 740 0
DWIDTH 35 0
BBX 27 33 3 -5
BITMAP
E0000000
F8000000
FC000000
7F800000
7F800000
3F800000
03F00000
007F0000
007F0000
003FE000
0007F000
00047C00
00007E00
00000FC0
000007E0
000003E0
000003E0
00001FC0
00003FC0
0003FC00
0007F000
0007F000
000F8000
003F0000
00F80000
01F80000
1FC00000
FE000000
FE000000
FC000000
F0000000
F0000000
80000000
ENDCHAR
STARTCHAR $003F
ENCODING 63
SWIDTH 592 0
DWIDTH 28 0
BBX 20 35 3 0
BITMAP
03FC00
07FF80
0FFF80
1C0780
3803C0
7001E0
E00070
E00070
E00070
E00070
E00070
000070
000070
0000F0
0001E0
0003E0
0007E0
000F00
001F00
003C00
003800
003800
007800
006000
006000
006000
000000
000000
000000
006000
006000
006000
006000
006000
006000
ENDCHAR
STARTCHAR $0040
ENCODING 64
SWIDTH 851 0
DWIDTH 40 0
BBX 33 35 3 0
BITMAP
000FFC0000
007F3FE000
007F1FE000
03E000F800
07C0003C00
0FC0003C00
1C00001F00
1C07F80780
1C07FC0780
7C0F9CC380
701C0FC080
602407C080
E06003C080
80700F0080
81E00F0080
81E00F0080
81C00F0080
81C00F0380
81C00F0380
81C01C0780
E1C01C0700
E1C03C0F00
61C07C1F00
71E0FC1C00
78FFFC7800
3C7FFCF800
1C3F9FC000
1E00000800
1E00001800
0FC0003800
03E0006000
03F000E000
007F0FC000
001FFC0000
000FF80000
ENDCHAR
STARTCHAR $0041
ENCODING 65
SWIDTH 740 0
DWIDTH 35 0
BBX 32 35 1 0
BITMAP
00078000
000FC000
000FE000
000FE000
000FE000
001FE000
00387000
00387000
00387000
00787000
00701C00
00601C00
00601C00
01F00E00
01C00F00
01C00F00
01C00F00
03800FC0
03800FC0
03FFFFC0
0FFFFFC0
0FFFFFC0
1E0001E0
1E0000E0
1E0000E0
1E000060
7C000038
7C000038
7C000038
F000003C
E000003F
E000003F
E000001F
E000001C
C000000C
ENDCHAR
STARTCHAR $0042
ENCODING 66
SWIDTH 592 0
DWIDTH 28 0
BBX 22 35 3 0
BITMAP
FFF800
FFFF80
FFFF80
F00780
E003C0
E003E0
E003E0
E000F0
E000F0
E00070
E000E0
E001E0
E003E0
E003E0
FFFFE0
FFFFE0
FFFF80
FFFFE0
FFFFE0
E003F0
E00070
E00038
E0001C
E0001C
E0001C
E0001C
E0001C
E00070
E00070
E000F0
F003F0
F803F0
FFFFE0
FFFC00
FFFC00
ENDCHAR
STARTCHAR $0043
ENCODING 67
SWIDTH 814 0
DWIDTH 38 0
BBX 33 35 1 0
BITMAP
000FFF0000
007FFFE000
007FFFE000
03E001FC00
07E000FE00
0FE0007F00
1F80001F80
1E00000700
1E00000600
7C00000000
7C00000000
7C00000000
FC00000000
F000000000
E000000000
E000000000
E000000000
E000000000
E000000000
E000000000
7C00000000
7C00000000
7C00000000
7C00000000
7E00000180
3E00000380
1F80000700
03C0000C00
03C0001C00
01E000F800
01F801E000
01F801E000
007FFFC000
001FFE0000
000FFE0000
ENDCHAR
STARTCHAR $0044
ENCODING 68
SWIDTH 740 0
DWIDTH 35 0
BBX 29 35 3 0
BITMAP
FFFF8000
FFFFF000
FFFFF000
F000FE00
E0007F00
E0007F80
E0000FC0
E00007C0
E00003C0
E00000E0
E00000E0
E00000F0
E00000F8
E0000038
E0000038
E0000038
E0000038
E0000038
E0000038
E0000038
E0000038
E0000070
E00000E0
E00000E0
E00000E0
E00000E0
E00003C0
E0000FC0
E0000FC0
E0007F00
F000FE00
F800FE00
FFFFF000
FFFF8000
FFFF8000
ENDCHAR
STARTCHAR $0045
ENCODING 69
SWIDTH 518 0
DWIDTH 24 0
BBX 19 35 3 0
BITMAP
FFFFE0
FFFFE0
FFFFE0
F00000
E00000
E00000
E00000
E00000
E00000
E00000
E00000
E00000
E00000
E00000
FFFF80
FFFF80
FFFFE0
FFFFE0
FFFFC0
E00000
E00000
E00000
E00000
E00000
E00000
E00000
E00000
E00000
E00000
E00000
F00000
F80000
FFFFE0
FFFFE0
FFFFC0
ENDCHAR
STARTCHAR $0046
ENCODING 70
SWIDTH 481 0
DWIDTH 23 0
BBX 17 35 3 0
BITMAP
FFFF80
FFFF80
FFFF80
F00000
E00000
E00000
E00000
E00000
E00000
E00000
E00000
E00000
E00000
E00000
FFFF00
FFFF00
FFFF80
FFFF80
FFFF80
E00000
E00000
E00000
E00000
E00000
E00000
E00000
E00000
E00000
E00000
E00000
E00000
E00000
E00000
E00000
C00000
ENDCHAR
STARTCHAR $0047
ENCODING 71
SWIDTH 888 0
DWIDTH 41 0
BBX 36 35 1 0
BITMAP
0007FF0000
007FFFF000
007FFFF800
01E001FC00
01E000FE00
01E0007F00
03C0001F80
1E000007C0
1E000007E0
7E000003E0
7C00000000
7C00000000
7C00000000
F000000000
E000000000
E000000000
E000000000
E000000000
E000000000
E003FFFFF0
FC07FFFFF0
FC07FFFFF0
7C000000F0
7C000000E0
7E000000E0
3E000000E0
1E000000E0
03C0000F80
03C0001F80
01E0003F00
01F8007C00
01F800FC00
007FFFF800
0003FE0000
0001FE0000
ENDCHAR
STARTCHAR $0048
ENCODING 72
SWIDTH 666 0
DWIDTH 31 0
BBX 24 35 3 0
BITMAP
E0000F
E0000F
E0000F
E0000F
E0000F
E0000F
E0000F
E0000F
E0000F
E0000F
E0000F
E0000F
E0000F
E0000F
FFFFFF
FFFFFF
FFFFFF
FFFFFF
FFFFFF
E0000F
E0000F
E0000F
E0000F
E0000F
E0000F
E0000F
E0000F
E0000F
E0000F
E0000F
E0000F
E0000F
E0000F
E00002
C00002
ENDCHAR
STARTCHAR $0049
ENCODING 73
SWIDTH 222 0
DWIDTH 11 0
BBX 3 35 3 0
BITMAP
E0
E0
E0
E0
E0
E0
E0
E0
E0
E0
E0
E0
E0
E0
E0
E0
E0
E0
E0
E0
E0
E0
E0
E0
E0
E0
E0
E0
E0
E0
E0
E0
E0
E0
C0
ENDCHAR
STARTCHAR $004A
ENCODING 74
SWIDTH 481 0
DWIDTH 23 0
BBX 19 35 0 0
BITMAP
0003E0
0003E0
0003E0
0003E0
0003E0
0003E0
0003E0
0003E0
0003E0
0003E0
0003E0
0003E0
0003E0
0003E0
0003E0
0003E0
0003E0
0003E0
0003E0
0003E0
0003E0
0003E0
0003E0
0003E0
0003E0
0003E0
E003E0
7C07E0
7C07E0
7E0780
1E0700
1E0700
0FFC00
03F800
03F000
ENDCHAR
STARTCHAR $004B
ENCODING 75
SWIDTH 592 0
DWIDTH 28 0
BBX 22 35 3 0
BITMAP
E0001C
E0003C
E0007C
E000FC
E001F0
E003F0
E007E0
E00780
E00780
E00F00
E01C00
E03C00
E07C00
E1F800
E1F000
E1E000
E1C000
F3C000
FBC000
FE6000
FE3800
FE3800
FC3C00
F00F00
E00780
E00780
E00380
E003C0
E001E0
E000F0
E000F8
E000FC
E0007C
E0001C
C00018
ENDCHAR
STARTCHAR $004C
ENCODING 76
SWIDTH 444 0
DWIDTH 21 0
BBX 17 35 3 0
BITMAP
E00000
E00000
E00000
E00000
E00000
E00000
E00000
E00000
E00000
E00000
E00000
E00000
E00000
E00000
E00000
E00000
E00000
E00000
E00000
E00000
E00000
E00000
E00000
E00000
E00000
E00000
E00000
E00000
E00000
E00000
F00000
F80000
FFFF80
FFFF80
FFFF80
ENDCHAR
STARTCHAR $004D
ENCODING 77
SWIDTH 925 0
DWIDTH 43 0
BBX 36 35 3 0
BITMAP
FC000007F0
FE000007F0
FE000007F0
FE000007F0
FE000007F0
FE000007F0
E380001F70
E380001C70
E380001C70
E380003870
E1C0003870
E1C0007870
E1C000F870
E1F000E070
E0E000E070
E06000E070
E06001E070
E03803C070
E03803C070
E03803C070
E0380F8070
E0380F0070
E00C0F0070
E00C0F0070
E0061F0070
E0071F0070
E0079C0070
E0079C0070
E007980070
E007F00070
E003F00070
E003F00070
E003F00070
E000E00070
C000C00020
ENDCHAR
STARTCHAR $004E
ENCODING 78
SWIDTH 740 0
DWIDTH 35 0
BBX 27 35 3 0
BITMAP
FC0000E0
FE0000E0
FE0000E0
FE0000E0
FE0000E0
FE0000E0
E38000E0
E3C000E0
E3C000E0
E1C000E0
E06000E0
E07000E0
E07800E0
E03800E0
E01C00E0
E00C00E0
E00F00E0
E01F80E0
E00F80E0
E007E0E0
E003E0E0
E001E0E0
E000F0E0
E00070E0
E00078E0
E0007CE0
E0001CE0
E0000FE0
E0000FE0
E0000FE0
E00007E0
E00003E0
E00001E0
E00000E0
C0000060
ENDCHAR
STARTCHAR $004F
ENCODING 79
SWIDTH 851 0
DWIDTH 40 0
BBX 36 35 1 0
BITMAP
0007FF0000
007FFFE000
007FFFE000
01E001FC00
01E000FE00
01E0007F00
03C0001F80
1E000007C0
1E000007E0
7E000003E0
7C000000E0
7C000000E0
7C000000F0
F000000070
E000000070
E000000070
E000000070
E000000070
E000000070
E000000070
7C00000070
7C00000070
7C000000F0
7C000000E0
7E000001E0
3E000003E0
1F800007E0
03C0000F80
03C0001F80
01E000FF00
01F801F800
01F801F000
007FFFC000
001FFE0000
000FFE0000
ENDCHAR
STARTCHAR $0050
ENCODING 80
SWIDTH 592 0
DWIDTH 28 0
BBX 22 35 3 0
BITMAP
FFFF80
FFFFF0
FFFFF0
F000F0
E00070
E00070
E0001C
E0001C
E0001C
E0001C
E0001C
E0001C
E0001C
E0001C
E0003C
E00078
F003F0
FFFFE0
FFFFC0
FFFC00
F00000
F00000
E00000
E00000
E00000
E00000
E00000
E00000
E00000
E00000
E00000
E00000
E00000
E00000
C00000
ENDCHAR
STARTCHAR $0051
ENCODING 81
SWIDTH 888 0
DWIDTH 41 0
BBX 37 35 1 0
BITMAP
0007FFC000
007FFFF000
007FFFF800
01E001FC00
01E000FE00
01E0007F00
03C0001F80
1F800007C0
1F000007E0
7E000003F0
7C000000F0
7C00000070
7C00000070
F000000078
E000000078
E000000078
E000000038
E000000038
E000000038
E000000038
E3FFE00070
E7FFE00070
7FFFFC0070
7FFFFE00F0
7C003F80F0
3C001FC0F0
1E0003E0E0
03C000FF80
03C0007F80
01F8003F80
01FC007F80
01FE00FF80
007FFFFFF0
001FFE0070
000FFE0020
ENDCHAR
STARTCHAR $0052
ENCODING 82
SWIDTH 592 0
DWIDTH 28 0
BBX 24 35 3 0
BITMAP
FFFC00
FFFFC0
FFFFE0
F003F0
E000F0
E000F0
E0001C
E0001C
E0001C
E0001F
E0000F
E0000F
E0001F
E0001E
E0001C
E0001C
E0001C
E000F0
E000F0
E1FFE0
E07800
E07800
E03800
E00C00
E00E00
E00F00
E01F80
E007C0
E007E0
E003E0
E000E0
E000E0
E00070
E0007C
C00038
ENDCHAR
STARTCHAR $0053
ENCODING 83
SWIDTH 481 0
DWIDTH 23 0
BBX 20 35 1 0
BITMAP
03F800
07FF80
0FFF80
1E0780
3E03C0
7E03E0
7C03E0
E000E0
E000C0
E00000
F00000
7A0000
7E0000
1FC000
0FFC00
0FFC00
03FF00
003F80
003F80
0007E0
0003F0
0001F0
0000F0
000070
C00070
E00070
E00070
FC00E0
FC00E0
7E07E0
1E0780
1E0780
0FFF80
03F800
03F000
ENDCHAR
STARTCHAR $0054
ENCODING 84
SWIDTH 444 0
DWIDTH 21 0
BBX 19 35 0 0
BITMAP
FFFFE0
FFFFE0
FFFFE0
006000
006000
006000
007000
006000
007000
006000
007000
006000
006000
007000
006000
006000
006000
007000
006000
006000
006000
007000
006000
006000
006000
006000
007000
006000
006000
006000
006000
006000
006000
006000
006000
ENDCHAR
STARTCHAR $0055
ENCODING 85
SWIDTH 666 0
DWIDTH 31 0
BBX 24 35 3 0
BITMAP
E0000F
E0000F
E0000F
E0000F
E0000F
E0000F
E0000F
E0000F
E0000F
E0000F
E0000F
E0000F
E0000F
E0000F
E0000F
E0000F
E0000F
E0000F
E0000F
E0000F
E0000F
E0000F
E0000F
E0000E
F0001C
F0001C
FC001C
7C001C
7C0018
7E0070
1E00F0
1E00F0
0FFFE0
01FF80
00FF80
ENDCHAR
STARTCHAR $0056
ENCODING 86
SWIDTH 703 0
DWIDTH 33 0
BBX 32 35 0 0
BITMAP
FC00001F
7C00001F
7C00001F
7C00001F
7C00001C
3C00001C
1E000038
1E000038
1E000030
038000E0
038000E0
038000E0
038001E0
03C003C0
01C003C0
01C003C0
01E003C0
00F00F80
00600F00
00600F00
00601F00
00701F00
00381E00
00381C00
00381C00
00381800
001C7000
000F7000
000F7000
000FE000
0007E000
0007E000
0007E000
0003E000
0001C000
ENDCHAR
STARTCHAR $0057
ENCODING 87
SWIDTH 962 0
DWIDTH 45 0
BBX 43 35 0 0
BITMAP
E0000F0001E0
78000F0001E0
7C000F0001E0
7C001F0001E0
7C001FC001E0
7C001FC001E0
7C001FC001C0
1E001FC00700
1E003FC00700
1E0073C00700
1E0071E00700
1E0070E00600
1E0070E00E00
0E0070E00E00
0700E0E00E00
0380E0E00E00
0380E0F80E00
0381E0380E00
0383E0380E00
01C3E0383800
01C3E0383800
01C3C0383800
01C3801C3800
01C7801F7800
01C7801F7000
01C7801F7000
0077801F7000
007F001F7000
007F001F7000
007C0007F000
003C0007E000
003C0007E000
003C0007E000
003C0007E000
001C0007C000
ENDCHAR
STARTCHAR $0058
ENCODING 88
SWIDTH 592 0
DWIDTH 28 0
BBX 24 35 1 0
BITMAP
E0000F
78001F
7C001F
7C001E
7E001C
3E001C
0E007C
038070
038070
03C0E0
01C3E0
01E7C0
01F780
01FF00
00FE00
007C00
003C00
007F00
007F00
007F80
01FF80
01FFC0
01E3E0
01C3E0
0381F0
0380F0
1F8070
1E0038
1E001C
7C001E
7C001F
78001F
F0000F
E00001
C00001
ENDCHAR
STARTCHAR $0059
ENCODING 89
SWIDTH 592 0
DWIDTH 28 0
BBX 27 35 0 0
BITMAP
FC0003E0
7C0003C0
7C0003C0
7C0003C0
7E000FC0
3E000FC0
1E000F00
1F801F00
1F801F00
03801C00
03C07C00
03C07C00
01C07C00
01F0F000
01E1E000
01E3E000
0063E000
007F8000
007F8000
003F8000
001F0000
001E0000
000C0000
000C0000
000C0000
000C0000
001C0000
000C0000
000C0000
000C0000
000C0000
000C0000
000C0000
000C0000
000C0000
ENDCHAR
STARTCHAR $005A
ENCODING 90
SWIDTH 481 0
DWIDTH 23 0
BBX 22 35 0 0
BITMAP
7FFFF0
7FFFF0
3FFFF0
0000F0
0000F0
0000F0
0003E0
0003E0
0003C0
000780
000F80
000F00
000F00
001C00
003C00
003C00
003800
007000
00E000
01E000
01C000
01C000
03C000
03C000
038000
038000
1E0000
3E0000
7E0000
7C0000
7C0000
7C0000
FFFFFC
FFFFFC
FFFFF8
ENDCHAR
STARTCHAR $005B
ENCODING 91
SWIDTH 333 0
DWIDTH 16 0
BBX 10 45 3 -10
BITMAP
FFC0
FFC0
FFC0
F000
E000
E000
E000
E000
E000
E000
E000
E000
E000
E000
E000
E000
E000
E000
E000
E000
E000
E000
E000
E000
E000
E000
E000
E000
E000
E000
E000
E000
E000
E000
E000
E000
E000
E000
E000
E000
FFC0
FFC0
FFC0
FFC0
FFC0
ENDCHAR
STARTCHAR $005C
ENCODING 92
SWIDTH 518 0
DWIDTH 24 0
BBX 17 37 3 -5
BITMAP
E00000
F80000
FC0000
7C0000
7C0000
7C0000
7C0000
1E0000
1E0000
1E0000
1E0000
0F0000
0F8000
038000
038000
038000
038000
01C000
01C000
01C000
01C000
00C000
006000
006000
006000
006000
007000
003800
003800
003800
003800
003800
000C00
000C00
001E00
000F00
000F80
ENDCHAR
STARTCHAR $005D
ENCODING 93
SWIDTH 333 0
DWIDTH 16 0
BBX 10 45 1 -10
BITMAP
FFC0
FFC0
FFC0
03C0
01C0
01C0
01C0
01C0
01C0
01C0
01C0
01C0
01C0
01C0
01C0
01C0
01C0
01C0
01C0
01C0
01C0
01C0
01C0
01C0
01C0
01C0
01C0
01C0
01C0
01C0
01C0
01C0
01C0
01C0
01C0
01C0
01C0
01C0
01C0
01C0
FFC0
FFC0
FFC0
FFC0
FFC0
ENDCHAR
STARTCHAR $005E
ENCODING 94
SWIDTH 592 0
DWIDTH 28 0
BBX 26 26 1 9
BITMAP
003C0000
007C0000
007C0000
007C0000
007F0000
007F0000
00778000
01C38000
01C3C000
01C3E000
0383E000
0383E000
0383F000
0E007000
1E007000
1E007000
1E007000
3E001800
7E001C00
7C001C00
7C000F00
78000F00
F0000F00
E0000F00
E0000F80
E0000FC0
ENDCHAR
STARTCHAR $005F
ENCODING 95
SWIDTH 518 0
DWIDTH 24 0
BBX 22 3 0 -6
BITMAP
FFFFFC
FFFFFC
FFFFF8
ENDCHAR
STARTCHAR $0060
ENCODING 96
SWIDTH 370 0
DWIDTH 18 0
BBX 10 7 1 30
BITMAP
FC00
7E00
3E00
0FC0
03C0
03C0
0180
ENDCHAR
STARTCHAR $0061
ENCODING 97
SWIDTH 666 0
DWIDTH 31 0
BBX 27 26 1 0
BITMAP
007FE0E0
03FFF8E0
03FFFCE0
0FC07FE0
1E003FE0
1E001FE0
7C000FE0
7C0007E0
7C0003E0
FC0003E0
F00001E0
E00000E0
E00000E0
E00000E0
F00001E0
F00001E0
FC0003E0
7C0003E0
7C0007E0
7E000FE0
1F801CE0
1F8038E0
0FFFF0E0
03FFF0E0
00FFE0E0
007FE060
ENDCHAR
STARTCHAR $0062
ENCODING 98
SWIDTH 666 0
DWIDTH 31 0
BBX 26 35 3 0
BITMAP
E0000000
E0000000
E0000000
E0000000
E0000000
E0000000
E0000000
E0000000
E0000000
E07F8000
E3FFF000
E7A47800
FF807C00
FC000E00
F8000F00
F0000F80
E0000FC0
E00007C0
E00003C0
E00003C0
E00003C0
E00003C0
E00003C0
E00003C0
F00003C0
F00007C0
FC000FC0
FC000F80
FC000F00
FF807E00
FFC0FC00
FFC0F800
E3FFF000
E07F8000
C07F8000
ENDCHAR
STARTCHAR $0063
ENCODING 99
SWIDTH 629 0
DWIDTH 29 0
BBX 26 26 1 0
BITMAP
007FE000
03FFF800
03FFFC00
0FC07E00
1E003F00
1E001F80
7C000FC0
7C0007C0
7C0003C0
FC000000
F0000000
E0000000
E0000000
E0000000
F0000000
F0000000
FC000000
7C0003C0
7C0007C0
7E000FC0
1F801F80
1F803F00
0FFFFE00
03FFFC00
00FFE000
007FE000
ENDCHAR
STARTCHAR $0064
ENCODING 100
SWIDTH 703 0
DWIDTH 33 0
BBX 27 35 1 0
BITMAP
000000E0
000000E0
000000E0
000000E0
000000E0
000000E0
000000E0
000000E0
000000E0
007FE0E0
03FFFCE0
07A47CE0
1F801FE0
7E000FE0
7C0007E0
7C0003E0
7C0003E0
FC0003E0
FC0003E0
E00000E0
E00000E0
E00000E0
E00000E0
F00000E0
F80000E0
FC0000E0
7C0003E0
7E000FE0
3E000FE0
1F801FE0
0FC07CE0
07C078E0
03FFF0E0
007FE0E0
007FC060
ENDCHAR
STARTCHAR $0065
ENCODING 101
SWIDTH 666 0
DWIDTH 31 0
BBX 26 26 1 0
BITMAP
007FE000
03FFF800
03FFFC00
0FC07E00
1E003F00
1E001F00
7C000F00
700007C0
700003C0
F00003C0
FFFFFFC0
FFFFFFC0
FFFFFFC0
F0000000
E0000000
E0000000
F0000000
7C0003C0
7C0007C0
7E000F00
1F801C00
1F803800
0FFFF000
03FFF000
00FFC000
007F8000
ENDCHAR
STARTCHAR $0066
ENCODING 102
SWIDTH 296 0
DWIDTH 14 0
BBX 13 35 0 0
BITMAP
0038
00F8
01F8
03E0
03C0
03C0
0380
0F80
0F80
FFF8
FFF8
0FA0
0F80
0380
0380
0380
0380
0380
0380
0380
0380
0380
0380
0380
0380
0380
0380
0380
0380
0380
0380
0380
0380
0380
0300
ENDCHAR
STARTCHAR $0067
ENCODING 103
SWIDTH 666 0
DWIDTH 31 0
BBX 26 36 1 -10
BITMAP
007FE3C0
03FFF3C0
03FFF7C0
0FC0FFC0
1E007FC0
1E007FC0
7C000FC0
700007C0
700003C0
F00003C0
E00003C0
E00003C0
E00003C0
E00003C0
F00003C0
F00003C0
FC0003C0
7C0003C0
7C0007C0
7E000FC0
1F801FC0
1F803FC0
0FFFF3C0
03FFF3C0
00FFC3C0
007F83C0
7C0003C0
7C0003C0
3C0007C0
1E000F00
1E000F00
1E000F00
0FE01E00
03FFFC00
03FFF800
000FE000
ENDCHAR
STARTCHAR $0068
ENCODING 104
SWIDTH 592 0
DWIDTH 28 0
BBX 22 35 3 0
BITMAP
E00000
E00000
E00000
E00000
E00000
E00000
E00000
E00000
E00000
E1FF00
FFFFE0
FFA7E0
FE03F0
FC0070
F80070
F00070
E00070
E00018
E0001C
E0001C
E0001C
E0001C
E0001C
E0001C
E0001C
E0001C
E0001C
E0001C
E0001C
E0001C
E0001C
E0001C
E0001C
E0001C
C00018
ENDCHAR
STARTCHAR $0069
ENCODING 105
SWIDTH 185 0
DWIDTH 9 0
BBX 3 35 3 0
BITMAP
E0
E0
E0
E0
E0
E0
00
00
00
E0
E0
E0
E0
E0
E0
E0
E0
E0
E0
E0
E0
E0
E0
E0
E0
E0
E0
E0
E0
E0
E0
E0
E0
E0
C0
ENDCHAR
STARTCHAR $006A
ENCODING 106
SWIDTH 185 0
DWIDTH 9 0
BBX 9 43 -1 -8
BITMAP
0380
0380
0380
0380
0200
0200
0000
0000
0000
0380
0380
0380
0380
0380
0380
0380
0380
0380
0380
0380
0380
0380
0380
0380
0380
0380
0380
0380
0380
0380
0380
0380
0380
0380
0780
0F80
1E00
1E00
1E00
FC00
F000
F000
E000
ENDCHAR
STARTCHAR $006B
ENCODING 107
SWIDTH 518 0
DWIDTH 24 0
BBX 19 35 3 0
BITMAP
E00000
E00000
E00000
E00000
E00000
E00000
E00000
E00000
E00000
E007E0
E00F80
E00F00
E00F00
E01C00
E03800
E03800
E07800
E1F000
E1E000
E1C000
E38000
E78000
FFC000
FFE000
FFF800
FFF800
FC7C00
F83C00
F03E00
E00F00
E00700
E00700
E00780
E003E0
C001C0
ENDCHAR
STARTCHAR $006C
ENCODING 108
SWIDTH 185 0
DWIDTH 9 0
BBX 3 35 3 0
BITMAP
E0
E0
E0
E0
E0
E0
E0
E0
E0
E0
E0
E0
E0
E0
E0
E0
E0
E0
E0
E0
E0
E0
E0
E0
E0
E0
E0
E0
E0
E0
E0
E0
E0
E0
C0
ENDCHAR
STARTCHAR $006D
ENCODING 109
SWIDTH 925 0
DWIDTH 43 0
BBX 37 26 3 0
BITMAP
E3F803FF00
FFFF87FFC0
FFFF8FFFE0
FC07FE03E0
F803FC01F0
F003F800F0
E003F00070
E000F00070
E000F00070
E000700038
E000700038
E000700038
E000700038
E000700038
E000700038
E000700038
E000700038
E000700038
E000700038
E000700038
E000700038
E000700038
E000700038
E000700038
E000700038
E000700018
ENDCHAR
STARTCHAR $006E
ENCODING 110
SWIDTH 592 0
DWIDTH 28 0
BBX 22 26 3 0
BITMAP
E1FC00
FFFFC0
FFFFE0
FE03F0
FE00F0
FE00F0
FC0070
E00070
E00030
E0001C
E0001C
E0001C
E0001C
E0001C
E0001C
E0001C
E0001C
E0001C
E0001C
E0001C
E0001C
E0001C
E0001C
E0001C
E0001C
E00018
ENDCHAR
STARTCHAR $006F
ENCODING 111
SWIDTH 666 0
DWIDTH 31 0
BBX 27 26 1 0
BITMAP
007FE000
03FFF800
03FFFC00
0FC07E00
1E003F00
1E001F80
7C000FC0
7C0007C0
7C0003C0
FC0003C0
F00003E0
E00001E0
E00001E0
E00001C0
F00003C0
F00003C0
FC0003C0
7C0003C0
7C0007C0
7E000F00
1F801F00
1F803F00
0FFFFE00
03FFFC00
00FFE000
007FE000
ENDCHAR
STARTCHAR $0070
ENCODING 112
SWIDTH 666 0
DWIDTH 31 0
BBX 26 35 3 -9
BITMAP
E07F8000
E3FFF000
E3FFF000
FFC0FC00
FE007E00
FE007E00
FC000F00
E0000FC0
E0000FC0
E00003C0
E00003C0
E00003C0
E00003C0
E00003C0
E00003C0
E00003C0
E00003C0
F0000FC0
F8000FC0
FC000F00
FF807C00
FF807800
FFFFF000
E3FFF000
E0FFC000
E07F8000
E0000000
E0000000
E0000000
E0000000
E0000000
E0000000
E0000000
E0000000
C0000000
ENDCHAR
STARTCHAR $0071
ENCODING 113
SWIDTH 666 0
DWIDTH 31 0
BBX 27 35 1 -9
BITMAP
007FE0E0
03FFF8E0
03FFFCE0
0FC07FE0
1E003FE0
1E001FE0
7C000FE0
7C0007E0
7C0003E0
FC0003E0
F00001E0
E00000E0
E00000E0
E00000E0
F00000E0
F00000E0
FC0001E0
7C0003E0
7C0007E0
7E000FE0
1F801CE0
1F8038E0
0FFFF0E0
03FFF0E0
00FFE0E0
007FE0E0
000000E0
000000E0
000000E0
000000E0
000000E0
000000E0
000000E0
000000E0
00000060
ENDCHAR
STARTCHAR $0072
ENCODING 114
SWIDTH 296 0
DWIDTH 14 0
BBX 10 26 3 0
BITMAP
E1C0
FFC0
FFC0
FE00
FE00
FE00
FC00
E000
E000
E000
E000
E000
E000
E000
E000
E000
E000
E000
E000
E000
E000
E000
E000
E000
E000
E000
ENDCHAR
STARTCHAR $0073
ENCODING 115
SWIDTH 370 0
DWIDTH 18 0
BBX 17 26 0 0
BITMAP
03E000
07FC00
0FFC00
1E0C00
3E0C00
7E0C00
7C1C00
7C0000
7C0000
7E0000
1FC000
03E000
01F800
003C00
001F00
000F00
000F80
F00780
F80780
7C0780
7C0700
3C0600
1FFC00
0FFC00
07F000
03E000
ENDCHAR
STARTCHAR $0074
ENCODING 116
SWIDTH 333 0
DWIDTH 16 0
BBX 14 35 0 0
BITMAP
03C0
03C0
03C0
03C0
03C0
03C0
03C0
0FC0
0FC0
FFFC
FFFC
0FE4
0FC0
03C0
03C0
03C0
03C0
03C0
03C0
03C0
03C0
03C0
03C0
03C0
03C0
03C0
03C0
03C0
03C0
03C0
03C0
03C0
03C0
03C0
03C0
ENDCHAR
STARTCHAR $0075
ENCODING 117
SWIDTH 592 0
DWIDTH 28 0
BBX 22 26 3 0
BITMAP
E0001C
E0001C
E0001C
E0001C
E0001C
E0001C
E0001C
E0001C
E0001C
E0001C
E0001C
E0001C
E0001C
E0001C
E0001C
E0001C
E0001C
F0007C
F8007C
FC007C
7E00FC
3F01FC
1FFF9C
0FFF1C
07F81C
03F818
ENDCHAR
STARTCHAR $0076
ENCODING 118
SWIDTH 555 0
DWIDTH 26 0
BBX 26 26 0 0
BITMAP
E0000FC0
78000F80
7C000F00
7C000F00
7C000E00
3C000E00
1E001C00
1E001C00
1E003800
1F807000
0F807000
07807000
03807000
03C0F000
01C1E000
01C3E000
01E3E000
00F78000
00678000
00678000
007F8000
007F8000
003F0000
003C0000
003C0000
003C0000
ENDCHAR
STARTCHAR $0077
ENCODING 119
SWIDTH 814 0
DWIDTH 38 0
BBX 37 26 0 0
BITMAP
E000000038
7800000038
7C00000038
7C00700070
7C00700070
7C00700070
7E007C0070
1E03FC00F0
1E03FC00F0
1E03FC00E0
0F83EE00E0
0783CE01C0
03838F0780
03838F0780
0387870780
0387838780
01C783C780
01C703DF00
01C703DF00
01FC03DF00
007C00D800
007C00D800
007C00F800
007800F800
003800F800
0038007800
ENDCHAR
STARTCHAR $0078
ENCODING 120
SWIDTH 481 0
DWIDTH 23 0
BBX 19 26 1 0
BITMAP
E003E0
F807E0
FC07E0
7C0780
7C0700
3C0700
1E1C00
1FBC00
1FBC00
03B800
01F000
01E000
01E000
01F000
03F800
03F800
0FB800
1E3C00
1E3C00
1E0C00
3C0780
7807C0
F007E0
E003E0
E001E0
E000E0
ENDCHAR
STARTCHAR $0079
ENCODING 121
SWIDTH 518 0
DWIDTH 24 0
BBX 24 35 0 -9
BITMAP
FC000F
7C001F
7C001F
7C001E
7C001C
3C001C
1E001C
1E0070
1E0070
1F8070
0F80E0
0781E0
0383E0
03C3E0
01C7E0
01C7E0
01E780
01F780
01F780
007C00
007C00
007C00
003C00
003800
003800
003800
007800
007000
006000
006000
01E000
01E000
01C000
01C000
00C000
ENDCHAR
STARTCHAR $007A
ENCODING 122
SWIDTH 407 0
DWIDTH 19 0
BBX 19 26 0 0
BITMAP
7FFFE0
7FFFE0
3FFFE0
000780
000700
000700
001C00
003C00
003C00
003800
007000
00E000
01E000
01F000
03C000
03C000
0F8000
1F8000
1F0000
7E0000
7C0000
7C0000
FFFFE0
FFFFE0
FFFFE0
FFFFE0
ENDCHAR
STARTCHAR $007B
ENCODING 123
SWIDTH 370 0
DWIDTH 18 0
BBX 13 45 1 -10
BITMAP
0038
00F8
01F8
03E0
03C0
03C0
0380
0380
0380
0380
0380
0380
0380
0380
0380
0380
0380
0380
0380
1F80
FE00
FE00
FE00
FE00
0F00
0F80
0380
0380
0380
0380
0380
0380
0380
0380
0380
0380
0380
0380
0380
03C0
01F8
01F8
01F8
0078
0078
ENDCHAR
STARTCHAR $007C
ENCODING 124
SWIDTH 222 0
DWIDTH 11 0
BBX 3 37 3 -5
BITMAP
E0
E0
E0
E0
E0
E0
E0
E0
E0
E0
E0
E0
E0
E0
E0
E0
E0
E0
E0
E0
E0
E0
E0
E0
E0
E0
E0
E0
E0
E0
E0
E0
E0
E0
E0
E0
E0
ENDCHAR
STARTCHAR $007D
ENCODING 125
SWIDTH 370 0
DWIDTH 18 0
BBX 13 45 1 -10
BITMAP
E000
FE00
FE00
1F80
0F80
0F80
0380
0380
0380
0380
0380
0380
0380
0380
0380
0380
0380
0380
0380
03C0
01F8
01F8
01F8
01F8
03C0
03C0
0380
0380
0380
0380
0380
0380
0380
0380
0380
0380
0380
0380
0380
0F80
FE00
FE00
FC00
E000
C000
ENDCHAR
STARTCHAR $007E
ENCODING 126
SWIDTH 592 0
DWIDTH 28 0
BBX 22 7 3 11
BITMAP
1F801C
FFF83C
FFF87C
F07FFC
E07FF0
E07FF0
801FE0
ENDCHAR
STARTCHAR $00A0
ENCODING 160
SWIDTH 259 0
DWIDTH 12 0
BBX 0 0 0 0
BITMAP
ENDCHAR
STARTCHAR $00A1
ENCODING 161
SWIDTH 296 0
DWIDTH 14 0
BBX 3 35 6 -9
BITMAP
E0
E0
E0
E0
E0
E0
00
00
00
E0
E0
E0
E0
E0
E0
E0
E0
E0
E0
E0
E0
E0
E0
E0
E0
E0
E0
E0
E0
E0
E0
E0
E0
E0
C0
ENDCHAR
STARTCHAR $00A2
ENCODING 162
SWIDTH 555 0
DWIDTH 26 0
BBX 20 29 1 4
BITMAP
003800
003800
003800
007C00
01FF00
01FF00
03FFE0
1F80F0
1F00F0
7C0070
7C0000
600000
E00000
E00000
E00000
E00000
F00000
FC0000
FC0000
7C0070
7E00F0
3F01F0
1FFFE0
0FFFE0
01FE00
01FC00
003800
003800
003800
ENDCHAR
STARTCHAR $00A3
ENCODING 163
SWIDTH 555 0
DWIDTH 26 0
BBX 27 35 0 0
BITMAP
003FE000
00FFF800
01FFFC00
03E07E00
03C03F00
03C01F00
03800F00
1E0007C0
1E0003C0
1E0003C0
1E000000
1E000000
1E000000
1E000000
FFFFF000
FFFFF000
FFFFF000
FFFFF000
FFFFF000
00600000
00380000
00380000
003800E0
003800E0
003800E0
003800E0
003800E0
003803E0
003807E0
00380FC0
007C0F80
00FE0F00
1FFFFE00
1FFFF000
1FFFF000
ENDCHAR
STARTCHAR $00A4
ENCODING 164
SWIDTH 555 0
DWIDTH 26 0
BBX 22 24 1 2
BITMAP
61FC10
FFFFF8
FFFFFC
7E03FC
7E00F0
7E00F0
7C0070
E00018
E0001C
E0001C
E0001C
E0001C
E0001C
E0001C
E0001C
E0001C
F0001C
7C0070
7C0070
7E03F0
FFFFF8
FFFFF8
71FF10
01FC10
ENDCHAR
STARTCHAR $00A5
ENCODING 165
SWIDTH 555 0
DWIDTH 26 0
BBX 27 35 0 0
BITMAP
E00000E0
780001C0
7C0001C0
7C0003C0
7C0003C0
3C0007C0
1E000F00
1E000C00
1E000C00
03801C00
01C07000
03C07C00
7FC07F00
7FF0FFC0
01E1E000
01E3E000
0063E000
003F8000
003F8000
003F8000
3FFFFFC0
7FFFFFC0
7FFFFFC0
1FFFFFC0
001E0000
000C0000
001C0000
000C0000
000C0000
000C0000
000C0000
000C0000
000C0000
000C0000
000C0000
ENDCHAR
STARTCHAR $00A6
ENCODING 166
SWIDTH 592 0
DWIDTH 28 0
BBX 3 39 12 -3
BITMAP
E0
E0
E0
E0
E0
E0
E0
E0
E0
E0
E0
E0
E0
E0
00
00
00
00
00
00
00
00
00
00
C0
E0
E0
E0
E0
E0
E0
E0
E0
E0
E0
E0
E0
E0
E0
ENDCHAR
STARTCHAR $00A7
ENCODING 167
SWIDTH 629 0
DWIDTH 29 0
BBX 20 40 3 -3
BITMAP
01FC00
03FF80
03FF80
0E0780
1E03C0
1E01E0
1E00E0
1E0000
1E0000
1E0000
1F8000
1FA000
1FF000
7DFC00
781F80
700F80
600FE0
E000F0
E000F0
E00070
7C0070
3C0070
1F8070
0F8070
07F870
03F870
007FE0
001FE0
000FE0
0003E0
0000E0
0000E0
7C0070
7C0070
7C01F0
7C03E0
1F87E0
0FFFC0
0FFF80
007C00
ENDCHAR
STARTCHAR $00A8
ENCODING 168
SWIDTH 370 0
DWIDTH 18 0
BBX 10 6 3 29
BITMAP
E1C0
E1C0
E1C0
E1C0
E1C0
E1C0
ENDCHAR
STARTCHAR $00A9
ENCODING 169
SWIDTH 740 0
DWIDTH 35 0
BBX 33 33 1 1
BITMAP
003FF00000
00C00E0000
01C00E0000
0200000000
0200004000
0200004000
1C00002000
200FF01800
601FF00800
607F7F0400
81F003C700
83A0000700
8380000700
8380000000
8380000080
8380000080
8380000080
8380000080
8380000080
8380000700
81C003C700
C0C0078700
E0600F0700
E0780E0400
603FFC0800
203FF81800
1C00003800
0200007000
020000E000
01C00F0000
01C00E0000
01C00E0000
000FF00000
ENDCHAR
STARTCHAR $00AA
ENCODING 170
SWIDTH 370 0
DWIDTH 18 0
BBX 13 19 1 16
BITMAP
1FC8
3CF8
7C78
F038
E018
E008
8018
8008
C018
E038
7078
7AF8
7FC8
0000
0000
0000
0000
FFF8
FFF8
ENDCHAR
STARTCHAR $00AB
ENCODING 171
SWIDTH 407 0
DWIDTH 19 0
BBX 14 17 1 7
BITMAP
038C
070C
0E0C
1E0C
3E38
7E38
7C78
E070
E070
FC60
7C38
3E38
1E38
1E1C
0E0C
0E0C
038C
ENDCHAR
STARTCHAR $00AC
ENCODING 172
SWIDTH 740 0
DWIDTH 35 0
BBX 27 13 3 3
BITMAP
FFFFFFE0
FFFFFFE0
FFFFFFE0
000001E0
000000E0
000000E0
000000E0
000000E0
000000E0
000000E0
000000E0
000000E0
000000E0
ENDCHAR
STARTCHAR $00AD
ENCODING 173
SWIDTH 333 0
DWIDTH 16 0
BBX 11 3 1 12
BITMAP
FFE0
FFE0
FFE0
ENDCHAR
STARTCHAR $00AE
ENCODING 174
SWIDTH 740 0
DWIDTH 35 0
BBX 33 33 1 1
BITMAP
003FF00000
00C00E0000
01C00E0000
020000E000
020000E000
0200006000
1C00002000
207FE01800
607FE00800
6040FC0400
80401C0700
80400C0700
80400C0700
80400C0000
80401C0080
80401C0080
80407C0080
8047F00080
8047F00080
8047800700
8043E00700
C041E00700
E040F00700
E040700400
6040380800
2040181800
1C00003800
0200007000
020000E000
01C00F0000
01C00E0000
01C00E0000
000FF00000
ENDCHAR
STARTCHAR $00AF
ENCODING 175
SWIDTH 481 0
DWIDTH 23 0
BBX 14 3 3 30
BITMAP
FFFC
FFFC
FFFC
ENDCHAR
STARTCHAR $00B0
ENCODING 176
SWIDTH 407 0
DWIDTH 19 0
BBX 13 14 1 23
BITMAP
03C0
3FF8
7FF8
7038
6018
6008
E018
E008
E018
6008
7018
3AA0
1FE0
0380
ENDCHAR
STARTCHAR $00B1
ENCODING 177
SWIDTH 703 0
DWIDTH 33 0
BBX 26 35 3 -9
BITMAP
000C0000
000C0000
000C0000
000C0000
000C0000
000C0000
001C0000
000C0000
001C0000
000C0000
001C0000
02BE4400
FFFFFF00
FFFFFFC0
001FC000
000F8000
000F0000
001E0000
000C0000
000C0000
000C0000
001C0000
000C0000
000C0000
000C0000
000C0000
001C0000
00000000
00000000
00000000
00000000
00000000
FFFFFFC0
FFFFFF00
FFFFFF00
ENDCHAR
STARTCHAR $00B2
ENCODING 178
SWIDTH 333 0
DWIDTH 16 0
BBX 14 20 0 17
BITMAP
03E0
3FF8
7FF8
7C08
780C
700C
601C
000C
001C
0038
0078
00F0
01E0
0380
0600
0E00
1E00
3C00
7C00
FFFC
ENDCHAR
STARTCHAR $00B3
ENCODING 179
SWIDTH 333 0
DWIDTH 16 0
BBX 14 20 0 17
BITMAP
03C0
07E0
0FF0
1C38
3838
3038
0038
01F0
01F0
03E0
0038
001C
000C
E01C
600C
600C
7008
7C38
3C38
1FE0
ENDCHAR
STARTCHAR $00B4
ENCODING 180
SWIDTH 370 0
DWIDTH 18 0
BBX 10 7 6 30
BITMAP
03C0
0780
0F80
FC00
F800
F000
6000
ENDCHAR
STARTCHAR $00B5
ENCODING 181
SWIDTH 592 0
DWIDTH 28 0
BBX 22 33 3 -6
BITMAP
E0001C
E0001C
E0001C
E0001C
E0001C
E0001C
E0001C
E0001C
E0001C
E0001C
E0001C
E0001C
E0001C
E0001C
E0001C
E0001C
F0007C
FC007C
FC007C
FC03FC
FE07FC
FF07FC
FFFF9C
E3FF1C
E1F81C
E1F818
E00000
E00000
E00000
E00000
E00000
E00000
E00000
ENDCHAR
STARTCHAR $00B6
ENCODING 182
SWIDTH 555 0
DWIDTH 26 0
BBX 20 40 1 -3
BITMAP
03FFF0
3FFFF0
7FFFF0
7FE0F0
7FE070
7FE070
FFF070
FFE070
FFF070
FFE070
FFF070
7FE070
7FE070
7FF070
1FE070
1FE070
0FE070
00F070
006070
006070
006070
007070
006070
006070
006070
006070
007070
006070
006070
006070
006070
006070
006070
006070
007070
006070
006070
006070
006070
006070
ENDCHAR
STARTCHAR $00B7
ENCODING 183
SWIDTH 222 0
DWIDTH 11 0
BBX 3 6 3 9
BITMAP
E0
E0
E0
E0
E0
E0
ENDCHAR
STARTCHAR $00B8
ENCODING 184
SWIDTH 333 0
DWIDTH 16 0
BBX 10 10 3 -9
BITMAP
1C00
3F00
7F80
7F80
7F80
3F80
01C0
E1C0
E1C0
7F80
ENDCHAR
STARTCHAR $00B9
ENCODING 185
SWIDTH 333 0
DWIDTH 16 0
BBX 6 20 6 17
BITMAP
FC
3C
1C
1C
1C
1C
1C
1C
1C
1C
1C
1C
1C
1C
1C
1C
1C
1C
1C
1C
ENDCHAR
STARTCHAR $00BA
ENCODING 186
SWIDTH 370 0
DWIDTH 18 0
BBX 13 19 1 16
BITMAP
1FC0
3CE0
7C70
F038
E018
E008
8018
8008
C018
E038
7070
3AE0
1FC0
0000
0000
0000
0000
FFF8
FFF8
ENDCHAR
STARTCHAR $00BB
ENCODING 187
SWIDTH 407 0
DWIDTH 19 0
BBX 14 17 1 7
BITMAP
E060
7860
7C70
7C38
7C3C
3C3C
1E3C
1F9C
1F1C
1E0C
1E1C
3E1C
7C38
7C78
F870
F060
E060
ENDCHAR
STARTCHAR $00BC
ENCODING 188
SWIDTH 814 0
DWIDTH 38 0
BBX 32 35 6 0
BITMAP
FC000C00
3C001C00
1C001C00
1C001C00
1C001000
1C001000
1C007000
1C006000
1C006000
1C00E000
1C038000
1C038000
1C038000
1C07003C
1C06003E
1C04003F
1C04003F
1C0C007F
1C0C00FF
1C0C03DF
0038039F
0038071F
00380F1F
00200E1F
00601C1F
0060181F
0040701F
01C0701F
01C0701F
01807FFF
03801FFF
03001FFF
0200001F
0200001C
0200000C
ENDCHAR
STARTCHAR $00BD
ENCODING 189
SWIDTH 814 0
DWIDTH 38 0
BBX 33 35 6 0
BITMAP
FC000C0000
3C001C0000
1C001C0000
1C001C0000
1C00100000
1C00100000
1C00700000
1C00600000
1C00600000
1C00E00000
1C03800000
1C03800000
1C03800000
1C070FFC00
1C061E1E00
1C041E1F00
1C0C1C1F80
1C181C0780
1C18180780
1C38100780
0038000780
0038000F80
0020001F00
0020001C00
0060003800
0060003800
004000E000
01C003C000
01C007C000
01800F0000
03800E0000
03000E0000
02001E0000
02001FFF00
02001FFE00
ENDCHAR
STARTCHAR $00BE
ENCODING 190
SWIDTH 814 0
DWIDTH 38 0
BBX 37 35 0 0
BITMAP
03C0003800
07E0003000
0FF0002000
1C3800E000
383800E000
303800E000
003800E000
01F000C000
01F000C000
03E003C000
0038030000
001C030000
000C030000
E01C0E00E0
600C1C00F0
600C1C00F0
70081C03F0
7C381007F0
3C383007F0
1FE0701FF0
0000601870
0000601870
0000E03870
0003E03870
0003C07070
000380E070
000383C070
000783C070
000783C070
000703FFF8
000401FFF0
000401FFF0
000C000070
0008000070
0000000020
ENDCHAR
STARTCHAR $00BF
ENCODING 191
SWIDTH 592 0
DWIDTH 28 0
BBX 20 36 3 -10
BITMAP
006000
006000
006000
006000
006000
006000
000000
000000
000000
006000
007000
00E000
01E000
01F000
03C000
03C000
0F8000
1F8000
1F0000
7E0000
FC0000
F80000
F00000
E00000
E00030
E00070
E00070
E00070
E00070
F000F0
FC03F0
FC03F0
7E07E0
1FFF80
1FFF80
01F800
ENDCHAR
STARTCHAR $00C0
ENCODING 192
SWIDTH 740 0
DWIDTH 35 0
BBX 32 43 1 4
BITMAP
00780000
003C0000
003C0000
00078000
0003C000
0001E000
00008000
00000000
00000000
00078000
000FE000
000FE000
000FE000
001C7000
00387000
00387000
00387000
00787000
00787000
00601C00
00601C00
00F01C00
01E00E00
01C00F00
01C00F00
01C00F80
03800FC0
03FFFFC0
03FFFFC0
0FFFFFC0
1FFFFFC0
1FFFFFC0
1E0000E0
1E0000E0
3E000070
7C000038
7C000038
E000003C
E000003C
E000001F
E000001F
E000000E
E0000004
ENDCHAR
STARTCHAR $00C1
ENCODING 193
SWIDTH 740 0
DWIDTH 35 0
BBX 32 43 1 4
BITMAP
00007C00
0000F800
0000F000
000F8000
00070000
00070000
00000000
00000000
00000000
00078000
000FE000
000FE000
000FE000
001C7000
00387000
00387000
00387000
00787000
00787000
00601C00
00601C00
00F01C00
01E00E00
01C00F00
01C00F00
01C00F80
03800FC0
03FFFFC0
03FFFFC0
0FFFFFC0
1FFFFFC0
1FFFFFC0
1E0000E0
1E0000E0
3E000070
7C000038
7C000038
E000003C
E000003C
E000001F
E000001F
E000000E
E0000004
ENDCHAR
STARTCHAR $00C2
ENCODING 194
SWIDTH 740 0
DWIDTH 35 0
BBX 32 43 1 2
BITMAP
00078000
000FC000
000FE000
000CF000
00387000
00387000
01F01F00
00000000
00000000
00078000
000FE000
000FE000
000FE000
001C7000
00387000
00387000
00387000
00787000
00787000
00601C00
00601C00
00F01C00
01E00E00
01C00F00
01C00F00
01C00F80
03800FC0
03FFFFC0
03FFFFC0
0FFFFFC0
1FFFFFC0
1FFFFFC0
1E0000E0
1E0000E0
3E000070
7C000038
7C000038
E000003C
E000003C
E000001F
E000001F
E000000E
E0000004
ENDCHAR
STARTCHAR $00C3
ENCODING 195
SWIDTH 740 0
DWIDTH 35 0
BBX 32 43 1 2
BITMAP
00080000
007C1000
007C1000
0063FC00
0060FC00
0060F800
00006000
00000000
00000000
00078000
000FE000
000FE000
000FE000
001C7000
00387000
00387000
00387000
00787000
00787000
00601C00
00601C00
00F01C00
01E00E00
01C00F00
01C00F00
01C00F80
03800FC0
03FFFFC0
03FFFFC0
0FFFFFC0
1FFFFFC0
1FFFFFC0
1E0000E0
1E0000E0
3E000070
7C000038
7C000038
E000003C
E000003C
E000001F
E000001F
E000000E
E0000004
ENDCHAR
STARTCHAR $00C4
ENCODING 196
SWIDTH 740 0
DWIDTH 35 0
BBX 32 43 1 2
BITMAP
00387000
00387000
00387000
00387000
00187000
00087000
00000000
00000000
00000000
00078000
000FE000
000FE000
000FE000
001C7000
00387000
00387000
00387000
00787000
00787000
00601C00
00601C00
00F01C00
01E00E00
01C00F00
01C00F00
01C00F80
03800FC0
03FFFFC0
03FFFFC0
0FFFFFC0
1FFFFFC0
1FFFFFC0
1E0000E0
1E0000E0
3E000070
7C000038
7C000038
E000003C
E000003C
E000001F
E000001F
E000000E
E0000004
ENDCHAR
STARTCHAR $00C5
ENCODING 197
SWIDTH 740 0
DWIDTH 35 0
BBX 32 46 1 0
BITMAP
0007E000
00086000
00086000
00087000
00387000
00387000
00387000
001C6000
001E6000
000FE000
00000000
00000000
00038000
0007E000
000FE000
000FE000
000FE000
00387000
00387000
00387000
00787000
00783800
00781C00
00601C00
00601C00
00601C00
01C00F00
01C00F00
01C00F80
03800FC0
03C00FC0
07C00FC0
0FFFFFC0
1FFFFFC0
1FFFFFE0
1E0000E0
1E0000E0
3C000030
7C000038
7C000038
F000003C
F000003C
E000003F
E000001F
E000001F
E000001F
ENDCHAR
STARTCHAR $00C6
ENCODING 198
SWIDTH 1000 0
DWIDTH 46 0
BBX 40 35 1 0
BITMAP
000003FFFF
000007FFFF
00000FFFFF
00001FF800
00001FF000
00001FE000
00001CE000
000070E000
000070E000
0000F0E000
0003E0E000
0003E0E000
0003E0E000
000780E000
000F00FFFF
000F00FFFF
000F00FFFF
003E00FFFF
003C00FFFF
007C00E000
01FFFFE000
01FFFFE000
01FFFFE000
01FFFFE000
03C000E000
03C000E000
1F8000E000
1E0000E000
1E0000E000
7E0000E000
7C0000F800
780000F800
F00000FFFF
E00000FFFF
C000007FFF
ENDCHAR
STARTCHAR $00C7
ENCODING 199
SWIDTH 814 0
DWIDTH 38 0
BBX 33 45 1 -10
BITMAP
000FFF0000
007FFFE000
007FFFE000
03E001FC00
07E000FE00
0FE0007F00
1F80001F80
1E00000700
1E00000600
7C00000000
7C00000000
7C00000000
FC00000000
F000000000
E000000000
E000000000
E000000000
E000000000
E000000000
E000000000
7C00000000
7C00000000
7C00000000
7C00000000
7E00000000
3E00000000
1E00000780
1F00000F80
1F80001F80
0FE000FF00
03F801F800
03F801F000
007FFFC000
001FFF0000
000FFF0000
0000E00000
0000FC0000
0001FF0000
0003FF0000
00000F0000
00010F0000
00030F0000
00038E0000
0000FC0000
0000F80000
ENDCHAR
STARTCHAR $00C8
ENCODING 200
SWIDTH 518 0
DWIDTH 24 0
BBX 19 45 3 1
BITMAP
1C0000
1E0000
1E0000
1FC000
0FE000
0FF000
01F800
003000
002000
000000
FFFFE0
FFFFE0
FFFFE0
F00000
E00000
E00000
E00000
E00000
E00000
E00000
E00000
E00000
E00000
E00000
F00000
F00000
FFFFE0
FFFFE0
FFFFE0
F00000
E00000
E00000
E00000
E00000
E00000
E00000
E00000
E00000
E00000
E00000
FFFFE0
FFFFE0
FFFFE0
FFFFE0
FFFFC0
ENDCHAR
STARTCHAR $00C9
ENCODING 201
SWIDTH 518 0
DWIDTH 24 0
BBX 19 45 3 1
BITMAP
000400
000C00
001C00
003C00
01FC00
01FC00
03F000
018000
010000
000000
FFFFE0
FFFFE0
FFFFE0
F00000
E00000
E00000
E00000
E00000
E00000
E00000
E00000
E00000
E00000
E00000
F00000
F00000
FFFFE0
FFFFE0
FFFFE0
F00000
E00000
E00000
E00000
E00000
E00000
E00000
E00000
E00000
E00000
E00000
FFFFE0
FFFFE0
FFFFE0
FFFFE0
FFFFC0
ENDCHAR
STARTCHAR $00CA
ENCODING 202
SWIDTH 518 0
DWIDTH 24 0
BBX 19 43 3 2
BITMAP
01E000
03F800
03F800
0FCC00
1E0700
1E0700
7C0380
000000
000000
FFFFE0
FFFFE0
E2A440
E00000
E00000
E00000
E00000
E00000
E00000
E00000
E00000
E00000
E00000
E00000
F00000
FFFFC0
FFFFE0
FFFFE0
F80000
F00000
E00000
E00000
E00000
E00000
E00000
E00000
E00000
E00000
E00000
E00000
FFFFE0
FFFFE0
FFFFC0
FFFF80
ENDCHAR
STARTCHAR $00CB
ENCODING 203
SWIDTH 518 0
DWIDTH 24 0
BBX 19 43 3 2
BITMAP
1FB800
1FB800
1FB800
1FB800
0E1800
0E0800
000000
000000
000000
FFFFE0
FFFFE0
E2A440
E00000
E00000
E00000
E00000
E00000
E00000
E00000
E00000
E00000
E00000
E00000
F00000
FFFFC0
FFFFE0
FFFFE0
F80000
F00000
E00000
E00000
E00000
E00000
E00000
E00000
E00000
E00000
E00000
E00000
FFFFE0
FFFFE0
FFFFC0
FFFF80
ENDCHAR
STARTCHAR $00CC
ENCODING 204
SWIDTH 222 0
DWIDTH 11 0
BBX 10 43 -1 4
BITMAP
FC00
7E00
3E00
1FC0
0FC0
0FC0
0180
0000
0000
0380
0380
0380
0380
0380
0380
0380
0380
0380
0380
0380
0380
0380
0380
0380
0380
0380
0380
0380
0380
0380
0380
0380
0380
0380
0380
0380
0380
0380
0380
0380
0380
0380
0380
ENDCHAR
STARTCHAR $00CD
ENCODING 205
SWIDTH 222 0
DWIDTH 11 0
BBX 10 43 1 4
BITMAP
03C0
0780
0F80
FE00
FE00
FE00
6000
0000
0000
7C00
7C00
7C00
7C00
7C00
7C00
7C00
7C00
7C00
7C00
7C00
7C00
7C00
7C00
7C00
7C00
7C00
7C00
7C00
7C00
7C00
7C00
7C00
7C00
7C00
7C00
7C00
7C00
7C00
7C00
7C00
7C00
3C00
1000
ENDCHAR
STARTCHAR $00CE
ENCODING 206
SWIDTH 222 0
DWIDTH 11 0
BBX 17 43 -3 2
BITMAP
01C000
03E000
03F000
0E3C00
1E1F00
1E0F00
FC1F80
000000
000000
01C000
01C000
01C000
01C000
01C000
01C000
01C000
01C000
01C000
01C000
01C000
01C000
01C000
01C000
01C000
01C000
01C000
01C000
01C000
01C000
01C000
01C000
01C000
01C000
01C000
01C000
01C000
01C000
01C000
01C000
01C000
01C000
01C000
01C000
ENDCHAR
STARTCHAR $00CF
ENCODING 207
SWIDTH 222 0
DWIDTH 11 0
BBX 10 43 0 2
BITMAP
E1C0
E1C0
E1C0
E1C0
E1C0
E1C0
0000
0000
0000
0E00
1E00
1E00
1E00
1E00
1E00
1E00
1E00
1E00
1E00
1E00
1E00
1E00
1E00
1E00
1E00
1E00
1E00
1E00
1E00
1E00
1E00
1E00
1E00
1E00
1E00
1E00
1E00
1E00
1E00
1E00
1E00
1E00
0C00
ENDCHAR
STARTCHAR $00D0
ENCODING 208
SWIDTH 777 0
DWIDTH 36 0
BBX 33 35 1 0
BITMAP
1FFFF00000
1FFFFE0000
1FFFFE0000
1E000FE000
1E000FE000
1E000FE000
1E0000F800
1E00003F00
1E00003F00
1E00001F00
1E00001F00
1E00000F00
1E00000780
1E00000780
FFFF000780
FFFF000780
FFFF800780
FFFF800780
FFFF800780
1E00000780
1E00000780
1E00000F80
1E00001F80
1E00001F00
1E00001F00
1E00001F00
1E00003F00
1E00007800
1E0000F800
1E000FE000
1E000FE000
1E000FE000
1FFFFE0000
1FFFF00000
1FFFF00000
ENDCHAR
STARTCHAR $00D1
ENCODING 209
SWIDTH 740 0
DWIDTH 35 0
BBX 27 43 3 2
BITMAP
00200000
00F80000
01F86000
01E7F000
01C3F000
01C1F000
00008000
00000000
00000000
FC0000E0
FE0000E0
FE0000E0
FE0000E0
FE0000E0
E70000E0
E38000E0
E3C000E0
E1C000E0
E1C000E0
E06000E0
E07800E0
E07800E0
E03800E0
E00C00E0
E00E00E0
E00F00E0
E01F80E0
E007C0E0
E007E0E0
E003E0E0
E000E0E0
E000E0E0
E00070E0
E0007CE0
E0003FE0
E0001FE0
E0000FE0
E0000FE0
E0000FE0
E00003E0
E00001E0
E00001E0
E00000E0
ENDCHAR
STARTCHAR $00D2
ENCODING 210
SWIDTH 851 0
DWIDTH 40 0
BBX 36 43 1 2
BITMAP
000C000000
000FC00000
000FE00000
0003F00000
0000F00000
0000F00000
0000700000
0000000000
0000000000
0007FF0000
007FFFE000
00F445F000
01E001FC00
03F0003F00
0600001F80
0E00001F80
1E000007E0
3E000003E0
7E000003E0
7C000000F0
7C00000070
7800000070
F000000070
E000000070
E000000070
E000000070
E000000070
E000000070
E000000070
7000000070
7C000000F0
7C000000F0
7C000000E0
7E000003E0
3F000007E0
0F800007C0
03C0001F80
01E0007F00
01F000FF00
007FFFE000
001FFF8000
000FFF0000
001FFE0000
ENDCHAR
STARTCHAR $00D3
ENCODING 211
SWIDTH 851 0
DWIDTH 40 0
BBX 36 43 1 2
BITMAP
0000030000
00001F0000
00001F0000
0000FE0000
0001FC0000
0001F80000
0000E00000
0000000000
0000000000
0007FF0000
007FFFE000
00F445F000
01E001FC00
03F0003F00
0600001F80
0E00001F80
1E000007E0
3E000003E0
7E000003E0
7C000000F0
7C00000070
7800000070
F000000070
E000000070
E000000070
E000000070
E000000070
E000000070
E000000070
7000000070
7C000000F0
7C000000F0
7C000000E0
7E000003E0
3F000007E0
0F800007C0
03C0001F80
01E0007F00
01F000FF00
007FFFE000
001FFF8000
000FFF0000
001FFE0000
ENDCHAR
STARTCHAR $00D4
ENCODING 212
SWIDTH 851 0
DWIDTH 40 0
BBX 36 40 1 4
BITMAP
0003FC0000
0007FE0000
00079E0000
000F0F0000
00060FC000
00040FC000
0000000000
0007FF0000
0007FF8000
007FFFE000
01F001FC00
03E0003E00
03C0001F00
0E00000780
1E000003C0
1E000003E0
7E000003E0
7C000001F0
7C000000F0
7C000000F0
F000000070
F000000070
E000000070
E000000070
E000000070
E000000070
E000000070
7C00000070
7C00000070
7C000000F0
7C000000E0
7C000001E0
7E000003E0
1F800007E0
1FE0000FC0
03E0001F00
01E000FC00
00FFFFF000
007FFFE000
000FFF0000
ENDCHAR
STARTCHAR $00D5
ENCODING 213
SWIDTH 851 0
DWIDTH 40 0
BBX 36 40 1 4
BITMAP
0007E30000
000FFF0000
000FFF0000
00000E0000
00000C0000
0000080000
0000000000
0007FF0000
0007FF8000
007FFFE000
01F001FC00
03E0003E00
03C0001F00
0E00000780
1E000003C0
1E000003E0
7E000003E0
7C000001F0
7C000000F0
7C000000F0
F000000070
F000000070
E000000070
E000000070
E000000070
E000000070
E000000070
7C00000070
7C00000070
7C000000F0
7C000000E0
7C000001E0
7E000003E0
1F800007E0
1FE0000FC0
03E0001F00
01E000FC00
00FFFFF000
007FFFE000
000FFF0000
ENDCHAR
STARTCHAR $00D6
ENCODING 214
SWIDTH 851 0
DWIDTH 40 0
BBX 36 40 1 4
BITMAP
00078F0000
00078F0000
00078F0000
00078F0000
00030E0000
00010E0000
0000000000
0007FF0000
0007FF8000
007FFFE000
01F001FC00
03E0003E00
03C0001F00
0E00000780
1E000003C0
1E000003E0
7E000003E0
7C000001F0
7C000000F0
7C000000F0
F000000070
F000000070
E000000070
E000000070
E000000070
E000000070
E000000070
7C00000070
7C00000070
7C000000F0
7C000000E0
7C000001E0
7E000003E0
1F800007E0
1FE0000FC0
03E0001F00
01E000FC00
00FFFFF000
007FFFE000
000FFF0000
ENDCHAR
STARTCHAR $00D7
ENCODING 215
SWIDTH 592 0
DWIDTH 28 0
BBX 20 20 3 5
BITMAP
600000
F80030
FC0070
7C00E0
7E01E0
3E03E0
0F8780
03CC00
03DC00
01F800
007800
00FC00
01FC00
039F80
060780
0E0780
1E07E0
3C00F0
7C00F0
600070
ENDCHAR
STARTCHAR $00D8
ENCODING 216
SWIDTH 851 0
DWIDTH 40 0
BBX 36 40 1 0
BITMAP
0000000080
00000000C0
00000000C0
000FFE0380
000FFF0700
001FFF8700
007FFFFF00
01F000FF00
01E0007F00
03C0003F80
0E0000E7C0
0E0000E3E0
7E0001C3E0
7C000FC0E0
7C000F80F0
7C000F00F0
70000E0070
E0001C0070
E000380070
E000700070
E000F00070
E001F00070
E003E00070
F007E00070
7807C00070
7C07800070
7C1C0000F0
7E380003E0
3E380003E0
1E780007E0
0FF8001F80
07F8001F80
03E0003F00
01E001FC00
07FFFFFC00
0FFFFFE000
1F8FFF0000
3E00000000
3E00000000
1C00000000
ENDCHAR
STARTCHAR $00D9
ENCODING 217
SWIDTH 666 0
DWIDTH 31 0
BBX 24 43 3 4
BITMAP
03C000
01E000
01F000
007C00
007C00
007C00
001800
000000
000000
E0000F
E0000F
E0000F
E0000F
E0000F
E0000F
E0000F
E0000F
E0000F
E0000F
E0000F
E0000F
E0000F
E0000F
E0000F
E0000F
E0000F
E0000F
E0000F
E0000F
E0000F
E0000F
E0000F
E0000E
E0001C
F8001C
FC001C
7C001C
7E0030
3E0070
1FFFE0
01FF80
01FF80
01FF00
ENDCHAR
STARTCHAR $00DA
ENCODING 218
SWIDTH 666 0
DWIDTH 31 0
BBX 24 43 3 4
BITMAP
0007E0
003FC0
003F80
007C00
007800
007800
007000
000000
000000
E0000F
E0000F
E0000F
E0000F
E0000F
E0000F
E0000F
E0000F
E0000F
E0000F
E0000F
E0000F
E0000F
E0000F
E0000F
E0000F
E0000F
E0000F
E0000F
E0000F
E0000F
E0000F
E0000F
E0000E
E0001C
F8001C
FC001C
7C001C
7E0030
3E0070
1FFFE0
01FF80
01FF80
01FF00
ENDCHAR
STARTCHAR $00DB
ENCODING 219
SWIDTH 666 0
DWIDTH 31 0
BBX 24 43 3 2
BITMAP
003800
007C00
007C00
03E700
07C380
0FC180
0F80E0
000000
000000
E0000F
E0000F
E0000F
E0000F
E0000F
E0000F
E0000F
E0000F
E0000F
E0000F
E0000F
E0000F
E0000F
E0000F
E0000F
E0000F
E0000F
E0000F
E0000F
E0000F
E0000F
E0000F
E0000F
E0000E
E0001C
F8001C
FC001C
7C001C
7E0030
3E0070
1FFFE0
01FF80
01FF80
01FF00
ENDCHAR
STARTCHAR $00DC
ENCODING 220
SWIDTH 666 0
DWIDTH 31 0
BBX 24 43 3 2
BITMAP
01C780
01C780
01C780
01C780
01C300
01C100
000000
000000
000000
E0000F
E0000F
E0000F
E0000F
E0000F
E0000F
E0000F
E0000F
E0000F
E0000F
E0000F
E0000F
E0000F
E0000F
E0000F
E0000F
E0000F
E0000F
E0000F
E0000F
E0000F
E0000F
E0000F
E0000E
E0001C
F8001C
FC001C
7C001C
7E0030
3E0070
1FFFE0
01FF80
01FF80
01FF00
ENDCHAR
STARTCHAR $00DD
ENCODING 221
SWIDTH 592 0
DWIDTH 28 0
BBX 27 43 0 4
BITMAP
0003F000
0007E000
0007E000
000F0000
003E0000
003C0000
00380000
00000000
00000000
FC0003E0
7C0003C0
7E0003C0
7E0003C0
1E000F00
1E001F00
1E001F00
0F801E00
03801C00
03803C00
03C07C00
01C07000
01C07000
01E0E000
01E3E000
00FBE000
007BE000
007F8000
003F8000
003F8000
000F0000
000C0000
000C0000
000C0000
000C0000
001C0000
000C0000
000C0000
000C0000
000C0000
000C0000
000C0000
000C0000
001C0000
ENDCHAR
STARTCHAR $00DE
ENCODING 222
SWIDTH 592 0
DWIDTH 28 0
BBX 22 35 3 0
BITMAP
E00000
E00000
E00000
E00000
E00000
E00000
F00000
FFFF80
FFFFC0
FFFFF0
F000F0
E00078
E0001C
E0001C
E0001C
E0001C
E0001C
E0001C
E0001C
E0001C
E0001C
E00038
E000F0
F003F0
FFFFE0
FFFFE0
FFFC00
F80000
F00000
E00000
E00000
E00000
E00000
E00000
C00000
ENDCHAR
STARTCHAR $00DF
ENCODING 223
SWIDTH 555 0
DWIDTH 26 0
BBX 20 35 3 0
BITMAP
03F800
3FFC00
7FFC00
7C0F00
780780
700780
E00380
E003E0
E003E0
E003E0
E003E0
E003C0
E00380
E00780
E1FF00
E1FF00
E1FF00
E1FF80
E1FF80
E007E0
E00070
E00070
E00070
F00070
F80070
FC0070
FC0070
FE0070
FE0070
FF80E0
FFC380
FFC380
E3FF80
E1FC00
C0FC00
ENDCHAR
STARTCHAR $00E0
ENCODING 224
SWIDTH 666 0
DWIDTH 31 0
BBX 27 35 1 1
BITMAP
01C00000
00F80000
00780000
003F0000
001F0000
000F0000
00000000
00000000
00000000
007FE0E0
03FFFCE0
07A47CE0
1F801FE0
7E000FE0
7C0007E0
7C0003E0
7C0003E0
FC0003E0
FC0003E0
E00000E0
E00000E0
E00000E0
E00000E0
F00001E0
F80003E0
FC0003E0
7C0003E0
7E000FE0
3E000FE0
1F801FE0
0FC07CE0
07C078E0
03FFF0E0
007FE0E0
007FC060
ENDCHAR
STARTCHAR $00E1
ENCODING 225
SWIDTH 666 0
DWIDTH 31 0
BBX 27 35 1 1
BITMAP
0003F000
0007E000
0007E000
000F0000
003E0000
003C0000
00380000
00000000
00000000
007FE0E0
03FFFCE0
07A47CE0
1F801FE0
7E000FE0
7C0007E0
7C0003E0
7C0003E0
FC0003E0
FC0003E0
E00000E0
E00000E0
E00000E0
E00000E0
F00001E0
F80003E0
FC0003E0
7C0003E0
7E000FE0
3E000FE0
1F801FE0
0FC07CE0
07C078E0
03FFF0E0
007FE0E0
007FC060
ENDCHAR
STARTCHAR $00E2
ENCODING 226
SWIDTH 666 0
DWIDTH 31 0
BBX 27 35 1 0
BITMAP
000C0000
003F8000
003F8000
00638000
01E0C000
01E0E000
03C07000
00000000
00000000
007FE0E0
03FFFCE0
07A47CE0
1F801FE0
7E000FE0
7C0007E0
7C0003E0
7C0003E0
FC0003E0
FC0003E0
E00000E0
E00000E0
E00000E0
E00000E0
F00001E0
F80003E0
FC0003E0
7C0003E0
7E000FE0
3E000FE0
1F801FE0
0FC07CE0
07C078E0
03FFF0E0
007FE0E0
007FC060
ENDCHAR
STARTCHAR $00E3
ENCODING 227
SWIDTH 666 0
DWIDTH 31 0
BBX 27 35 1 0
BITMAP
00200000
00F80000
01F86000
01C7F000
0003F000
0001F000
00008000
00000000
00000000
007FE0E0
03FFFCE0
07A47CE0
1F801FE0
7E000FE0
7C0007E0
7C0003E0
7C0003E0
FC0003E0
FC0003E0
E00000E0
E00000E0
E00000E0
E00000E0
F00001E0
F80003E0
FC0003E0
7C0003E0
7E000FE0
3E000FE0
1F801FE0
0FC07CE0
07C078E0
03FFF0E0
007FE0E0
007FC060
ENDCHAR
STARTCHAR $00E4
ENCODING 228
SWIDTH 666 0
DWIDTH 31 0
BBX 27 33 1 1
BITMAP
0063E000
0063E000
0063E000
0063E000
0060E000
0060E000
00000000
007FE060
00FFE0E0
03FFFCE0
0F801FE0
0F000FE0
7E000FE0
7C0003E0
FC0003E0
FC0003E0
F00001E0
E00000E0
E00000E0
E00000E0
E00000E0
E00000E0
F00001E0
FC0003E0
7C0003E0
7C0007E0
7E000FE0
1F001CE0
1F8018E0
0FFFF0E0
03FFF0E0
03FFF0E0
007FE0C0
ENDCHAR
STARTCHAR $00E5
ENCODING 229
SWIDTH 666 0
DWIDTH 31 0
BBX 27 37 1 2
BITMAP
003F8000
00338000
00238000
00038000
0043C000
0043E000
0043E000
00638000
00738000
003C0000
00000000
00244020
007FE0E0
03FFFCE0
07C07FE0
0FC07FE0
1F801FE0
3E000FE0
7E000FE0
7C0003E0
FC0003E0
F80003E0
F00001E0
E00000E0
E00000E0
E00000E0
E00000E0
FC0003E0
FC0003E0
7C0003E0
7C0003E0
7C0007E0
7E000FE0
1F801CE0
1FFFF8E0
03FFF0E0
007FE0E0
ENDCHAR
STARTCHAR $00E6
ENCODING 230
SWIDTH 1148 0
DWIDTH 53 0
BBX 49 26 1 0
BITMAP
007FE0E07FE000
03FFF8E7FFF000
03FFFCE7FFF800
0FC07FFF80FC00
1E003FFF007C00
1E001FFE003C00
7C000FF8000600
7C0007F8000380
7C0003F0000380
FC0000E0000380
F00000FFFFFF80
E00000FFFFFF80
E00000FFFFFF80
E00000E0000000
F00001E0000000
F00001E0000000
FC0003E0000000
7C0003F8000780
7C0007F8000780
7E000FFF000600
1F801FFF80FC00
1F803FFF80FC00
0FFFF1E7FFF800
03FFF0E3FFE000
00FFE0E07F8000
007FE0607F0000
ENDCHAR
STARTCHAR $00E7
ENCODING 231
SWIDTH 629 0
DWIDTH 29 0
BBX 26 36 1 -10
BITMAP
007FE000
03FFF800
03FFFC00
0FC07E00
1E003F00
1E001F80
7C000FC0
7C0007C0
7C0003C0
FC000000
F0000000
E0000000
E0000000
E0000000
F0000000
F0000000
FC000000
7C000000
7C000000
7E000FC0
1F801F80
1F803F00
0FFFFE00
03FFFC00
00FFF800
007FF000
001C0000
000F8000
000F8000
000FE000
000FE000
000FE000
00007000
003C6000
001FE000
000FE000
ENDCHAR
STARTCHAR $00E8
ENCODING 232
SWIDTH 666 0
DWIDTH 31 0
BBX 26 35 1 1
BITMAP
01C00000
00F80000
00780000
003F0000
001F0000
000F0000
00000000
00000000
00000000
007FE000
03FFFC00
07A47C00
1F801E00
7E000F00
7C000700
7C000380
700003C0
F00003C0
F80007C0
FFFFFFC0
FFFFFFC0
FFFFFF80
F0000000
E0000000
F0000000
F0000000
7C0003C0
7E000F80
3E000F00
1F801E00
0FC07C00
07C07800
03FFF000
007F8000
007F8000
ENDCHAR
STARTCHAR $00E9
ENCODING 233
SWIDTH 666 0
DWIDTH 31 0
BBX 26 35 1 1
BITMAP
0003F000
0007E000
0007E000
000F0000
003E0000
003C0000
00380000
00000000
00000000
007FE000
03FFFC00
07A47C00
1F801E00
7E000F00
7C000700
7C000380
700003C0
F00003C0
F80007C0
FFFFFFC0
FFFFFFC0
FFFFFF80
F0000000
E0000000
F0000000
F0000000
7C0003C0
7E000F80
3E000F00
1F801E00
0FC07C00
07C07800
03FFF000
007F8000
007F8000
ENDCHAR
STARTCHAR $00EA
ENCODING 234
SWIDTH 666 0
DWIDTH 31 0
BBX 26 35 1 0
BITMAP
000C0000
003F8000
003F8000
01E38000
01E0C000
01E0E000
03C07000
00000000
00000000
007FE000
03FFFC00
07A47C00
1F801E00
7E000F00
7C000700
7C000380
700003C0
F00003C0
F80007C0
FFFFFFC0
FFFFFFC0
FFFFFF80
F0000000
E0000000
F0000000
F0000000
7C0003C0
7E000F80
3E000F00
1F801E00
0FC07C00
07C07800
03FFF000
007F8000
007F8000
ENDCHAR
STARTCHAR $00EB
ENCODING 235
SWIDTH 666 0
DWIDTH 31 0
BBX 26 33 1 1
BITMAP
0063E000
0063E000
0063E000
0063E000
0060E000
0060E000
00000000
007FE000
00FFE000
03FFFC00
0F801E00
0F000E00
7E000F00
7C0003C0
F80003C0
F00003C0
F00003C0
FFFFFFC0
FFFFFFC0
FFFFFFC0
F0000000
F0000000
E0000000
F0000000
78000380
7C0007C0
7E000F00
1F001C00
1F801800
0FFFF000
03FFF000
03FFF000
007F8000
ENDCHAR
STARTCHAR $00EC
ENCODING 236
SWIDTH 185 0
DWIDTH 9 0
BBX 9 36 -1 1
BITMAP
8000
F800
FC00
7C00
7E00
3E00
0380
0180
0100
0000
0380
0380
0380
0380
0380
0380
0380
0380
0380
0380
0380
0380
0380
0380
0380
0380
0380
0380
0380
0380
0380
0380
0380
0380
0380
0380
ENDCHAR
STARTCHAR $00ED
ENCODING 237
SWIDTH 185 0
DWIDTH 9 0
BBX 10 36 1 1
BITMAP
0180
03C0
03C0
1E00
3E00
7E00
FC00
0000
0000
0000
1000
3800
7C00
7C00
7C00
7C00
7C00
7C00
7C00
7C00
7C00
7C00
7C00
7C00
7C00
7C00
7C00
7C00
7C00
7C00
7C00
7C00
7C00
7C00
3800
1000
ENDCHAR
STARTCHAR $00EE
ENCODING 238
SWIDTH 185 0
DWIDTH 9 0
BBX 13 35 -3 0
BITMAP
03C0
07E0
0FF0
1C38
3818
7008
8000
0000
0000
01C0
01C0
01C0
01C0
01C0
01C0
01C0
01C0
01C0
01C0
01C0
01C0
01C0
01C0
01C0
01C0
01C0
01C0
01C0
01C0
01C0
01C0
01C0
01C0
01C0
00C0
ENDCHAR
STARTCHAR $00EF
ENCODING 239
SWIDTH 185 0
DWIDTH 9 0
BBX 10 35 0 0
BITMAP
E1C0
E1C0
E1C0
E1C0
E1C0
E1C0
0000
0000
0000
0E00
1E00
1E00
1E00
1E00
1E00
1E00
1E00
1E00
1E00
1E00
1E00
1E00
1E00
1E00
1E00
1E00
1E00
1E00
1E00
1E00
1E00
1E00
1E00
1E00
1E00
ENDCHAR
STARTCHAR $00F0
ENCODING 240
SWIDTH 666 0
DWIDTH 31 0
BBX 27 35 1 0
BITMAP
0063E000
003FE000
003FE000
007F8000
007F8000
007F8000
0073E000
0003F000
0003F000
007FFC00
03FFFC00
07A47C00
1F801E00
7E000FC0
7C0007C0
7C0003C0
700003C0
E00003C0
E00003C0
E00003E0
E00000E0
E00000E0
E00001C0
F00003C0
F80003C0
FC0003C0
7C0003C0
7E000F80
3E000F00
1F801F00
0FC07E00
07C07E00
03FFFC00
007FE000
007FC000
ENDCHAR
STARTCHAR $00F1
ENCODING 241
SWIDTH 592 0
DWIDTH 28 0
BBX 22 35 3 0
BITMAP
018000
07E080
0FF080
0E3F80
021F00
020F00
001C00
000000
000000
E1FF00
FFFFE0
FFA7E0
FE03F0
FC0070
F80070
F00070
E00070
E00018
E0001C
E0001C
E0001C
E0001C
E0001C
E0001C
E0001C
E0001C
E0001C
E0001C
E0001C
E0001C
E0001C
E0001C
E0001C
E0001C
C00018
ENDCHAR
STARTCHAR $00F2
ENCODING 242
SWIDTH 666 0
DWIDTH 31 0
BBX 27 35 1 1
BITMAP
01C00000
00F80000
00780000
003F0000
001F0000
000F0000
00000000
00000000
00000000
007FE000
03FFFC00
07A47C00
1F801E00
7E000FC0
7C0007C0
7C0003C0
7C0003C0
FC0003C0
FC0003C0
E00003E0
E00000E0
E00000E0
E00001C0
F00003C0
F80003C0
FC0003C0
7C0003C0
7E000F80
3E000F00
1F801F00
0FC07E00
07C07E00
03FFFC00
007FE000
007FC000
ENDCHAR
STARTCHAR $00F3
ENCODING 243
SWIDTH 666 0
DWIDTH 31 0
BBX 27 35 1 1
BITMAP
0003F000
0007E000
0007E000
000F0000
003E0000
003C0000
00380000
00000000
00000000
007FE000
03FFFC00
07A47C00
1F801E00
7E000FC0
7C0007C0
7C0003C0
7C0003C0
FC0003C0
FC0003C0
E00003E0
E00000E0
E00000E0
E00001C0
F00003C0
F80003C0
FC0003C0
7C0003C0
7E000F80
3E000F00
1F801F00
0FC07E00
07C07E00
03FFFC00
007FE000
007FC000
ENDCHAR
STARTCHAR $00F4
ENCODING 244
SWIDTH 666 0
DWIDTH 31 0
BBX 27 35 1 0
BITMAP
000C0000
003F8000
003F8000
00638000
01E0C000
01E0E000
03C07000
00000000
00000000
007FE000
03FFFC00
07A47C00
1F801E00
7E000FC0
7C0007C0
7C0003C0
7C0003C0
FC0003C0
FC0003C0
E00003E0
E00000E0
E00000E0
E00001C0
F00003C0
F80003C0
FC0003C0
7C0003C0
7E000F80
3E000F00
1F801F00
0FC07E00
07C07E00
03FFFC00
007FE000
007FC000
ENDCHAR
STARTCHAR $00F5
ENCODING 245
SWIDTH 666 0
DWIDTH 31 0
BBX 27 35 1 0
BITMAP
00200000
00F80000
01F86000
01CFF000
0007F000
0007F000
00008000
00000000
00000000
007FE000
03FFFC00
07A47C00
1F801E00
7E000FC0
7C0007C0
7C0003C0
7C0003C0
FC0003C0
FC0003C0
E00003E0
E00000E0
E00000E0
E00001C0
F00003C0
F80003C0
FC0003C0
7C0003C0
7E000F80
3E000F00
1F801F00
0FC07E00
07C07E00
03FFFC00
007FE000
007FC000
ENDCHAR
STARTCHAR $00F6
ENCODING 246
SWIDTH 666 0
DWIDTH 31 0
BBX 27 33 1 1
BITMAP
0063E000
0063E000
0063E000
0063E000
0060E000
0060E000
00000000
007FE000
00FFE000
03FFFC00
0F801E00
0F000E00
7E000F00
7C0003C0
FC0003C0
FC0003C0
F00003C0
E00003E0
E00003E0
E00000E0
E00003C0
E00003C0
F00003C0
FC0003C0
7C0003C0
7C0007C0
7E000F00
1F001F00
1F801F00
0FFFFE00
03FFFC00
03FFF800
007FE000
ENDCHAR
STARTCHAR $00F7
ENCODING 247
SWIDTH 703 0
DWIDTH 33 0
BBX 26 24 3 1
BITMAP
000C0000
000C0000
000C0000
000C0000
00040000
00040000
00000000
00000000
00000000
00000000
FFFFFFC0
FFFFFFC0
FFFFFFC0
00000000
00000000
00000000
00000000
00000000
00000000
000C0000
000C0000
001C0000
000C0000
00040000
ENDCHAR
STARTCHAR $00F8
ENCODING 248
SWIDTH 666 0
DWIDTH 31 0
BBX 26 29 1 0
BITMAP
00000300
007FC780
007FEFC0
03FFFF00
07FFFF00
0FFFFF00
1F801F00
3E007F00
7E007F80
7C00E3C0
FC03E3C0
E007C3C0
E00F83C0
E01F03C0
E00E03C0
E01C03C0
E03803C0
F07003C0
F8E003C0
7DE003C0
7FC00F80
3FC00F00
1F801F00
1F801E00
1FFFFC00
1FFFF800
7C7FE000
1C000000
1C000000
ENDCHAR
STARTCHAR $00F9
ENCODING 249
SWIDTH 592 0
DWIDTH 28 0
BBX 22 36 3 1
BITMAP
020000
070000
0F8000
03E000
01F800
01F800
007800
000000
000000
000000
E0001C
E0001C
E0001C
E0001C
E0001C
E0001C
E0001C
E0001C
E0001C
E0001C
E0001C
E0001C
E0001C
E0001C
E0001C
E0001C
E0001C
E0007C
E0007C
F0007C
FC00FC
FC00FC
7E03FC
1FFF9C
1FFF9C
03F81C
ENDCHAR
STARTCHAR $00FA
ENCODING 250
SWIDTH 592 0
DWIDTH 28 0
BBX 22 36 3 1
BITMAP
000380
000F80
001F80
003F00
01FE00
01FC00
01F000
000000
000000
000000
E0001C
E0001C
E0001C
E0001C
E0001C
E0001C
E0001C
E0001C
E0001C
E0001C
E0001C
E0001C
E0001C
E0001C
E0001C
E0001C
E0001C
E0007C
E0007C
F0007C
FC00FC
FC00FC
7E03FC
1FFF9C
1FFF9C
03F81C
ENDCHAR
STARTCHAR $00FB
ENCODING 251
SWIDTH 592 0
DWIDTH 28 0
BBX 22 35 3 0
BITMAP
007800
00FC00
01FC00
0FC700
0E0300
0E0100
000000
000000
000000
E0001C
E0001C
E0001C
E0001C
E0001C
E0001C
E0001C
E0001C
E0001C
E0001C
E0001C
E0001C
E0001C
E0001C
E0001C
E0001C
E0001C
E0007C
FC007C
FC007C
7E00FC
1E03FC
1E03FC
0FFF9C
03F81C
03F018
ENDCHAR
STARTCHAR $00FC
ENCODING 252
SWIDTH 592 0
DWIDTH 28 0
BBX 22 35 3 0
BITMAP
038C00
038C00
038C00
038C00
020400
020400
000000
000000
000000
E0001C
E0001C
E0001C
E0001C
E0001C
E0001C
E0001C
E0001C
E0001C
E0001C
E0001C
E0001C
E0001C
E0001C
E0001C
E0001C
E0001C
E0007C
FC007C
FC007C
7E00FC
1E03FC
1E03FC
0FFF9C
03F81C
03F018
ENDCHAR
STARTCHAR $00FD
ENCODING 253
SWIDTH 518 0
DWIDTH 24 0
BBX 24 45 0 -9
BITMAP
000060
0007E0
0007E0
000F80
003F00
003F00
007800
003000
002000
000000
F0000E
78000E
7C001F
7C001E
1C001C
1C001C
1E001C
1E0070
1E0070
1F8070
0380E0
0381E0
0383E0
0383E0
01C7E0
01C7E0
01C780
01E780
01F780
007F00
007C00
007C00
007C00
003800
003800
003800
007800
007000
006000
006000
01E000
01E000
01C000
01C000
00C000
ENDCHAR
STARTCHAR $00FE
ENCODING 254
SWIDTH 666 0
DWIDTH 31 0
BBX 26 43 3 -8
BITMAP
E0000000
E0000000
E0000000
E0000000
E0000000
E0000000
E0000000
E0000000
E0000000
E07F8000
E3FFF000
E7A47800
FF807C00
FC000E00
F8000F00
F0000F80
E0000FC0
E00007C0
E00003C0
E00003C0
E00003C0
E00003C0
E00003C0
E00003C0
E00003C0
E00007C0
E0000FC0
FC000F80
FC000F00
FF807E00
FFC0FC00
FFC0F800
E3FFF000
E07F8000
E07F8000
E0000000
E0000000
E0000000
E0000000
E0000000
E0000000
E0000000
E0000000
ENDCHAR
STARTCHAR $00FF
ENCODING 255
SWIDTH 518 0
DWIDTH 24 0
BBX 24 43 0 -8
BITMAP
01C780
01C780
01C780
01C780
01C300
01C100
000000
000000
000000
FC000F
7C001F
7C001E
7C001E
1C001C
1E001C
1E0018
1E0070
0F0070
078070
0383E0
0383E0
0383E0
01C3E0
01C7E0
01C7C0
01C780
01F780
00FF00
007F00
007C00
003C00
003C00
003800
003800
007800
007800
006000
006000
006000
01C000
01C000
01C000
01C000
ENDCHAR
STARTCHAR $0100
ENCODING 256
SWIDTH 740 0
DWIDTH 35 0
BBX 32 40 1 4
BITMAP
01FFFF00
01FFFF00
01FFFF00
00000000
00000000
00000000
00000000
00078000
0007C000
000FE000
001FE000
001E6000
003C7000
00387000
00387000
00387000
00787000
00701800
00601C00
00601C00
01C00F00
01C00F00
01C00F00
01C00F00
03800F80
03800FC0
03FFFFC0
07FFFFC0
0FFFFFC0
1E0001E0
1E0000E0
1E0000E0
1C0000E0
7C000038
7800003C
7000003C
E000003C
E000001E
E000001F
E000001F
ENDCHAR
STARTCHAR $0101
ENCODING 257
SWIDTH 666 0
DWIDTH 31 0
BBX 27 33 1 1
BITMAP
03FFF000
03FFF000
03FFF000
00000000
00000000
00000000
00000000
007FE060
00FFE0E0
03FFFCE0
0F801FE0
0F000FE0
7E000FE0
7C0003E0
FC0003E0
FC0003E0
F00001E0
E00000E0
E00000E0
E00000E0
E00000E0
E00000E0
F00001E0
FC0003E0
7C0003E0
7C0007E0
7E000FE0
1F001CE0
1F8018E0
0FFFF0E0
03FFF0E0
03FFF0E0
007FE0C0
ENDCHAR
STARTCHAR $0102
ENCODING 258
SWIDTH 740 0
DWIDTH 35 0
BBX 32 43 1 2
BITMAP
00601C00
00601C00
00701C00
003FFC00
001FF000
000FF000
00038000
00000000
00000000
00078000
000FE000
000FE000
000FE000
001C7000
00387000
00387000
00387000
00787000
00787000
00601C00
00601C00
00F01C00
01E00E00
01C00F00
01C00F00
01C00F80
03800FC0
03FFFFC0
03FFFFC0
0FFFFFC0
1FFFFFC0
1FFFFFC0
1E0000E0
1E0000E0
3E000070
7C000038
7C000038
E000003C
E000003C
E000001F
E000001F
E000000E
E0000004
ENDCHAR
STARTCHAR $0103
ENCODING 259
SWIDTH 666 0
DWIDTH 31 0
BBX 27 35 1 0
BITMAP
01C07000
01C07000
01C07000
007FE000
007FE000
007FE000
001C0000
00000000
00000000
007FE0E0
03FFFCE0
07A47CE0
1F801FE0
7E000FE0
7C0007E0
7C0003E0
7C0003E0
FC0003E0
FC0003E0
E00000E0
E00000E0
E00000E0
E00000E0
F00001E0
F80003E0
FC0003E0
7C0003E0
7E000FE0
3E000FE0
1F801FE0
0FC07CE0
07C078E0
03FFF0E0
007FE0E0
007FC060
ENDCHAR
STARTCHAR $0104
ENCODING 260
SWIDTH 740 0
DWIDTH 35 0
BBX 33 46 1 -12
BITMAP
0007800000
000FC00000
000FE00000
000FE00000
000FE00000
001FE00000
0038700000
0038700000
0038700000
0078700000
00701C0000
00601C0000
00601C0000
01F00E0000
01C00F0000
01C00F0000
01C00F0000
03800FC000
03800FC000
03FFFFC000
0FFFFFC000
0FFFFFC000
1E0001E000
1E0000E000
1E0000E000
1E00006000
7C00003800
7C00003800
7C00003800
F000003C00
E000003F00
E000003F00
E000001F00
E000001F00
C000001E00
0000001C00
0000003800
0000003800
0000003800
000000E000
0000003800
0000003800
0000003C00
0000003F80
0000003F80
0000001F80
ENDCHAR
STARTCHAR $0105
ENCODING 261
SWIDTH 666 0
DWIDTH 31 0
BBX 27 36 1 -10
BITMAP
007FE0E0
03FFF8E0
03FFFCE0
0FC07FE0
1E003FE0
1E001FE0
7C000FE0
7C0007E0
7C0003E0
FC0003E0
F00001E0
E00000E0
E00000E0
E00000E0
F00001E0
F00001E0
FC0003E0
7C0003E0
7C0007E0
7E000FE0
1F801CE0
1F8038E0
0FFFF0E0
03FFF0E0
00FFE0E0
007FE0E0
000003C0
00000F80
00000F00
00000E00
00000E00
00000E00
00000F00
000003E0
000003E0
000001E0
ENDCHAR
STARTCHAR $0106
ENCODING 262
SWIDTH 814 0
DWIDTH 38 0
BBX 34 43 1 2
BITMAP
00000F0000
00001F0000
00001F0000
0000FE0000
0001FC0000
0001F80000
0000E00000
0000000000
0000000000
000FFF0000
007FFFE000
02F445F000
03E001FC00
0F80003F00
1E00001F80
1E00001F80
1E00000780
3C00000000
7C00000000
7C00000000
FC00000000
F800000000
F000000000
E000000000
E000000000
E000000000
E000000000
E000000000
E000000000
7000000000
7C00000000
7C00000000
7C00000000
7E000003C0
3F000007C0
0F80000700
03C0001C00
01E0007800
01F000F800
007FFFE000
001FFF8000
000FFF0000
001FFE0000
ENDCHAR
STARTCHAR $0107
ENCODING 263
SWIDTH 629 0
DWIDTH 29 0
BBX 26 35 1 1
BITMAP
0003F000
0007E000
0007E000
000F8000
000F0000
000F0000
00180000
00000000
00000000
007FE000
03FFFC00
07A47C00
1F801E00
7E000FC0
7C0007C0
7C0003C0
7C0001C0
FC000000
FC000000
E0000000
E0000000
E0000000
E0000000
F0000000
F8000000
FC000000
7C0003C0
7E000FC0
3E000FC0
1F801F00
0FC07E00
07C07E00
03FFFC00
007FE000
007FC000
ENDCHAR
STARTCHAR $0108
ENCODING 264
SWIDTH 814 0
DWIDTH 38 0
BBX 33 40 1 4
BITMAP
0003F00000
000FFE0000
000F9E0000
000F0F0000
000E0FC000
000C0FC000
0000000000
000FFF0000
001FFF8000
007FFFE000
03F001FC00
07A0003E00
1F80001F00
1E00000780
1C00000000
1C00000000
7C00000000
7C00000000
7C00000000
FC00000000
F000000000
F000000000
E000000000
E000000000
E000000000
E000000000
E000000000
7C00000000
7C00000000
7C00000000
7C00000000
7C00000000
7E00000380
1F80000700
1FE0000E00
03E0001C00
01E000F800
00FFFFF000
007FFFE000
000FFF0000
ENDCHAR
STARTCHAR $0109
ENCODING 265
SWIDTH 629 0
DWIDTH 29 0
BBX 26 35 1 0
BITMAP
000C0000
003F8000
003F8000
00638000
01E0C000
01E0E000
03C07C00
00000000
00000000
007FE000
03FFFC00
07A47C00
1F801E00
7E000FC0
7C0007C0
7C0003C0
7C0001C0
FC000000
FC000000
E0000000
E0000000
E0000000
E0000000
F0000000
F8000000
FC000000
7C0003C0
7E000FC0
3E000FC0
1F801F00
0FC07E00
07C07E00
03FFFC00
007FE000
007FC000
ENDCHAR
STARTCHAR $010A
ENCODING 266
SWIDTH 814 0
DWIDTH 38 0
BBX 33 40 1 4
BITMAP
0000700000
0000700000
0000700000
0000700000
0000700000
0000700000
0000000000
000FFF0000
001FFF8000
007FFFE000
03F001FC00
07A0003E00
1F80001F00
1E00000780
1C00000000
1C00000000
7C00000000
7C00000000
7C00000000
FC00000000
F000000000
F000000000
E000000000
E000000000
E000000000
E000000000
E000000000
7C00000000
7C00000000
7C00000000
7C00000000
7C00000000
7E00000380
1F80000700
1FE0000E00
03E0001C00
01E000F800
00FFFFF000
007FFFE000
000FFF0000
ENDCHAR
STARTCHAR $010B
ENCODING 267
SWIDTH 629 0
DWIDTH 29 0
BBX 26 33 1 1
BITMAP
000C0000
000C0000
000C0000
000C0000
00040000
00040000
00000000
007FE000
00FFE000
03FFFC00
0F801E00
0F000E00
7E000F00
7C0003C0
FC000000
FC000000
F0000000
E0000000
E0000000
E0000000
E0000000
E0000000
F0000000
FC000000
7C000380
7C0007C0
7E000FC0
1F001F80
1F801F00
0FFFFE00
03FFFC00
03FFF800
007FE000
ENDCHAR
STARTCHAR $010C
ENCODING 268
SWIDTH 814 0
DWIDTH 38 0
BBX 33 40 1 4
BITMAP
003C0FC000
00079E0000
00079E0000
0003FC0000
0000F00000
0000F00000
0000000000
000FFF0000
001FFF8000
007FFFE000
03F001FC00
07A0003E00
1F80001F00
1E00000780
1C00000000
1C00000000
7C00000000
7C00000000
7C00000000
FC00000000
F000000000
F000000000
E000000000
E000000000
E000000000
E000000000
E000000000
7C00000000
7C00000000
7C00000000
7C00000000
7C00000000
7E00000380
1F80000700
1FE0000E00
03E0001C00
01E000F800
00FFFFF000
007FFFE000
000FFF0000
ENDCHAR
STARTCHAR $010D
ENCODING 269
SWIDTH 629 0
DWIDTH 29 0
BBX 26 35 1 0
BITMAP
03C07C00
00E0E000
0070E000
003F8000
001F0000
000F0000
001C0000
00000000
00000000
007FE000
03FFFC00
07A47C00
1F801E00
7E000FC0
7C0007C0
7C0003C0
7C0001C0
FC000000
FC000000
E0000000
E0000000
E0000000
E0000000
F0000000
F8000000
FC000000
7C0003C0
7E000FC0
3E000FC0
1F801F00
0FC07E00
07C07E00
03FFFC00
007FE000
007FC000
ENDCHAR
STARTCHAR $010E
ENCODING 270
SWIDTH 740 0
DWIDTH 35 0
BBX 29 43 3 2
BITMAP
1E07E000
070F0000
039F0000
03FC0000
01F80000
01F80000
00700000
00000000
00000000
FFFF8000
FFFFF000
E2A47C00
E0007E00
E0000FC0
E00007C0
E00003C0
E00001C0
E00000E0
E00000E0
E00000E0
E0000038
E0000038
E0000038
E0000038
E0000038
E0000038
E0000038
E0000038
E0000038
E0000038
E0000060
E00000E0
E00000E0
E00001E0
E00003E0
E00003C0
E0000FC0
E0003F80
E0007F00
FFFFF000
FFFF8000
FFFF8000
FFFF0000
ENDCHAR
STARTCHAR $010F
ENCODING 271
SWIDTH 703 0
DWIDTH 33 0
BBX 36 35 1 0
BITMAP
000000E070
000000E0E0
000000E0E0
000000E0E0
000000E0E0
000000E0E0
000000E0E0
000000E0E0
000000E0C0
007FE0E000
03FFFCE000
07A47CE000
1F801FE000
7E000FE000
7C0007E000
7C0003E000
7C0003E000
FC0003E000
FC0003E000
E00000E000
E00000E000
E00000E000
E00000E000
F00000E000
F80000E000
FC0000E000
7C0003E000
7E000FE000
3E000FE000
1F801FE000
0FC07CE000
07C078E000
03FFF0E000
007FE0E000
007FC06000
ENDCHAR
STARTCHAR $0110
ENCODING 272
SWIDTH 777 0
DWIDTH 36 0
BBX 33 35 1 0
BITMAP
1FFFF00000
1FFFFE0000
1FFFFE0000
1E000FE000
1E000FE000
1E000FE000
1E0000F800
1E00003F00
1E00003F00
1E00001F00
1E00001F00
1E00000F00
1E00000780
1E00000780
FFFF000780
FFFF000780
FFFF800780
FFFF800780
FFFF800780
1E00000780
1E00000780
1E00000F80
1E00001F80
1E00001F00
1E00001F00
1E00001F00
1E00003F00
1E00007800
1E0000F800
1E000FE000
1E000FE000
1E000FE000
1FFFFE0000
1FFFF00000
1FFFF00000
ENDCHAR
STARTCHAR $0111
ENCODING 273
SWIDTH 703 0
DWIDTH 33 0
BBX 29 35 1 0
BITMAP
000000E0
000000E0
000000E0
00007FF8
00007FF8
00007FF8
00007FF8
000000E0
000000E0
007FE0E0
03FFFCE0
07A47CE0
1F801FE0
7E000FE0
7C0007E0
7C0003E0
7C0003E0
FC0003E0
FC0003E0
E00000E0
E00000E0
E00000E0
E00000E0
F00000E0
F80000E0
FC0000E0
7C0003E0
7E000FE0
3E000FE0
1F801FE0
0FC07CE0
07C078E0
03FFF0E0
007FE0E0
007FC060
ENDCHAR
STARTCHAR $0112
ENCODING 274
SWIDTH 518 0
DWIDTH 24 0
BBX 19 40 3 4
BITMAP
7FFF80
7FFF80
3FFF80
000000
000000
000000
000000
FFFFE0
FFFFE0
FFFFE0
F00000
E00000
E00000
E00000
E00000
E00000
E00000
E00000
E00000
E00000
E00000
E00000
FFFFE0
FFFFE0
FFFFE0
FFFFE0
E00000
E00000
E00000
E00000
E00000
E00000
E00000
E00000
E00000
E00000
F00000
FFFFC0
FFFFE0
FFFFE0
ENDCHAR
STARTCHAR $0113
ENCODING 275
SWIDTH 666 0
DWIDTH 31 0
BBX 26 33 1 1
BITMAP
03FFF000
03FFF000
03FFF000
00000000
00000000
00000000
00000000
007FE000
00FFE000
03FFFC00
0F801E00
0F000E00
7E000F00
7C0003C0
F80003C0
F00003C0
F00003C0
FFFFFFC0
FFFFFFC0
FFFFFFC0
F0000000
F0000000
E0000000
F0000000
78000380
7C0007C0
7E000F00
1F001C00
1F801800
0FFFF000
03FFF000
03FFF000
007F8000
ENDCHAR
STARTCHAR $0114
ENCODING 276
SWIDTH 518 0
DWIDTH 24 0
BBX 19 43 3 2
BITMAP
7C0780
3E0F00
1E1F00
1FFC00
0FFC00
0FFC00
004000
000000
000000
FFFFE0
FFFFE0
E2A440
E00000
E00000
E00000
E00000
E00000
E00000
E00000
E00000
E00000
E00000
E00000
F00000
FFFFC0
FFFFE0
FFFFE0
F80000
F00000
E00000
E00000
E00000
E00000
E00000
E00000
E00000
E00000
E00000
E00000
FFFFE0
FFFFE0
FFFFC0
FFFF80
ENDCHAR
STARTCHAR $0115
ENCODING 277
SWIDTH 666 0
DWIDTH 31 0
BBX 26 35 1 0
BITMAP
01807000
01C07000
01C07000
007FE000
007FE000
007FE000
00180000
00000000
00000000
007FE000
03FFFC00
07A47C00
1F801E00
7E000F00
7C000700
7C000380
700003C0
F00003C0
F80007C0
FFFFFFC0
FFFFFFC0
FFFFFF80
F0000000
E0000000
F0000000
F0000000
7C0003C0
7E000F80
3E000F00
1F801E00
0FC07C00
07C07800
03FFF000
007F8000
007F8000
ENDCHAR
STARTCHAR $0116
ENCODING 278
SWIDTH 518 0
DWIDTH 24 0
BBX 19 43 3 2
BITMAP
01E000
01E000
01E000
01E000
01E000
01E000
000000
000000
000000
FFFFE0
FFFFE0
E2A440
E00000
E00000
E00000
E00000
E00000
E00000
E00000
E00000
E00000
E00000
E00000
F00000
FFFFC0
FFFFE0
FFFFE0
F80000
F00000
E00000
E00000
E00000
E00000
E00000
E00000
E00000
E00000
E00000
E00000
FFFFE0
FFFFE0
FFFFC0
FFFF80
ENDCHAR
STARTCHAR $0117
ENCODING 279
SWIDTH 666 0
DWIDTH 31 0
BBX 26 33 1 1
BITMAP
000C0000
000C0000
000C0000
000C0000
00040000
00040000
00000000
007FE000
00FFE000
03FFFC00
0F801E00
0F000E00
7E000F00
7C0003C0
F80003C0
F00003C0
F00003C0
FFFFFFC0
FFFFFFC0
FFFFFFC0
F0000000
F0000000
E0000000
F0000000
78000380
7C0007C0
7E000F00
1F001C00
1F801800
0FFFF000
03FFF000
03FFF000
007F8000
ENDCHAR
STARTCHAR $0118
ENCODING 280
SWIDTH 518 0
DWIDTH 24 0
BBX 19 46 3 -12
BITMAP
FFFFE0
FFFFE0
FFFFE0
F00000
E00000
E00000
E00000
E00000
E00000
E00000
E00000
E00000
E00000
E00000
FFFF80
FFFF80
FFFFE0
FFFFE0
FFFFC0
E00000
E00000
E00000
E00000
E00000
E00000
E00000
E00000
E00000
E00000
E00000
F00000
F80000
FFFFE0
FFFFE0
FFFFC0
000700
000F00
000E00
000C00
000C00
000C00
000E00
001F00
000FE0
000FE0
0007E0
ENDCHAR
STARTCHAR $0119
ENCODING 281
SWIDTH 666 0
DWIDTH 31 0
BBX 26 36 1 -10
BITMAP
007FE000
03FFF800
03FFFC00
0FC07E00
1E003F00
1E001F00
7C000F00
700007C0
700003C0
F00003C0
FFFFFFC0
FFFFFFC0
FFFFFFC0
F0000000
E0000000
E0000000
F0000000
7C0003C0
7C0007C0
7E000F00
1F801C00
1F803800
0FFFF000
03FFF000
00FFE000
007FE000
00040000
000C0000
000C0000
000C0000
003C0000
003E0000
000F0000
000FE000
000FE000
0003E000
ENDCHAR
STARTCHAR $011A
ENCODING 282
SWIDTH 518 0
DWIDTH 24 0
BBX 19 43 3 2
BITMAP
7C0780
3F3F00
1FBF00
0FFC00
03F800
03F800
01F000
000000
000000
FFFFE0
FFFFE0
E2A440
E00000
E00000
E00000
E00000
E00000
E00000
E00000
E00000
E00000
E00000
E00000
F00000
FFFFC0
FFFFE0
FFFFE0
F80000
F00000
E00000
E00000
E00000
E00000
E00000
E00000
E00000
E00000
E00000
E00000
FFFFE0
FFFFE0
FFFFC0
FFFF80
ENDCHAR
STARTCHAR $011B
ENCODING 283
SWIDTH 666 0
DWIDTH 31 0
BBX 26 35 1 0
BITMAP
03C07000
01E0E000
01F0E000
007F8000
007F0000
007F0000
001C0000
00000000
00000000
007FE000
03FFFC00
07A47C00
1F801E00
7E000F00
7C000700
7C000380
700003C0
F00003C0
F80007C0
FFFFFFC0
FFFFFFC0
FFFFFF80
F0000000
E0000000
F0000000
F0000000
7C0003C0
7E000F80
3E000F00
1F801E00
0FC07C00
07C07800
03FFF000
007F8000
007F8000
ENDCHAR
STARTCHAR $011C
ENCODING 284
SWIDTH 888 0
DWIDTH 41 0
BBX 36 40 1 4
BITMAP
0003FC0000
0007FE0000
00079E0000
000F030000
000601C000
000401C000
0000000000
0007FF0000
0007FF8000
007FFFF800
01F001FC00
03E0003E00
03C0001F00
0E00000780
1E000003C0
1E000003E0
7E000000E0
7C00000000
7C00000000
7C00000000
F000000000
F000000000
E000000000
E000000000
E000000000
E000000000
E007FFFFF0
FC07FFFFF0
FC07FFFFF0
7C000000F0
7C000000E0
7C000000E0
7E000000E0
1E000003E0
1FE0000FC0
03E0001F00
01E0003C00
00FFFFF800
007FFFF800
0007FF0000
ENDCHAR
STARTCHAR $011D
ENCODING 285
SWIDTH 666 0
DWIDTH 31 0
BBX 26 45 1 -10
BITMAP
000C0000
007F8000
007F8000
01E38000
01E0C000
01E0E000
03C07000
00000000
00000000
007FE3C0
03FFF3C0
07A47FC0
1F807FC0
7E000FC0
7C0007C0
7C0003C0
700003C0
E00003C0
E00003C0
E00003C0
E00003C0
E00003C0
E00003C0
F00003C0
F80003C0
FC0003C0
7C0003C0
7E000FC0
3E000FC0
1F801FC0
0FC07FC0
07C07FC0
03FFF3C0
007F83C0
387F83C0
7C0003C0
7C0003C0
1E000F80
1E000F00
1FC01F00
0FFFFE00
07FFFE00
03FFFC00
003FE000
003FC000
ENDCHAR
STARTCHAR $011E
ENCODING 286
SWIDTH 888 0
DWIDTH 41 0
BBX 36 40 1 4
BITMAP
000C03C000
000FFF8000
000FFF0000
0007FE0000
0003FC0000
0001F80000
0000000000
0007FF0000
0007FF8000
007FFFF800
01F001FC00
03E0003E00
03C0001F00
0E00000780
1E000003C0
1E000003E0
7E000000E0
7C00000000
7C00000000
7C00000000
F000000000
F000000000
E000000000
E000000000
E000000000
E000000000
E007FFFFF0
FC07FFFFF0
FC07FFFFF0
7C000000F0
7C000000E0
7C000000E0
7E000000E0
1E000003E0
1FE0000FC0
03E0001F00
01E0003C00
00FFFFF800
007FFFF800
0007FF0000
ENDCHAR
STARTCHAR $011F
ENCODING 287
SWIDTH 666 0
DWIDTH 31 0
BBX 26 45 1 -10
BITMAP
01807000
01C0E000
01C0E000
007FE000
007FE000
007FE000
00180000
00000000
00000000
007FE3C0
03FFF3C0
07A47FC0
1F807FC0
7E000FC0
7C0007C0
7C0003C0
700003C0
E00003C0
E00003C0
E00003C0
E00003C0
E00003C0
E00003C0
F00003C0
F80003C0
FC0003C0
7C0003C0
7E000FC0
3E000FC0
1F801FC0
0FC07FC0
07C07FC0
03FFF3C0
007F83C0
387F83C0
7C0003C0
7C0003C0
1E000F80
1E000F00
1FC01F00
0FFFFE00
07FFFE00
03FFFC00
003FE000
003FC000
ENDCHAR
STARTCHAR $0120
ENCODING 288
SWIDTH 888 0
DWIDTH 41 0
BBX 36 40 1 4
BITMAP
0000700000
0000700000
0000700000
0000700000
0000700000
0000700000
0000000000
0007FF0000
0007FF8000
007FFFF800
01F001FC00
03E0003E00
03C0001F00
0E00000780
1E000003C0
1E000003E0
7E000000E0
7C00000000
7C00000000
7C00000000
F000000000
F000000000
E000000000
E000000000
E000000000
E000000000
E007FFFFF0
FC07FFFFF0
FC07FFFFF0
7C000000F0
7C000000E0
7C000000E0
7E000000E0
1E000003E0
1FE0000FC0
03E0001F00
01E0003C00
00FFFFF800
007FFFF800
0007FF0000
ENDCHAR
STARTCHAR $0121
ENCODING 289
SWIDTH 666 0
DWIDTH 31 0
BBX 26 43 1 -9
BITMAP
000C0000
000C0000
000C0000
000C0000
00040000
00040000
00000000
007FE3C0
00FFE3C0
03FFF3C0
0F80FFC0
0F004FC0
7E000FC0
7C0003C0
F80003C0
F00003C0
E00003C0
E00003C0
E00003C0
E00003C0
E00003C0
E00003C0
F00003C0
FC0003C0
7C0003C0
7C0007C0
7E000FC0
1F001FC0
1F801FC0
0FFFF3C0
03FFF3C0
03FFF3C0
007F83C0
7C0003C0
7C0003C0
7C0003C0
1E000F00
1FC01F00
1FC01F00
03FFFC00
003FE000
003FC000
001F8000
ENDCHAR
STARTCHAR $0122
ENCODING 290
SWIDTH 888 0
DWIDTH 41 0
BBX 36 45 1 -10
BITMAP
0007FF0000
007FFFF000
007FFFF800
01E001FC00
01E000FE00
01E0007F00
03C0001F80
1E000007C0
1E000007E0
7E000003E0
7C00000000
7C00000000
7C00000000
F000000000
E000000000
E000000000
E000000000
E000000000
E000000000
E003FFFFF0
FC07FFFFF0
FC07FFFFF0
7C000000F0
7C000000E0
7E000000E0
3E000000E0
1E000000E0
03C0000F80
03C0001F80
01E0003F00
01F8007C00
01F800FC00
007FFFF800
0003FE0000
0001FE0000
0000000000
0000700000
0000700000
0000700000
0000E00000
0001E00000
0003E00000
0003E00000
0000E00000
0000C00000
ENDCHAR
STARTCHAR $0123
ENCODING 291
SWIDTH 666 0
DWIDTH 31 0
BBX 26 46 1 -10
BITMAP
000C0000
000C0000
000C0000
000C0000
000C0000
001C0000
00380000
00380000
00380000
00000000
007FE1C0
02FFE1C0
03FFF3C0
0F807FC0
1E000FC0
1E000FC0
7E000FC0
7C0007C0
7C0003C0
E00003C0
E00003C0
E00003C0
E00003C0
E00003C0
F00003C0
F00003C0
FC0003C0
7C0003C0
7C0007C0
7E000FC0
1E000FC0
1E000FC0
0F801FC0
03FFF3C0
03FFF3C0
007F03C0
7C0003C0
7C0003C0
3C0007C0
1C000F00
1FC01F00
1FC03F00
0FF07E00
03FFFC00
03FFF800
003FE000
ENDCHAR
STARTCHAR $0124
ENCODING 292
SWIDTH 666 0
DWIDTH 31 0
BBX 24 43 3 2
BITMAP
003800
007F80
007F80
01E780
01C3C0
01C1E0
0380F0
000000
000000
E0000F
E0000F
E0000F
E0000F
E0000F
E0000F
E0000F
E0000F
E0000F
E0000F
E0000F
E0000F
E0000F
E0000F
F0000F
FFFFFF
FFFFFF
FFFFFF
F8000F
F0000F
E0000F
E0000F
E0000F
E0000F
E0000F
E0000F
E0000F
E0000F
E0000F
E0000F
E0000F
E0000F
E0000F
E00002
ENDCHAR
STARTCHAR $0125
ENCODING 293
SWIDTH 592 0
DWIDTH 28 0
BBX 22 43 3 2
BITMAP
006000
00FC00
01FC00
03CF00
060780
0E0780
0C03E0
000000
000000
E00000
E00000
E00000
E00000
E00000
E00000
E00000
E00000
F1FF00
F9FF00
FFFFE0
FE03F0
FE01F0
FC00F0
F00070
E00070
E00070
E0001C
E0001C
E0001C
E0001C
E0001C
E0001C
E0001C
E0001C
E0001C
E0001C
E0001C
E0001C
E0001C
E0001C
E0001C
E0001C
E0001C
ENDCHAR
STARTCHAR $0126
ENCODING 294
SWIDTH 666 0
DWIDTH 31 0
BBX 32 35 0 0
BITMAP
1E0000E0
1E0000E0
1E0000E0
1E0000E0
1E0001E0
1E0001E0
FFFFFFFF
FFFFFFFC
FFFFFFFC
1E0000E0
1E0000E0
1E0000E0
1E0000E0
1E0000E0
1FFFFFE0
1FFFFFE0
1FFFFFE0
1FFFFFE0
1FFFFFE0
1E0000E0
1E0000E0
1E0000E0
1E0000E0
1E0000E0
1E0000E0
1E0000E0
1E0000E0
1E0000E0
1E0000E0
1E0000E0
1E0000E0
1E0000E0
1E0000E0
1E0000E0
1E000060
ENDCHAR
STARTCHAR $0127
ENCODING 295
SWIDTH 592 0
DWIDTH 28 0
BBX 26 35 0 0
BITMAP
1E000000
1E000000
1E000000
FFC00000
FFC00000
FFC00000
FFC00000
1E000000
1E000000
1E3FE000
1FFFFC00
1FE47C00
1FC01E00
1F800F00
1E000F00
1E000F80
1E000FC0
1E0007C0
1E0003C0
1E0003C0
1E0003C0
1E0003C0
1E0003C0
1E0003C0
1E0003C0
1E0003C0
1E0003C0
1E0003C0
1E0003C0
1E0003C0
1E0003C0
1E0003C0
1E0003C0
1E000100
1E000100
ENDCHAR
STARTCHAR $0128
ENCODING 296
SWIDTH 222 0
DWIDTH 11 0
BBX 13 43 -1 2
BITMAP
1C00
FE08
FE18
71F8
61F8
21F8
0040
0000
0000
0380
0380
0380
0380
0380
0380
0380
0380
0380
0380
0380
0380
0380
0380
0380
0380
0380
0380
0380
0380
0380
0380
0380
0380
0380
0380
0380
0380
0380
0380
0380
0380
0380
0380
ENDCHAR
STARTCHAR $0129
ENCODING 297
SWIDTH 185 0
DWIDTH 9 0
BBX 13 35 -1 0
BITMAP
7C00
FFF8
FFF8
EFE0
C3E0
83E0
0000
0000
0000
0380
0380
0380
0380
0380
0380
0380
0380
0380
0380
0380
0380
0380
0380
0380
0380
0380
0380
0380
0380
0380
0380
0380
0380
0380
0300
ENDCHAR
STARTCHAR $012A
ENCODING 298
SWIDTH 222 0
DWIDTH 11 0
BBX 17 40 -3 4
BITMAP
FFFF80
FFFF80
FFFF80
000000
000000
000000
000000
01C000
01C000
01C000
01C000
01C000
01C000
01C000
01C000
01C000
01C000
01C000
01C000
01C000
01C000
01C000
01C000
01C000
01C000
01C000
01C000
01C000
01C000
01C000
01C000
01C000
01C000
01C000
01C000
01C000
01C000
01C000
01C000
01C000
ENDCHAR
STARTCHAR $012B
ENCODING 299
SWIDTH 185 0
DWIDTH 9 0
BBX 14 33 -3 1
BITMAP
FFFC
FFFC
FFFC
0000
0000
0000
0000
01C0
01C0
01C0
01C0
01C0
01C0
01C0
01C0
01C0
01C0
01C0
01C0
01C0
01C0
01C0
01C0
01C0
01C0
01C0
01C0
01C0
01C0
01C0
01C0
01C0
01C0
ENDCHAR
STARTCHAR $012C
ENCODING 300
SWIDTH 222 0
DWIDTH 11 0
BBX 13 43 -1 2
BITMAP
E038
E038
E038
7FE0
7FE0
3FE0
0380
0000
0000
0380
0380
0380
0380
0380
0380
0380
0380
0380
0380
0380
0380
0380
0380
0380
0380
0380
0380
0380
0380
0380
0380
0380
0380
0380
0380
0380
0380
0380
0380
0380
0380
0380
0380
ENDCHAR
STARTCHAR $012D
ENCODING 301
SWIDTH 185 0
DWIDTH 9 0
BBX 13 35 -1 0
BITMAP
8038
C070
E060
7FE0
7FE0
3FE0
0000
0000
0000
0380
0380
0380
0380
0380
0380
0380
0380
0380
0380
0380
0380
0380
0380
0380
0380
0380
0380
0380
0380
0380
0380
0380
0380
0380
0300
ENDCHAR
STARTCHAR $012E
ENCODING 302
SWIDTH 222 0
DWIDTH 11 0
BBX 7 46 0 -12
BITMAP
1E
1E
1E
1E
1E
1E
1E
1E
1E
1E
1E
1E
1E
1E
1E
1E
1E
1E
1E
1E
1E
1E
1E
1E
1E
1E
1E
1E
1E
1E
1E
1E
1E
1E
1E
1E
7C
E0
E0
E0
E0
E0
F0
FE
FE
7E
ENDCHAR
STARTCHAR $012F
ENCODING 303
SWIDTH 185 0
DWIDTH 9 0
BBX 9 46 -1 -12
BITMAP
0380
0380
0380
0380
0200
0200
0000
0000
0000
0380
0380
0380
0380
0380
0380
0380
0380
0380
0380
0380
0380
0380
0380
0380
0380
0380
0380
0380
0380
0380
0380
0380
0380
0F80
1F00
1E00
7C00
7C00
7C00
F000
7000
7800
7C00
7F80
3F80
1F80
ENDCHAR
STARTCHAR $0130
ENCODING 304
SWIDTH 222 0
DWIDTH 11 0
BBX 3 43 3 2
BITMAP
E0
E0
E0
E0
E0
E0
00
00
00
E0
E0
E0
E0
E0
E0
E0
E0
E0
E0
E0
E0
E0
E0
E0
E0
E0
E0
E0
E0
E0
E0
E0
E0
E0
E0
E0
E0
E0
E0
E0
E0
E0
E0
ENDCHAR
STARTCHAR $0131
ENCODING 305
SWIDTH 185 0
DWIDTH 9 0
BBX 3 26 3 0
BITMAP
E0
E0
E0
E0
E0
E0
E0
E0
E0
E0
E0
E0
E0
E0
E0
E0
E0
E0
E0
E0
E0
E0
E0
E0
E0
E0
ENDCHAR
STARTCHAR $0132
ENCODING 306
SWIDTH 666 0
DWIDTH 31 0
BBX 24 35 3 0
BITMAP
E0000F
E0000F
E0000F
E0000F
E0000F
E0000F
E0000F
E0000F
E0000F
E0000F
E0000F
E0000F
E0000F
E0000F
E0000F
E0000F
E0000F
E0000F
E0000F
E0000F
E0000F
E0000F
E0000F
E0000F
E0000F
E0000F
E1C00F
E1C00F
E1C00F
E1E01F
E1F87E
E1F87E
E07FFC
E03FE0
C01FC0
ENDCHAR
STARTCHAR $0133
ENCODING 307
SWIDTH 407 0
DWIDTH 19 0
BBX 12 43 3 -8
BITMAP
E060
E060
E060
E060
E060
E060
0000
0000
0000
E060
E070
E060
E060
E070
E060
E060
E060
E070
E060
E060
E060
E070
E060
E060
E060
E060
E070
E060
E060
E060
E060
E060
E060
E060
C070
0060
0060
01E0
01E0
0FC0
1E00
1E00
0C00
ENDCHAR
STARTCHAR $0134
ENCODING 308
SWIDTH 481 0
DWIDTH 23 0
BBX 26 43 0 2
BITMAP
0003E000
0007F000
0007F000
000F7C00
000E3E00
001C1E00
00780FC0
00000000
00000000
0000E000
0003E000
0003E000
0003E000
0003E000
0003E000
0003E000
0003E000
0003E000
0003E000
0003E000
0003E000
0003E000
0003E000
0003E000
0003E000
0003E000
0003E000
0003E000
0003E000
0003E000
0003E000
0003E000
0003E000
0003E000
F003E000
F003E000
7C07E000
7E07C000
3E078000
1FFF0000
0FFE0000
07FC0000
03F80000
ENDCHAR
STARTCHAR $0135
ENCODING 309
SWIDTH 185 0
DWIDTH 9 0
BBX 13 43 -1 -8
BITMAP
1F80
3FC0
7FC0
FC78
F878
F078
0000
0000
0000
0380
0380
0380
0380
0380
0380
0380
0380
0380
0380
0380
0380
0380
0380
0380
0380
0380
0380
0380
0380
0380
0380
0380
0380
0380
0780
0F80
1E00
1E00
1E00
FC00
F000
F000
E000
ENDCHAR
STARTCHAR $0136
ENCODING 310
SWIDTH 592 0
DWIDTH 28 0
BBX 22 45 3 -10
BITMAP
E0001C
E0003C
E0007C
E000FC
E001F0
E003F0
E007E0
E00780
E00780
E00F00
E01C00
E03C00
E07C00
E1F800
E1F000
E1E000
E1C000
F3C000
FBC000
FE6000
FE3800
FE3800
FC3C00
F00F00
E00780
E00780
E00380
E003C0
E001E0
E000F0
E000F8
E000FC
E0007C
E0001C
C00018
000000
003800
003800
003800
006000
006000
006000
007000
006000
006000
ENDCHAR
STARTCHAR $0137
ENCODING 311
SWIDTH 518 0
DWIDTH 24 0
BBX 19 45 3 -10
BITMAP
E00000
E00000
E00000
E00000
E00000
E00000
E00000
E00000
E00000
E007E0
E00F80
E00F00
E00F00
E01C00
E03800
E03800
E07800
E1F000
E1E000
E1C000
E38000
E78000
FFC000
FFE000
FFF800
FFF800
FC7C00
F83C00
F03E00
E00F00
E00700
E00700
E00780
E003E0
C001C0
000000
006000
01C000
01C000
01C000
01C000
01C000
03C000
038000
030000
ENDCHAR
STARTCHAR $0139
ENCODING 313
SWIDTH 444 0
DWIDTH 21 0
BBX 19 43 1 4
BITMAP
03C000
078000
0F8000
FE0000
FE0000
FE0000
600000
000000
000000
7C0000
7C0000
7C0000
7C0000
7C0000
7C0000
7C0000
7C0000
7C0000
7C0000
7C0000
7C0000
7C0000
7C0000
7C0000
7C0000
7C0000
7C0000
7C0000
7C0000
7C0000
7C0000
7C0000
7C0000
7C0000
7C0000
7C0000
7C0000
7C0000
7C0000
7FFFE0
7FFFE0
3FFFC0
1FFF80
ENDCHAR
STARTCHAR $013A
ENCODING 314
SWIDTH 185 0
DWIDTH 9 0
BBX 10 43 1 4
BITMAP
03C0
3F80
7F80
FC00
F800
F000
E000
0000
0000
7C00
7C00
7C00
7C00
7C00
7C00
7C00
7C00
7C00
7C00
7C00
7C00
7C00
7C00
7C00
7C00
7C00
7C00
7C00
7C00
7C00
7C00
7C00
7C00
7C00
7C00
7C00
7C00
7C00
7C00
7C00
7C00
3C00
1000
ENDCHAR
STARTCHAR $013B
ENCODING 315
SWIDTH 444 0
DWIDTH 21 0
BBX 17 45 3 -10
BITMAP
E00000
E00000
E00000
E00000
E00000
E00000
E00000
E00000
E00000
E00000
E00000
E00000
E00000
E00000
E00000
E00000
E00000
E00000
E00000
E00000
E00000
E00000
E00000
E00000
E00000
E00000
E00000
E00000
E00000
E00000
F00000
F80000
FFFF80
FFFF80
FFFF80
000000
01C000
01C000
01C000
01C000
01C000
01C000
03C000
038000
030000
ENDCHAR
STARTCHAR $013C
ENCODING 316
SWIDTH 185 0
DWIDTH 9 0
BBX 6 45 1 -10
BITMAP
7C
7C
7C
7C
7C
7C
7C
7C
7C
7C
7C
7C
7C
7C
7C
7C
7C
7C
7C
7C
7C
7C
7C
7C
7C
7C
7C
7C
7C
7C
7C
7C
7C
70
30
00
7C
7C
7C
F0
E0
E0
E0
E0
C0
ENDCHAR
STARTCHAR $013D
ENCODING 317
SWIDTH 444 0
DWIDTH 21 0
BBX 17 35 3 0
BITMAP
E06000
E06000
E06000
E1E000
E1C000
E1C000
E1C000
E1C000
E1C000
E00000
E00000
E00000
E00000
E00000
E00000
E00000
E00000
E00000
E00000
E00000
E00000
E00000
E00000
E00000
E00000
E00000
E00000
E00000
E00000
E00000
F00000
F80000
FFFF80
FFFF80
FFFF80
ENDCHAR
STARTCHAR $013E
ENCODING 318
SWIDTH 185 0
DWIDTH 9 0
BBX 11 35 3 0
BITMAP
E060
E0E0
E1E0
E1C0
E1C0
E1C0
E3C0
E380
E300
E000
E000
E000
E000
E000
E000
E000
E000
E000
E000
E000
E000
E000
E000
E000
E000
E000
E000
E000
E000
E000
E000
E000
E000
E000
C000
ENDCHAR
STARTCHAR $013F
ENCODING 319
SWIDTH 444 0
DWIDTH 21 0
BBX 17 35 3 0
BITMAP
E00000
E00000
E00000
E00000
E00000
E00000
E00000
E00000
E00000
E00000
E00000
E00000
E00000
E01800
E03800
E03800
E03800
E03800
E03800
E00000
E00000
E00000
E00000
E00000
E00000
E00000
E00000
E00000
E00000
E00000
F00000
F80000
FFFF80
FFFF80
FFFF80
ENDCHAR
STARTCHAR $0140
ENCODING 320
SWIDTH 259 0
DWIDTH 12 0
BBX 9 35 3 0
BITMAP
E000
E000
E000
E000
E000
E000
E000
E000
E000
E000
E000
E000
E000
E200
E300
E380
E380
E380
E300
E000
E000
E000
E000
E000
E000
E000
E000
E000
E000
E000
E000
E000
E000
E000
C000
ENDCHAR
STARTCHAR $0141
ENCODING 321
SWIDTH 518 0
DWIDTH 24 0
BBX 22 35 1 0
BITMAP
1E0000
1E0000
1E0000
1E0000
1E0000
1E0000
1E0000
1E0000
1E0000
1E0400
1E0C00
1E3C00
1E7C00
1FF800
1FC000
1FC000
1F8000
3E0000
7E0000
FE0000
DE0000
9E0000
1E0000
1E0000
1E0000
1E0000
1E0000
1E0000
1E0000
1E0000
1E0000
1E0000
1FFFFC
1FFFFC
1FFFF8
ENDCHAR
STARTCHAR $0142
ENCODING 322
SWIDTH 296 0
DWIDTH 14 0
BBX 10 35 1 0
BITMAP
1E00
1E00
1E00
1E00
1E00
1E00
1E00
1E00
1E00
1E00
1E00
1E00
1E40
1FC0
1E00
1E00
7E00
FE00
FE00
9E00
1E00
1E00
1E00
1E00
1E00
1E00
1E00
1E00
1E00
1E00
1E00
1E00
1E00
1E00
1E00
ENDCHAR
STARTCHAR $0143
ENCODING 323
SWIDTH 740 0
DWIDTH 35 0
BBX 27 43 3 4
BITMAP
0003F000
0007E000
0007E000
000F0000
000E0000
000C0000
00180000
00000000
00000000
FC0000E0
FE0000E0
FE0000E0
FE0000E0
FE0000E0
E70000E0
E38000E0
E3C000E0
E1C000E0
E1C000E0
E06000E0
E07800E0
E07800E0
E03800E0
E00C00E0
E00E00E0
E00F00E0
E01F80E0
E007C0E0
E007E0E0
E003E0E0
E000E0E0
E000E0E0
E00070E0
E0007CE0
E0003FE0
E0001FE0
E0000FE0
E0000FE0
E0000FE0
E00003E0
E00001E0
E00001E0
E00000E0
ENDCHAR
STARTCHAR $0144
ENCODING 324
SWIDTH 592 0
DWIDTH 28 0
BBX 22 36 3 1
BITMAP
000380
000F80
001F80
003F00
01FE00
01FC00
01F000
000000
000000
000000
E1FC00
E3FE40
FFFFE0
FE03F0
FC00F0
FC00F0
F00070
E00070
E00070
E0001C
E0001C
E0001C
E0001C
E0001C
E0001C
E0001C
E0001C
E0001C
E0001C
E0001C
E0001C
E0001C
E0001C
E0001C
E0001C
E0001C
ENDCHAR
STARTCHAR $0145
ENCODING 325
SWIDTH 740 0
DWIDTH 35 0
BBX 27 45 3 -10
BITMAP
FC0000E0
FE0000E0
FE0000E0
FE0000E0
FE0000E0
FE0000E0
E38000E0
E3C000E0
E3C000E0
E1C000E0
E06000E0
E07000E0
E07800E0
E03800E0
E01C00E0
E00C00E0
E00F00E0
E01F80E0
E00F80E0
E007E0E0
E003E0E0
E001E0E0
E000F0E0
E00070E0
E00078E0
E0007CE0
E0001CE0
E0000FE0
E0000FE0
E0000FE0
E00007E0
E00003E0
E00001E0
E00000E0
C0000060
00000000
000C0000
000C0000
000C0000
000C0000
000C0000
001C0000
00380000
00180000
00080000
ENDCHAR
STARTCHAR $0146
ENCODING 326
SWIDTH 592 0
DWIDTH 28 0
BBX 22 36 3 -10
BITMAP
E1FC00
FFFFC0
FFFFE0
FE03F0
FE00F0
FE00F0
FC0070
E00070
E00030
E0001C
E0001C
E0001C
E0001C
E0001C
E0001C
E0001C
E0001C
E0001C
E0001C
E0001C
E0001C
E0001C
E0001C
E0001C
E0001C
E00018
000000
007800
007800
006000
006000
006000
006000
006000
00E000
01C000
ENDCHAR
STARTCHAR $0147
ENCODING 327
SWIDTH 740 0
DWIDTH 35 0
BBX 27 43 3 2
BITMAP
03C07000
00E0E000
0070E000
003F8000
001F0000
000F0000
001C0000
00000000
00000000
FC0000E0
FE0000E0
FE0000E0
FE0000E0
FE0000E0
E70000E0
E38000E0
E3C000E0
E1C000E0
E1C000E0
E06000E0
E07800E0
E07800E0
E03800E0
E00C00E0
E00E00E0
E00F00E0
E01F80E0
E007C0E0
E007E0E0
E003E0E0
E000E0E0
E000E0E0
E00070E0
E0007CE0
E0003FE0
E0001FE0
E0000FE0
E0000FE0
E0000FE0
E00003E0
E00001E0
E00001E0
E00000E0
ENDCHAR
STARTCHAR $0148
ENCODING 328
SWIDTH 592 0
DWIDTH 28 0
BBX 22 35 3 0
BITMAP
1E0780
07CF00
03DF00
03FC00
01F800
01F800
000000
000000
000000
E1FF00
FFFFE0
FFA7E0
FE03F0
FC0070
F80070
F00070
E00070
E00018
E0001C
E0001C
E0001C
E0001C
E0001C
E0001C
E0001C
E0001C
E0001C
E0001C
E0001C
E0001C
E0001C
E0001C
E0001C
E0001C
C00018
ENDCHAR
STARTCHAR $014A
ENCODING 330
SWIDTH 740 0
DWIDTH 35 0
BBX 27 46 3 -12
BITMAP
FC0000E0
FE0000E0
FE0000E0
FE0000E0
FE0000E0
FE0000E0
E38000E0
E3C000E0
E3C000E0
E1C000E0
E06000E0
E07000E0
E07800E0
E03800E0
E01C00E0
E00C00E0
E00F00E0
E01F80E0
E00F80E0
E007E0E0
E003E0E0
E001E0E0
E000F0E0
E00070E0
E00078E0
E0007CE0
E0001CE0
E0000FE0
E0000FE0
E0000FE0
E00007E0
E00003E0
E00001E0
E00000E0
C00000E0
000000E0
000000E0
006000E0
007000E0
003803C0
003C0FC0
003E0FC0
001F0F00
000FFE00
000FFE00
0007F000
ENDCHAR
STARTCHAR $014B
ENCODING 331
SWIDTH 592 0
DWIDTH 28 0
BBX 22 35 3 -9
BITMAP
E1FC00
FFFFC0
FFFFE0
FE03F0
FE00F0
FE00F0
FC0070
E00070
E00030
E0001C
E0001C
E0001C
E0001C
E0001C
E0001C
E0001C
E0001C
E0001C
E0001C
E0001C
E0001C
E0001C
E0001C
E0001C
E0001C
E0001C
00001C
000070
000070
000070
0000F0
0000F0
0007E0
000380
000180
ENDCHAR
STARTCHAR $014C
ENCODING 332
SWIDTH 851 0
DWIDTH 40 0
BBX 36 40 1 4
BITMAP
003FFFC000
003FFFC000
003FFFC000
0000000000
0000000000
0000000000
0000000000
0007FF0000
0007FF8000
007FFFE000
01F001FC00
03E0003E00
03C0001F00
0E00000780
1E000003C0
1E000003E0
7E000003E0
7C000001F0
7C000000F0
7C000000F0
F000000070
F000000070
E000000070
E000000070
E000000070
E000000070
E000000070
7C00000070
7C00000070
7C000000F0
7C000000E0
7C000001E0
7E000003E0
1F800007E0
1FE0000FC0
03E0001F00
01E000FC00
00FFFFF000
007FFFE000
000FFF0000
ENDCHAR
STARTCHAR $014D
ENCODING 333
SWIDTH 666 0
DWIDTH 31 0
BBX 27 33 1 1
BITMAP
03FFF000
03FFF000
03FFF000
00000000
00000000
00000000
00000000
007FE000
00FFE000
03FFFC00
0F801E00
0F000E00
7E000F00
7C0003C0
FC0003C0
FC0003C0
F00003C0
E00003E0
E00003E0
E00000E0
E00003C0
E00003C0
F00003C0
FC0003C0
7C0003C0
7C0007C0
7E000F00
1F001F00
1F801F00
0FFFFE00
03FFFC00
03FFF800
007FE000
ENDCHAR
STARTCHAR $014E
ENCODING 334
SWIDTH 851 0
DWIDTH 40 0
BBX 36 40 1 4
BITMAP
000C03C000
000FFF8000
000FFF0000
0007FE0000
0003FC0000
0001F80000
0000000000
0007FF0000
0007FF8000
007FFFE000
01F001FC00
03E0003E00
03C0001F00
0E00000780
1E000003C0
1E000003E0
7E000003E0
7C000001F0
7C000000F0
7C000000F0
F000000070
F000000070
E000000070
E000000070
E000000070
E000000070
E000000070
7C00000070
7C00000070
7C000000F0
7C000000E0
7C000001E0
7E000003E0
1F800007E0
1FE0000FC0
03E0001F00
01E000FC00
00FFFFF000
007FFFE000
000FFF0000
ENDCHAR
STARTCHAR $014F
ENCODING 335
SWIDTH 666 0
DWIDTH 31 0
BBX 27 35 1 0
BITMAP
01C07000
01C07000
01C07000
007FE000
007FE000
007FE000
00180000
00000000
00000000
007FE000
03FFFC00
07A47C00
1F801E00
7E000FC0
7C0007C0
7C0003C0
7C0003C0
FC0003C0
FC0003C0
E00003E0
E00000E0
E00000E0
E00001C0
F00003C0
F80003C0
FC0003C0
7C0003C0
7E000F80
3E000F00
1F801F00
0FC07E00
07C07E00
03FFFC00
007FE000
007FC000
ENDCHAR
STARTCHAR $0150
ENCODING 336
SWIDTH 851 0
DWIDTH 40 0
BBX 36 43 1 2
BITMAP
0000101F00
0000F03800
0000F03800
0003E1F800
0007E3F000
0007E3E000
001C03C000
0000000000
0000000000
0007FF0000
007FFFE000
00F445F000
01E001FC00
03F0003F00
0600001F80
0E00001F80
1E000007E0
3E000003E0
7E000003E0
7C000000F0
7C00000070
7800000070
F000000070
E000000070
E000000070
E000000070
E000000070
E000000070
E000000070
7000000070
7C000000F0
7C000000F0
7C000000E0
7E000003E0
3F000007E0
0F800007C0
03C0001F80
01E0007F00
01F000FF00
007FFFE000
001FFF8000
000FFF0000
001FFE0000
ENDCHAR
STARTCHAR $0151
ENCODING 337
SWIDTH 666 0
DWIDTH 31 0
BBX 27 35 1 0
BITMAP
000783C0
003F07C0
003F0FC0
007C7E00
00787C00
00787800
00407000
00000000
00000000
007FE000
03FFFC00
07A47C00
1F801E00
7E000FC0
7C0007C0
7C0003C0
7C0003C0
FC0003C0
FC0003C0
E00003E0
E00000E0
E00000E0
E00001C0
F00003C0
F80003C0
FC0003C0
7C0003C0
7E000F80
3E000F00
1F801F00
0FC07E00
07C07E00
03FFFC00
007FE000
007FC000
ENDCHAR
STARTCHAR $0152
ENCODING 338
SWIDTH 1185 0
DWIDTH 55 0
BBX 52 35 1 0
BITMAP
000FFF007FFFF0
007FFFE07FFFF0
007FFFE07FFFF0
01E001FC700000
01E000FFF00000
01E0007FF00000
0380001FF00000
1E000007F00000
1E000007F00000
7E000003F00000
7C000000F00000
7C000000F00000
7C000000F00000
F0000000700000
E00000007FFF80
E00000007FFF80
E00000007FFF80
E00000007FFF80
E00000007FFF80
E0000000700000
7C000000700000
7C000000700000
7C000000F00000
7C000000F00000
7E000001F00000
3E000003F00000
1E000007F00000
03C0000FF00000
03C0001FF00000
01E000FF700000
01F801F8780000
01F801F07C0000
007FFFC07FFFF0
001FFE007FFFC0
000FFE003FFE80
ENDCHAR
STARTCHAR $0153
ENCODING 339
SWIDTH 1148 0
DWIDTH 53 0
BBX 49 26 1 0
BITMAP
007FE000FF0000
03FFF00FFFF000
03FFF01FFFF800
0FC07C3F00FC00
1E003E3C007C00
1E001E3C003C00
7C000F38001E00
700007E0000E00
700003E0000600
F00003E0000200
E00003FFFFFF80
E00003FFFFFF80
E00003FFFFFF80
E00003C0000000
F00003E0000000
F00003E0000000
FC0003E0000000
7C0003E0000600
7C0007F0000E00
7E000F38001E00
1F801C3F80FC00
1F80383F80FC00
0FFFF007FFF800
03FFF003FFE000
00FFE001FF8000
007FE000FF0000
ENDCHAR
STARTCHAR $0154
ENCODING 340
SWIDTH 592 0
DWIDTH 28 0
BBX 24 43 3 4
BITMAP
000F80
003F00
003F00
01FC00
01F800
01F800
004000
000000
000000
FFFF00
FFFFE0
E2A7E0
E003F0
E0001C
E0001C
E0001C
E0001E
E0001F
E0001F
E0000F
E0001F
E0001F
E0001E
E0001C
E0001C
E00018
E003F0
E1FFE0
E1FFE0
E07800
E03800
E03800
E00C00
E00F00
E01F80
E00F80
E007E0
E003E0
E003E0
E00070
E00078
E0007C
E0007C
ENDCHAR
STARTCHAR $0155
ENCODING 341
SWIDTH 296 0
DWIDTH 14 0
BBX 10 35 3 1
BITMAP
03C0
3F80
7F80
FC00
F800
F000
8000
0000
0000
E1C0
FFC0
FF80
FE00
FC00
F800
F000
E000
E000
E000
E000
E000
E000
E000
E000
E000
E000
E000
E000
E000
E000
E000
E000
E000
E000
C000
ENDCHAR
STARTCHAR $0156
ENCODING 342
SWIDTH 592 0
DWIDTH 28 0
BBX 24 45 3 -10
BITMAP
FFFC00
FFFFC0
FFFFE0
F003F0
E000F0
E000F0
E0001C
E0001C
E0001C
E0001F
E0000F
E0000F
E0001F
E0001E
E0001C
E0001C
E0001C
E000F0
E000F0
E1FFE0
E07800
E07800
E03800
E00C00
E00E00
E00F00
E01F80
E007C0
E007E0
E003E0
E000E0
E000E0
E00070
E0007C
C00038
000000
006000
006000
006000
006000
006000
006000
007000
01C000
00C000
ENDCHAR
STARTCHAR $0157
ENCODING 343
SWIDTH 296 0
DWIDTH 14 0
BBX 11 36 1 -10
BITMAP
7C60
7FE0
7FE0
7FC0
7E00
7E00
7C00
7C00
7C00
7C00
7C00
7C00
7C00
7C00
7C00
7C00
7C00
7C00
7C00
7C00
7C00
7C00
7C00
7C00
7C00
3C00
0000
3C00
7C00
7C00
7000
7000
E000
E000
E000
E000
ENDCHAR
STARTCHAR $0158
ENCODING 344
SWIDTH 592 0
DWIDTH 28 0
BBX 24 43 3 2
BITMAP
1E07E0
070FC0
039F80
03FC00
01F800
01F800
007000
000000
000000
FFFF00
FFFFE0
E2A7E0
E003F0
E0001C
E0001C
E0001C
E0001E
E0001F
E0001F
E0000F
E0001F
E0001F
E0001E
E0001C
E0001C
E00018
E003F0
E1FFE0
E1FFE0
E07800
E03800
E03800
E00C00
E00F00
E01F80
E00F80
E007E0
E003E0
E003E0
E00070
E00078
E0007C
E0007C
ENDCHAR
STARTCHAR $0159
ENCODING 345
SWIDTH 296 0
DWIDTH 14 0
BBX 14 35 -1 0
BITMAP
FC0C
7E78
3E78
1FE0
0FE0
0FE0
01C0
0000
0000
038C
03FC
03F4
03E0
03F0
03C0
03C0
0380
0380
0380
0380
0380
0380
0380
0380
0380
0380
0380
0380
0380
0380
0380
0380
0380
0380
0300
ENDCHAR
STARTCHAR $015A
ENCODING 346
SWIDTH 481 0
DWIDTH 23 0
BBX 20 43 1 2
BITMAP
000400
003C00
003C00
01FC00
01F800
01F800
01C000
000000
000000
03F800
0FFF00
0FAF40
7E07E0
7C03E0
F803E0
F003E0
E000E0
F00000
F80000
FC0000
7E0000
3F0000
1FC000
0FE000
07FE00
03FF00
003F80
0007C0
0007E0
0003F0
0000F0
0000F0
000070
E00070
F000F0
F000F0
FC00E0
7E01E0
3E03E0
1FFF80
0FFE00
07FC00
03F800
ENDCHAR
STARTCHAR $015B
ENCODING 347
SWIDTH 370 0
DWIDTH 18 0
BBX 17 35 0 1
BITMAP
000C00
007800
007800
03E000
03E000
03E000
018000
000000
000000
03E000
0FFC00
0FBC00
7E0C00
7C1C00
7C0000
7C0000
7C0000
7E0000
3E0000
1FC000
01F800
00F800
003C00
000F00
000780
000780
E00780
7C0780
7C0780
7C0F00
1C0C00
1C1C00
0FFC00
03F000
03E000
ENDCHAR
STARTCHAR $015C
ENCODING 348
SWIDTH 481 0
DWIDTH 23 0
BBX 20 40 1 4
BITMAP
01F800
03BC00
03BC00
0E0700
0E0300
0E0100
000000
0FFC00
0FFE00
1FFF80
7E07E0
7E07E0
7C03E0
F003E0
E00000
E00000
F00000
FC0000
FC0000
7E0000
1FC000
1FC000
0FFC00
03FF00
003F80
003F80
0003E0
0000F0
0000F0
000070
000070
000070
E00070
E00070
F801F0
FC03E0
7E07E0
1FFFC0
1FFF80
03FC00
ENDCHAR
STARTCHAR $015D
ENCODING 349
SWIDTH 370 0
DWIDTH 18 0
BBX 17 35 0 0
BITMAP
01C000
03E000
03F000
0E3C00
1E1F00
1E0F00
7C1F80
000000
000000
03E000
0FFC00
0FBC00
7E0C00
7C1C00
7C0000
7C0000
7C0000
7E0000
3E0000
1FC000
01F800
00F800
003C00
000F00
000780
000780
E00780
7C0780
7C0780
7C0F00
1C0C00
1C1C00
0FFC00
03F000
03E000
ENDCHAR
STARTCHAR $015E
ENCODING 350
SWIDTH 481 0
DWIDTH 23 0
BBX 20 45 1 -10
BITMAP
03F800
07FF80
0FFF80
1E0780
3E03C0
7E03E0
7C03E0
E000E0
E000C0
E00000
F00000
7A0000
7E0000
1FC000
0FFC00
0FFC00
03FF00
003F80
003F80
0007E0
0003F0
0001F0
0000F0
000070
C00070
E00070
E00070
E000E0
E000E0
7007E0
7C0780
7C0780
7FFF80
03FC00
03FC00
007000
01F800
01FC00
01FC00
000400
000400
000400
01DC00
01F800
00F800
ENDCHAR
STARTCHAR $015F
ENCODING 351
SWIDTH 370 0
DWIDTH 18 0
BBX 14 36 1 -10
BITMAP
1FC0
3FF8
7FF8
FC38
F838
F038
E038
E000
E000
FC00
7F80
3FA0
1FF0
01F8
00FC
007C
000C
001C
000C
E00C
E038
E038
FFF8
FFF8
7FF0
3FE0
0180
03E0
03E0
03E0
03F8
03F8
0038
1E38
1FF0
03E0
ENDCHAR
STARTCHAR $0160
ENCODING 352
SWIDTH 481 0
DWIDTH 23 0
BBX 20 40 1 4
BITMAP
1E0F80
07F800
03F800
03E000
01E000
01E000
000000
0FFC00
0FFE00
1FFF80
7E07E0
7E07E0
7C03E0
F003E0
E00000
E00000
F00000
FC0000
FC0000
7E0000
1FC000
1FC000
0FFC00
03FF00
003F80
003F80
0003E0
0000F0
0000F0
000070
000070
000070
E00070
E00070
F801F0
FC03E0
7E07E0
1FFFC0
1FFF80
03FC00
ENDCHAR
STARTCHAR $0161
ENCODING 353
SWIDTH 370 0
DWIDTH 18 0
BBX 17 35 0 0
BITMAP
7C0F80
3E3F00
1E3F00
0FE000
03E000
03E000
01C000
000000
000000
03E000
0FFC00
0FBC00
7E0C00
7C1C00
7C0000
7C0000
7C0000
7E0000
3E0000
1FC000
01F800
00F800
003C00
000F00
000780
000780
E00780
7C0780
7C0780
7C0F00
1C0C00
1C1C00
0FFC00
03F000
03E000
ENDCHAR
STARTCHAR $0162
ENCODING 354
SWIDTH 444 0
DWIDTH 21 0
BBX 19 45 0 -10
BITMAP
FFFFE0
FFFFE0
FFFFE0
006000
006000
006000
007000
006000
007000
006000
007000
006000
006000
007000
006000
006000
006000
007000
006000
006000
006000
007000
006000
006000
006000
006000
007000
006000
006000
006000
006000
006000
006000
006000
007000
007000
01F800
01F800
01F800
000C00
020C00
020C00
03DC00
01F800
00F800
ENDCHAR
STARTCHAR $0163
ENCODING 355
SWIDTH 333 0
DWIDTH 16 0
BBX 14 45 0 -10
BITMAP
03C0
03C0
03C0
03C0
03C0
03C0
03C0
0FC0
0FC0
FFFC
FFFC
0FE4
0FC0
03C0
03C0
03C0
03C0
03C0
03C0
03C0
03C0
03C0
03C0
03C0
03C0
03C0
03C0
03C0
03C0
03C0
03C0
03C0
03C0
03C0
03C0
0380
03C0
1FE0
1FF0
0038
0E38
0E38
0E30
03E0
03E0
ENDCHAR
STARTCHAR $0164
ENCODING 356
SWIDTH 444 0
DWIDTH 21 0
BBX 19 43 0 2
BITMAP
7E0780
3F0F00
1F9F00
03FC00
01F800
01F800
007000
000000
000000
FFFFE0
FFFFE0
02F440
006000
007000
006000
006000
006000
007000
006000
006000
006000
007000
006000
006000
006000
006000
007000
006000
006000
006000
006000
006000
006000
006000
007000
006000
006000
006000
006000
006000
006000
006000
003000
ENDCHAR
STARTCHAR $0165
ENCODING 357
SWIDTH 333 0
DWIDTH 16 0
BBX 14 35 0 0
BITMAP
03CC
03CC
03CC
03CC
03CC
03CC
03DC
0FC0
0FC0
FFFC
FFFC
0FE4
0FC0
03C0
03C0
03C0
03C0
03C0
03C0
03C0
03C0
03C0
03C0
03C0
03C0
03C0
03C0
03C0
03C0
03C0
03C0
03C0
03C0
03C0
03C0
ENDCHAR
STARTCHAR $0168
ENCODING 360
SWIDTH 666 0
DWIDTH 31 0
BBX 24 43 3 2
BITMAP
004000
03E080
03F080
023F80
021FC0
020FE0
000000
000000
000000
E0000F
E0000F
E0000F
E0000F
E0000F
E0000F
E0000F
E0000F
E0000F
E0000F
E0000F
E0000F
E0000F
E0000F
E0000F
E0000F
E0000F
E0000F
E0000F
E0000F
E0000F
E0000F
E0000F
E0000E
E0001C
F8001C
FC001C
7C001C
7E0030
3E0070
1FFFE0
01FF80
01FF80
01FF00
ENDCHAR
STARTCHAR $0169
ENCODING 361
SWIDTH 592 0
DWIDTH 28 0
BBX 22 35 3 0
BITMAP
018000
07FF80
0FFF80
0E3F00
021E00
020C00
000000
000000
000000
E0001C
E0001C
E0001C
E0001C
E0001C
E0001C
E0001C
E0001C
E0001C
E0001C
E0001C
E0001C
E0001C
E0001C
E0001C
E0001C
E0001C
E0007C
FC007C
FC007C
7E00FC
1E03FC
1E03FC
0FFF9C
03F81C
03F018
ENDCHAR
STARTCHAR $016A
ENCODING 362
SWIDTH 666 0
DWIDTH 31 0
BBX 24 40 3 4
BITMAP
1FFFE0
1FFFE0
1FFFE0
000000
000000
000000
000000
E0000F
E0000F
E0000F
E0000F
E0000F
E0000F
E0000F
E0000F
E0000F
E0000F
E0000F
E0000F
E0000F
E0000F
E0000F
E0000F
E0000F
E0000F
E0000F
E0000F
E0000F
E0000F
E0000F
E0000E
E0000E
F0001C
FC001C
FC001C
7C001C
7E0070
1FFFE0
1FFFE0
03FF80
ENDCHAR
STARTCHAR $016B
ENCODING 363
SWIDTH 592 0
DWIDTH 28 0
BBX 22 33 3 1
BITMAP
1FFFE0
1FFFE0
1FFFE0
000000
000000
000000
000000
E00018
E0001C
E0001C
E0001C
E0001C
E0001C
E0001C
E0001C
E0001C
E0001C
E0001C
E0001C
E0001C
E0001C
E0001C
E0001C
E0001C
F0003C
F0007C
FC007C
7E00FC
3E00FC
1FFF9C
0FFF1C
07FF1C
03F80C
ENDCHAR
STARTCHAR $016C
ENCODING 364
SWIDTH 666 0
DWIDTH 31 0
BBX 24 43 3 2
BITMAP
0383E0
0383E0
0383E0
03FF80
01FF00
01FF00
003000
000000
000000
E0000F
E0000F
E0000F
E0000F
E0000F
E0000F
E0000F
E0000F
E0000F
E0000F
E0000F
E0000F
E0000F
E0000F
E0000F
E0000F
E0000F
E0000F
E0000F
E0000F
E0000F
E0000F
E0000F
E0000E
E0001C
F8001C
FC001C
7C001C
7E0030
3E0070
1FFFE0
01FF80
01FF80
01FF00
ENDCHAR
STARTCHAR $016D
ENCODING 365
SWIDTH 592 0
DWIDTH 28 0
BBX 22 35 3 0
BITMAP
1E0380
1E0780
1E0780
0FFF00
03FE00
03FC00
007000
000000
000000
E0001C
E0001C
E0001C
E0001C
E0001C
E0001C
E0001C
E0001C
E0001C
E0001C
E0001C
E0001C
E0001C
E0001C
E0001C
E0001C
E0001C
E0007C
FC007C
FC007C
7E00FC
1E03FC
1E03FC
0FFF9C
03F81C
03F018
ENDCHAR
STARTCHAR $016E
ENCODING 366
SWIDTH 666 0
DWIDTH 31 0
BBX 24 46 3 0
BITMAP
007800
004400
004400
018700
018780
018780
018780
01C400
01C400
007800
000000
000000
E00002
E0000F
E0000F
E0000F
E0000F
E0000F
E0000F
E0000F
E0000F
E0000F
E0000F
E0000F
E0000F
E0000F
E0000F
E0000F
E0000F
E0000F
E0000F
E0000F
E0000F
E0000F
E0000F
E0000E
F0001C
F0001C
F0001C
7C001C
7E0070
3E0070
1E00F0
0FFFE0
07FFC0
01FF80
ENDCHAR
STARTCHAR $016F
ENCODING 367
SWIDTH 592 0
DWIDTH 28 0
BBX 22 37 3 2
BITMAP
007800
009C00
018C00
038400
038400
038400
019C00
01F800
01F800
000000
000000
000000
E0001C
E0001C
E0001C
E0001C
E0001C
E0001C
E0001C
E0001C
E0001C
E0001C
E0001C
E0001C
E0001C
E0001C
E0001C
E0001C
E0001C
E0007C
F0007C
F8007C
FC007C
7E03FC
3FFFFC
0FFF1C
03F81C
ENDCHAR
STARTCHAR $0170
ENCODING 368
SWIDTH 666 0
DWIDTH 31 0
BBX 24 43 3 4
BITMAP
003C0F
00783E
00787E
01E0FC
01C1F0
01C1F0
018080
000000
000000
E0000F
E0000F
E0000F
E0000F
E0000F
E0000F
E0000F
E0000F
E0000F
E0000F
E0000F
E0000F
E0000F
E0000F
E0000F
E0000F
E0000F
E0000F
E0000F
E0000F
E0000F
E0000F
E0000F
E0000E
E0001C
F8001C
FC001C
7C001C
7E0030
3E0070
1FFFE0
01FF80
01FF80
01FF00
ENDCHAR
STARTCHAR $0171
ENCODING 369
SWIDTH 592 0
DWIDTH 28 0
BBX 22 36 3 1
BITMAP
00000C
00381C
00381C
01E07C
01E0F0
01E0F0
03C3E0
020080
020080
000000
E0001C
E0001C
E0001C
E0001C
E0001C
E0001C
E0001C
E0001C
E0001C
E0001C
E0001C
E0001C
E0001C
E0001C
E0001C
E0001C
E0001C
E0007C
E0007C
F0007C
FC00FC
FC00FC
7E03FC
1FFF9C
1FFF9C
03F81C
ENDCHAR
STARTCHAR $0172
ENCODING 370
SWIDTH 666 0
DWIDTH 31 0
BBX 24 45 3 -10
BITMAP
E0000F
E0000F
E0000F
E0000F
E0000F
E0000F
E0000F
E0000F
E0000F
E0000F
E0000F
E0000F
E0000F
E0000F
E0000F
E0000F
E0000F
E0000F
E0000F
E0000F
E0000F
E0000F
E0000F
E0000E
F0001C
F0001C
FC001C
7C001C
7C0018
7E0070
1E00F0
1E00F0
0FFFE0
01FF80
00FF80
001800
003800
007000
007000
007800
003F00
003F00
001F80
000F80
000F80
ENDCHAR
STARTCHAR $0173
ENCODING 371
SWIDTH 592 0
DWIDTH 28 0
BBX 22 36 3 -10
BITMAP
E0001C
E0001C
E0001C
E0001C
E0001C
E0001C
E0001C
E0001C
E0001C
E0001C
E0001C
E0001C
E0001C
E0001C
E0001C
E0001C
E0001C
F0007C
F8007C
FC007C
7E00FC
3F01FC
1FFF9C
0FFF1C
07F81C
03F818
000070
0000E0
0000E0
000380
0003E0
0003E0
0003F0
0000FC
0000FC
00007C
ENDCHAR
STARTCHAR $0174
ENCODING 372
SWIDTH 962 0
DWIDTH 45 0
BBX 43 43 0 2
BITMAP
00000F000000
00001F800000
00001FC00000
00007DE00000
0000F0E00000
0000F0600000
0003E03C0000
000000000000
000000000000
E0000F0001C0
70000F0001E0
78000F0001E0
7C001F0001E0
7C001FC001E0
1C001FC001C0
1C001FC001C0
1E001FC00700
1E0077C00700
1E0073C00700
1E0070E00700
1E0070E00E00
1F0070E00E00
0F8070E00E00
0380F0E00E00
0381E0F00E00
0383E0780E00
0383E0380E00
01C3E0381C00
01C3E0383800
01C3E0383800
01C3803C3800
01C3803C3800
01C7801F7800
01C7801F7000
00E7801F7000
0077001F7000
007F001F7000
007E000FF000
007C0007F000
003C0007E000
003C0007E000
003C0007E000
001C0003E000
ENDCHAR
STARTCHAR $0175
ENCODING 373
SWIDTH 814 0
DWIDTH 38 0
BBX 37 35 0 0
BITMAP
00007C0000
0000FE0000
0000FE0000
000F830000
000701C000
000701C000
0000000000
0000000000
0000000000
E000000038
7000000038
7800000030
7C00700070
7C007C0070
1E00FC0070
1E00FC0070
1E00FC0060
0E01FC00E0
0603FC00E0
0383EF00E0
03838F0780
03838F0780
03838F0780
03878F0780
01C7878780
01C783C780
01C403DF00
01FC03DC00
01FC03DC00
007C01D800
007C00D800
007C00D800
007800F800
003800F800
0010007000
ENDCHAR
STARTCHAR $0176
ENCODING 374
SWIDTH 592 0
DWIDTH 28 0
BBX 27 43 0 2
BITMAP
000C0000
003F8000
003F8000
00638000
01E0C000
01E0E000
03C07C00
00000000
00000000
FC0003E0
7C0003C0
7E0003C0
7E0003C0
1E000F00
1E001F00
1E001F00
0F801E00
03801C00
03803C00
03C07C00
01C07000
01C07000
01E0E000
01E3E000
00FBE000
007BE000
007F8000
003F8000
003F8000
000F0000
000C0000
000C0000
000C0000
000C0000
001C0000
000C0000
000C0000
000C0000
000C0000
000C0000
000C0000
000C0000
001C0000
ENDCHAR
STARTCHAR $0177
ENCODING 375
SWIDTH 518 0
DWIDTH 24 0
BBX 24 43 0 -8
BITMAP
003C00
007F80
007F80
03E380
03C0C0
03C0E0
000000
000000
000000
FC000F
7C001F
7C001E
7C001E
1C001C
1E001C
1E0018
1E0070
0F0070
078070
0383E0
0383E0
0383E0
01C3E0
01C7E0
01C7C0
01C780
01F780
00FF00
007F00
007C00
003C00
003C00
003800
003800
007800
007800
006000
006000
006000
01C000
01C000
01C000
01C000
ENDCHAR
STARTCHAR $0178
ENCODING 376
SWIDTH 592 0
DWIDTH 28 0
BBX 27 43 0 2
BITMAP
0063E000
0063E000
0063E000
0063E000
0060E000
0060E000
00000000
00000000
00000000
FC0003E0
7C0003C0
7E0003C0
7E0003C0
1E000F00
1E001F00
1E001F00
0F801E00
03801C00
03803C00
03C07C00
01C07000
01C07000
01E0E000
01E3E000
00FBE000
007BE000
007F8000
003F8000
003F8000
000F0000
000C0000
000C0000
000C0000
000C0000
001C0000
000C0000
000C0000
000C0000
000C0000
000C0000
000C0000
000C0000
001C0000
ENDCHAR
STARTCHAR $0179
ENCODING 377
SWIDTH 481 0
DWIDTH 23 0
BBX 22 43 0 4
BITMAP
000780
003F80
003F80
007C00
007800
007800
004000
000000
000000
7FFFF0
7FFFF0
02A470
000070
0000F0
0001E0
0003E0
0003E0
000780
000780
000F80
000F00
001E00
000C00
003C00
003800
003800
007000
01E000
01E000
01E000
03C000
03C000
03C000
0F8000
1F0000
1E0000
7E0000
7C0000
7C0000
FFFFFC
FFFFFC
FFFFFC
FFFFFC
ENDCHAR
STARTCHAR $017A
ENCODING 378
SWIDTH 407 0
DWIDTH 19 0
BBX 19 36 0 1
BITMAP
000400
003F80
003F80
007C00
01F800
01F800
01F000
018000
010000
000000
1FFFE0
3FFFE0
7FFFE0
000780
000700
000700
000F00
003E00
003C00
003C00
007800
00F800
01E000
01E000
01C000
01C000
038000
078000
0F0000
7E0000
7C0000
7C0000
7C0000
FFFFE0
FFFFE0
FFFFE0
ENDCHAR
STARTCHAR $017B
ENCODING 379
SWIDTH 481 0
DWIDTH 23 0
BBX 22 43 0 2
BITMAP
003800
003800
003800
003800
001800
000800
000000
000000
000000
7FFFF0
7FFFF0
02A470
000070
0000F0
0001E0
0003E0
0003E0
000780
000780
000F80
000F00
001E00
000C00
003C00
003800
003800
007000
01E000
01E000
01E000
03C000
03C000
03C000
0F8000
1F0000
1E0000
7E0000
7C0000
7C0000
FFFFFC
FFFFFC
FFFFFC
FFFFFC
ENDCHAR
STARTCHAR $017C
ENCODING 380
SWIDTH 407 0
DWIDTH 19 0
BBX 19 35 0 0
BITMAP
006000
006000
006000
006000
006000
006000
000000
000000
000000
7FFFE0
7FFFE0
02AFC0
000780
000700
000E00
001C00
003C00
003800
003800
006000
01E000
01F000
01E000
01C000
038000
038000
1F8000
3E0000
7E0000
7C0000
7C0000
7C0000
FFFFE0
FFFFE0
FFFFC0
ENDCHAR
STARTCHAR $017D
ENCODING 381
SWIDTH 481 0
DWIDTH 23 0
BBX 22 43 0 2
BITMAP
1F83E0
07CFC0
03DF80
03FF00
01FE00
01FC00
003800
000000
000000
7FFFF0
7FFFF0
02A470
000070
0000F0
0001E0
0003E0
0003E0
000780
000780
000F80
000F00
001E00
000C00
003C00
003800
003800
007000
01E000
01E000
01E000
03C000
03C000
03C000
0F8000
1F0000
1E0000
7E0000
7C0000
7C0000
FFFFFC
FFFFFC
FFFFFC
FFFFFC
ENDCHAR
STARTCHAR $017E
ENCODING 382
SWIDTH 407 0
DWIDTH 19 0
BBX 19 35 0 0
BITMAP
7E0F80
073F00
03BF00
03FC00
01F800
01F800
000000
000000
000000
7FFFE0
7FFFE0
02AFC0
000780
000700
000E00
001C00
003C00
003800
003800
006000
01E000
01F000
01E000
01C000
038000
038000
1F8000
3E0000
7E0000
7C0000
7C0000
7C0000
FFFFE0
FFFFE0
FFFFC0
ENDCHAR
STARTCHAR $017F
ENCODING 383
SWIDTH 296 0
DWIDTH 14 0
BBX 13 35 0 0
BITMAP
0038
00F8
01F8
03E0
03C0
03C0
0380
0F80
0F80
FF80
FF80
0F80
0F80
0380
0380
0380
0380
0380
0380
0380
0380
0380
0380
0380
0380
0380
0380
0380
0380
0380
0380
0380
0380
0380
0300
ENDCHAR
STARTCHAR $018E
ENCODING 398
SWIDTH 518 0
DWIDTH 24 0
BBX 19 35 3 0
BITMAP
FFFFE0
FFFFE0
FFFFE0
0003E0
0003E0
0003E0
0003E0
0003E0
0003E0
0003E0
0003E0
0003E0
0003E0
0003E0
FFFFE0
FFFFE0
FFFFE0
FFFFE0
FFFFE0
0003E0
0003E0
0003E0
0003E0
0003E0
0003E0
0003E0
0003E0
0003E0
0003E0
0003E0
0003E0
0003E0
FFFFE0
FFFFE0
FFFFC0
ENDCHAR
STARTCHAR $0192
ENCODING 402
SWIDTH 555 0
DWIDTH 26 0
BBX 24 45 1 -6
BITMAP
00001F
00003F
00007F
0000E0
0001E0
0003E0
000780
000780
000780
000780
007FFC
00FFFC
01FFFC
001F00
000E00
000C00
000C00
001C00
000C00
000C00
000800
001800
000800
003800
003800
003800
003800
003800
003800
002000
006000
006000
006000
006000
007000
006000
006000
01C000
01C000
01C000
FF8000
FF8000
FF8000
FE0000
FE0000
ENDCHAR
STARTCHAR $01A0
ENCODING 416
SWIDTH 851 0
DWIDTH 40 0
BBX 36 35 1 0
BITMAP
0007FF0070
007FFFE070
007FFFE070
01E001FC70
01E000FFE0
01E0007FE0
03C0001FE0
1E000007E0
1E000007E0
7E000003E0
7C000000E0
7C000000E0
7C000000F0
F000000070
E000000070
E000000070
E000000070
E000000070
E000000070
E000000070
7C00000070
7C00000070
7C000000F0
7C000000E0
7E00000180
3E00000380
1F80000780
03C0000F80
03C0001F80
01E000FF00
01F801F800
01F801F000
007FFFC000
001FFE0000
000FFE0000
ENDCHAR
STARTCHAR $01A1
ENCODING 417
SWIDTH 666 0
DWIDTH 31 0
BBX 29 26 1 0
BITMAP
007FE038
03FFF830
03FFFC20
0FC07FE0
1E003FE0
1E001FE0
7C000FC0
7C0007C0
7C0003C0
FC0003C0
F00003E0
E00001E0
E00001E0
E00001C0
F00003C0
F00003C0
FC0003C0
7C0003C0
7C0007C0
7E000F00
1F801F00
1F803F00
0FFFFE00
03FFFC00
00FFE000
007FE000
ENDCHAR
STARTCHAR $01AF
ENCODING 431
SWIDTH 703 0
DWIDTH 33 0
BBX 29 35 3 0
BITMAP
E0000F38
E0000F30
E0000FA0
E0000FE0
E0000FE0
E0000FE0
E0000FC0
E0000F80
E0000F00
E0000F00
E0000F00
E0000F00
E0000F00
E0000F00
E0000F00
E0000F00
E0000F00
E0000F00
E0000F00
E0000F00
E0000F00
E0000F00
E0000F00
E0000E00
F0001C00
F0001C00
FC001C00
7C001C00
7C001800
7E00F000
1E03F000
1E03F000
0FFFE000
01FC0000
00FC0000
ENDCHAR
STARTCHAR $01B0
ENCODING 432
SWIDTH 666 0
DWIDTH 31 0
BBX 27 26 3 0
BITMAP
E0001CE0
E0001CE0
E0001CE0
E0001FC0
E0001FC0
E0001FC0
E0001FC0
E0001F80
E0001F00
E0001C00
E0001C00
E0001C00
E0001C00
E0001C00
E0001C00
E0001C00
E0001C00
F0007C00
F8007C00
FC007C00
7E00FC00
3F01FC00
1FFF9C00
0FFF1C00
07F81C00
03F81800
ENDCHAR
STARTCHAR $01CD
ENCODING 461
SWIDTH 740 0
DWIDTH 35 0
BBX 32 43 1 2
BITMAP
01E01C00
00383800
00387000
000FE000
0007E000
0007E000
00038000
00000000
00000000
00078000
000FE000
000FE000
000FE000
001C7000
00387000
00387000
00387000
00787000
00787000
00601C00
00601C00
00F01C00
01E00E00
01C00F00
01C00F00
01C00F80
03800FC0
03FFFFC0
03FFFFC0
0FFFFFC0
1FFFFFC0
1FFFFFC0
1E0000E0
1E0000E0
3E000070
7C000038
7C000038
E000003C
E000003C
E000001F
E000001F
E000000E
E0000004
ENDCHAR
STARTCHAR $01CE
ENCODING 462
SWIDTH 666 0
DWIDTH 31 0
BBX 27 35 1 0
BITMAP
03C07C00
01E0E000
01F0E000
003F8000
001F0000
000F0000
001C0000
00000000
00000000
007FE0E0
03FFFCE0
07A47CE0
1F801FE0
7E000FE0
7C0007E0
7C0003E0
7C0003E0
FC0003E0
FC0003E0
E00000E0
E00000E0
E00000E0
E00000E0
F00001E0
F80003E0
FC0003E0
7C0003E0
7E000FE0
3E000FE0
1F801FE0
0FC07CE0
07C078E0
03FFF0E0
007FE0E0
007FC060
ENDCHAR
STARTCHAR $01CF
ENCODING 463
SWIDTH 222 0
DWIDTH 11 0
BBX 14 43 -1 2
BITMAP
E03C
7870
3C60
1FE0
0FC0
0FC0
0380
0000
0000
0380
0380
0380
0380
0380
0380
0380
0380
0380
0380
0380
0380
0380
0380
0380
0380
0380
0380
0380
0380
0380
0380
0380
0380
0380
0380
0380
0380
0380
0380
0380
0380
0380
0380
ENDCHAR
STARTCHAR $01D0
ENCODING 464
SWIDTH 185 0
DWIDTH 9 0
BBX 14 35 -3 0
BITMAP
FC3C
3E78
1E78
0FE0
03E0
03E0
0000
0000
0000
01C0
01C0
01C0
01C0
01C0
01C0
01C0
01C0
01C0
01C0
01C0
01C0
01C0
01C0
01C0
01C0
01C0
01C0
01C0
01C0
01C0
01C0
01C0
01C0
01C0
00C0
ENDCHAR
STARTCHAR $01D1
ENCODING 465
SWIDTH 851 0
DWIDTH 40 0
BBX 36 40 1 4
BITMAP
000C0FC000
0007FE0000
0007FE0000
0003FC0000
0000F00000
0000F00000
0000000000
0007FF0000
0007FF8000
007FFFE000
01F001FC00
03E0003E00
03C0001F00
0E00000780
1E000003C0
1E000003E0
7E000003E0
7C000001F0
7C000000F0
7C000000F0
F000000070
F000000070
E000000070
E000000070
E000000070
E000000070
E000000070
7C00000070
7C00000070
7C000000F0
7C000000E0
7C000001E0
7E000003E0
1F800007E0
1FE0000FC0
03E0001F00
01E000FC00
00FFFFF000
007FFFE000
000FFF0000
ENDCHAR
STARTCHAR $01D2
ENCODING 466
SWIDTH 666 0
DWIDTH 31 0
BBX 27 35 1 0
BITMAP
03C07C00
01E0E000
01F0E000
003F8000
001F0000
000F0000
001C0000
00000000
00000000
007FE000
03FFFC00
07A47C00
1F801E00
7E000FC0
7C0007C0
7C0003C0
7C0003C0
FC0003C0
FC0003C0
E00003E0
E00000E0
E00000E0
E00001C0
F00003C0
F80003C0
FC0003C0
7C0003C0
7E000F80
3E000F00
1F801F00
0FC07E00
07C07E00
03FFFC00
007FE000
007FC000
ENDCHAR
STARTCHAR $01D3
ENCODING 467
SWIDTH 666 0
DWIDTH 31 0
BBX 24 43 3 2
BITMAP
1F83E0
07C7C0
03C780
007F00
007E00
007C00
003800
000000
000000
E0000F
E0000F
E0000F
E0000F
E0000F
E0000F
E0000F
E0000F
E0000F
E0000F
E0000F
E0000F
E0000F
E0000F
E0000F
E0000F
E0000F
E0000F
E0000F
E0000F
E0000F
E0000F
E0000F
E0000E
E0001C
F8001C
FC001C
7C001C
7E0030
3E0070
1FFFE0
01FF80
01FF80
01FF00
ENDCHAR
STARTCHAR $01D4
ENCODING 468
SWIDTH 592 0
DWIDTH 28 0
BBX 22 35 3 0
BITMAP
1E0780
07CF00
03DF00
03FC00
01F800
01F800
000000
000000
000000
E0001C
E0001C
E0001C
E0001C
E0001C
E0001C
E0001C
E0001C
E0001C
E0001C
E0001C
E0001C
E0001C
E0001C
E0001C
E0001C
E0001C
E0007C
FC007C
FC007C
7E00FC
1E03FC
1E03FC
0FFF9C
03F81C
03F018
ENDCHAR
STARTCHAR $01D7
ENCODING 471
SWIDTH 666 0
DWIDTH 31 0
BBX 24 52 3 1
BITMAP
0007E0
003FC0
003F80
007C00
007800
007800
007000
000000
000000
01C780
01C780
01C780
01C780
000000
000000
000000
000000
E0000F
E0000F
E0000F
E0000F
E0000F
E0000F
E0000F
E0000F
E0000F
E0000F
E0000F
E0000F
E0000F
E0000F
E0000F
E0000F
E0000F
E0000F
E0000F
E0000F
E0000F
E0000F
E0000F
E0001E
E0001E
F0001C
FC001C
FC001C
7C001C
7E0070
3FFFE0
1FFFE0
03FF80
01FF00
01FF00
ENDCHAR
STARTCHAR $01D8
ENCODING 472
SWIDTH 592 0
DWIDTH 28 0
BBX 22 45 3 1
BITMAP
000780
000F80
001F80
003F00
01FE00
01FC00
01F000
000000
000000
000000
038C00
038C00
038C00
039C00
000000
000000
000000
000000
000000
E0001C
E0001C
E0001C
E0001C
E0001C
E0001C
E0001C
E0001C
E0001C
E0001C
E0001C
E0001C
E0001C
E0001C
E0001C
E0001C
E0001C
F0007C
F0007C
F0007C
7C00FC
1FFF9C
1FFF9C
0FFF1C
03F81C
03F818
ENDCHAR
STARTCHAR $01D9
ENCODING 473
SWIDTH 666 0
DWIDTH 31 0
BBX 24 52 3 0
BITMAP
1F83E0
07C7C0
03C780
007F00
007E00
007C00
003800
000000
000000
01C780
01C780
01C780
01C780
000000
000000
000000
000000
E0000F
E0000F
E0000F
E0000F
E0000F
E0000F
E0000F
E0000F
E0000F
E0000F
E0000F
E0000F
E0000F
E0000F
E0000F
E0000F
E0000F
E0000F
E0000F
E0000F
E0000F
E0000F
E0000F
E0001E
E0001E
F0001C
FC001C
FC001C
7C001C
7E0070
3FFFE0
1FFFE0
03FF80
01FF00
01FF00
ENDCHAR
STARTCHAR $01DA
ENCODING 474
SWIDTH 592 0
DWIDTH 28 0
BBX 22 43 3 2
BITMAP
1F8780
07CF00
03DF00
03FC00
01F800
01F800
000000
000000
000000
038C00
039C00
038C00
038C00
000000
000000
000000
000000
E00018
E0001C
E0001C
E0001C
E0001C
E0001C
E0001C
E0001C
E0001C
E0001C
E0001C
E0001C
E0001C
E0001C
E0001C
E0001C
E0001C
F0003C
F0007C
FC007C
7E00FC
3E00FC
1FFF9C
0FFE1C
07FC1C
03F81C
ENDCHAR
STARTCHAR $01DB
ENCODING 475
SWIDTH 666 0
DWIDTH 31 0
BBX 24 52 3 1
BITMAP
03C000
01E000
01F000
007C00
007C00
007C00
001800
000000
000000
01C780
01C780
01C780
01C780
000000
000000
000000
000000
E0000F
E0000F
E0000F
E0000F
E0000F
E0000F
E0000F
E0000F
E0000F
E0000F
E0000F
E0000F
E0000F
E0000F
E0000F
E0000F
E0000F
E0000F
E0000F
E0000F
E0000F
E0000F
E0000F
E0001E
E0001E
F0001C
FC001C
FC001C
7C001C
7E0070
3FFFE0
1FFFE0
03FF80
01FF00
01FF00
ENDCHAR
STARTCHAR $01DC
ENCODING 476
SWIDTH 592 0
DWIDTH 28 0
BBX 22 45 3 1
BITMAP
020000
07C000
0FC000
03E000
01F800
01F800
007800
000000
000000
000000
038C00
038C00
038C00
039C00
000000
000000
000000
000000
000000
E0001C
E0001C
E0001C
E0001C
E0001C
E0001C
E0001C
E0001C
E0001C
E0001C
E0001C
E0001C
E0001C
E0001C
E0001C
E0001C
E0001C
F0007C
F0007C
F0007C
7C00FC
1FFF9C
1FFF9C
0FFF1C
03F81C
03F818
ENDCHAR
STARTCHAR $01DD
ENCODING 477
SWIDTH 666 0
DWIDTH 31 0
BBX 26 26 1 0
BITMAP
007FE000
03FFF000
03FFF000
0FC0FE00
1E007F00
1E007F00
7C000F00
700007C0
300003C0
000003C0
000003C0
02A447C0
FFFFFFC0
FFFFFFC0
F80007C0
F00003C0
F00003C0
7C0003C0
7C0007C0
7E000F00
1F801F00
1F803F00
0FFFF000
03FFF000
00FFE000
007FE000
ENDCHAR
STARTCHAR $01E6
ENCODING 486
SWIDTH 888 0
DWIDTH 41 0
BBX 36 40 1 4
BITMAP
000C0FC000
0007FE0000
0007FE0000
0003FC0000
0000F00000
0000F00000
0000000000
0007FF0000
0007FF8000
007FFFF800
01F001FC00
03E0003E00
03C0001F00
0E00000780
1E000003C0
1E000003E0
7E000000E0
7C00000000
7C00000000
7C00000000
F000000000
F000000000
E000000000
E000000000
E000000000
E000000000
E007FFFFF0
FC07FFFFF0
FC07FFFFF0
7C000000F0
7C000000E0
7C000000E0
7E000000E0
1E000003E0
1FE0000FC0
03E0001F00
01E0003C00
00FFFFF800
007FFFF800
0007FF0000
ENDCHAR
STARTCHAR $01E7
ENCODING 487
SWIDTH 666 0
DWIDTH 31 0
BBX 26 45 1 -10
BITMAP
03C07000
01E0E000
01F0E000
007F8000
007F0000
007F0000
003C0000
00000000
00000000
007FE3C0
03FFF3C0
07A47FC0
1F807FC0
7E000FC0
7C0007C0
7C0003C0
700003C0
E00003C0
E00003C0
E00003C0
E00003C0
E00003C0
E00003C0
F00003C0
F80003C0
FC0003C0
7C0003C0
7E000FC0
3E000FC0
1F801FC0
0FC07FC0
07C07FC0
03FFF3C0
007F83C0
387F83C0
7C0003C0
7C0003C0
1E000F80
1E000F00
1FC01F00
0FFFFE00
07FFFE00
03FFFC00
003FE000
003FC000
ENDCHAR
STARTCHAR $01EA
ENCODING 490
SWIDTH 851 0
DWIDTH 40 0
BBX 36 45 1 -10
BITMAP
0007FF0000
007FFFE000
007FFFE000
01E001FC00
01E000FE00
01E0007F00
03C0001F80
1E000007C0
1E000007E0
7E000003E0
7C000000E0
7C000000E0
7C000000F0
F000000070
E000000070
E000000070
E000000070
E000000070
E000000070
E000000070
7C00000070
7C00000070
7C000000F0
7C000000E0
7E00000180
3E00000380
1F80000780
03C0000F80
03C0001F80
01E000FF00
01F801F800
01F801F000
007FFFC000
001FFE0000
000FFE0000
00001C0000
0000700000
0000E00000
0000E00000
0003F00000
0000FE0000
0000FE0000
00007F0000
00001E0000
00001E0000
ENDCHAR
STARTCHAR $01EB
ENCODING 491
SWIDTH 666 0
DWIDTH 31 0
BBX 27 36 1 -10
BITMAP
007FE000
03FFF800
03FFFC00
0FC07E00
1E003F00
1E001F80
7C000FC0
7C0007C0
7C0003C0
FC0003C0
F00003E0
E00001E0
E00001E0
E00001C0
F00003C0
F00003C0
FC0003C0
7C0003C0
7C0007C0
7E000F00
1F801F00
1F803F00
0FFFFE00
03FFFC00
00FFE000
007FE000
00078000
000F0000
000F0000
000C0000
000C0000
000E0000
000F0000
000FE000
000FE000
0003E000
ENDCHAR
STARTCHAR $01F0
ENCODING 496
SWIDTH 185 0
DWIDTH 9 0
BBX 13 43 -1 -8
BITMAP
E078
78F0
3DE0
1FE0
0FC0
0FC0
0000
0000
0000
0380
0380
0380
0380
0380
0380
0380
0380
0380
0380
0380
0380
0380
0380
0380
0380
0380
0380
0380
0380
0380
0380
0380
0380
0380
0780
0F80
1E00
1E00
1E00
FC00
F000
F000
E000
ENDCHAR
STARTCHAR $01F4
ENCODING 500
SWIDTH 888 0
DWIDTH 41 0
BBX 36 43 1 2
BITMAP
0000030000
00001F8000
00001FC000
0000FE0000
0001FC0000
0001F80000
0000E00000
0000000000
0000000000
0007FF0000
007FFFF800
00F445F800
01E001FC00
03F0003F00
0600001F80
0E00001F80
1E000007E0
3E000003E0
7E000003C0
7C00000000
7C00000000
7800000000
F000000000
E000000000
E000000000
E000000000
E000000000
E007FFFFF0
E007FFFFF0
F007FFFFF0
FC03FFFFF0
FC01FFFFF0
7C000000E0
7E000000E0
3E000001E0
0E000003C0
03C0001F80
01E0003F00
01F0003F00
007FFFF800
0007FF8000
0007FF0000
0003FE0000
ENDCHAR
STARTCHAR $01F5
ENCODING 501
SWIDTH 666 0
DWIDTH 31 0
BBX 26 45 1 -9
BITMAP
0003E000
000FE000
000FE000
000F0000
003E0000
003C0000
00380000
00000000
00000000
007FE3C0
03FFF3C0
07A47FC0
1F807FC0
7E000FC0
7C0007C0
7C0003C0
700003C0
E00003C0
E00003C0
E00003C0
E00003C0
E00003C0
E00003C0
F00003C0
F80003C0
FC0003C0
7C0003C0
7E000FC0
3E000FC0
1F801FC0
0FC07FC0
07C07FC0
03FFF3C0
007F83C0
387F83C0
7C0003C0
7C0003C0
1E000F80
1E000F00
1FC01F00
0FFFFE00
07FFFE00
03FFFC00
003FE000
003FC000
ENDCHAR
STARTCHAR $01FA
ENCODING 506
SWIDTH 740 0
DWIDTH 35 0
BBX 32 55 1 1
BITMAP
00001C00
0000FC00
0000F800
0003E000
0007E000
0007E000
001C0000
00000000
00000000
0007E000
0008E000
00186000
00387000
00387000
00186000
00086000
0008E000
001FE000
000FC000
00000000
00078000
0007C000
0007E000
000FE000
000FE000
001FE000
00387000
00387000
00387000
00787000
00781800
00781C00
00601C00
00601E00
00E01F00
01C00F00
01C00F00
03800FC0
03800FC0
03FFFFC0
0FFFFFC0
0FFFFFC0
1FFFFFC0
1E0000E0
1E0000E0
1E0000E0
7C000038
7C000038
7C000038
F000003C
E000003E
E000003F
E000001F
E000001C
E000000C
ENDCHAR
STARTCHAR $01FB
ENCODING 507
SWIDTH 666 0
DWIDTH 31 0
BBX 27 45 1 1
BITMAP
00007000
0007E000
0007E000
000F8000
003F0000
003F0000
00380000
00000000
00000000
003F8000
00738000
0063C000
0043E000
00738000
007C0000
007C0000
000C0000
00000000
00000000
007FE0E0
03FFF8E0
07FFFCE0
0F801FE0
1F801FE0
3F000FE0
7E000FE0
7C0003E0
FC0003E0
FC0003E0
F00001E0
E00000E0
E00000E0
E00000E0
E00001E0
F80003E0
FC0003E0
7C0003E0
7E000FE0
3E000FE0
1F801CE0
0FFFF0E0
07FFF0E0
03FFF0E0
007FE0E0
007FC060
ENDCHAR
STARTCHAR $01FC
ENCODING 508
SWIDTH 1000 0
DWIDTH 46 0
BBX 40 43 1 4
BITMAP
0000001F00
0000007F00
000000FF00
000001F800
000003F000
000003E000
0000030000
0000000000
0000000000
000003FFFF
00000FFFFF
00000FF020
00001FE000
00001FE000
00001CE000
000018E000
000070E000
0000F0E000
0000F0E000
0003E0E000
0007E0E000
0007C0E000
000780E000
000F00E000
000E00FFFF
001C00FFFF
003C00FFFF
007800F000
00F800E000
01FFFFE000
01FFFFE000
01FFFFE000
03FFFFE000
0FC000E000
1FC000E000
1F8000E000
1E0000E000
3E0000E000
7E0000E000
FC0000FFFF
F00000FFFF
F00000FFFF
E00000FFFF
ENDCHAR
STARTCHAR $01FD
ENCODING 509
SWIDTH 1148 0
DWIDTH 53 0
BBX 49 35 1 1
BITMAP
0000001F000000
0000007F000000
000000FF000000
000001F8000000
000003F0000000
000003E0000000
00000300000000
00000000000000
00000000000000
007FE0E07FE000
03FFFCE3FFF800
07A47CF3E0F800
1F801FFF80FC00
7E000FF8000600
7C0007F8000380
7C0003F8000380
7C0001F8000380
FC0000E0000380
FC0000F0000380
E00000FFFFFF80
E00000FFFFFF80
E00000FFFFFF00
E00000E0000000
F00001E0000000
F80003E0000000
FC0003E0000000
7C0003F8000780
7E000FFC000700
3E000FFC000E00
1F801FFF803C00
0FC07FFF80FC00
07C07FFF80FC00
03FFF0E7FFF800
007FE0E07F0000
007FC0603F0000
ENDCHAR
STARTCHAR $01FE
ENCODING 510
SWIDTH 851 0
DWIDTH 40 0
BBX 36 46 1 -3
BITMAP
0000030000
00001F0000
00001F0000
0000FE0000
0001FC0000
0001F80000
0000E00080
00000003C0
00000003C0
000FFF0780
007FFFFF00
00F445FF00
01E001FF00
03F0003F00
0600007F80
0E0000FF80
1E0001E7E0
3E0003C3E0
7E0007C3E0
7C000FC0F0
7C000F8070
78000F0070
F0001E0070
E0001C0070
E000380070
E000700070
E003F00070
E007E00070
E007E00070
7007800070
7C070000F0
7C070000F0
7C0C0000E0
7E380003E0
3E780007E0
0E780007C0
03E0001F80
01E0007F00
01F000FF00
03FFFFE000
0F9FFF8000
0F8FFF0000
1F9FFE0000
3E00000000
3E00000000
1C00000000
ENDCHAR
STARTCHAR $01FF
ENCODING 511
SWIDTH 666 0
DWIDTH 31 0
BBX 26 35 1 3
BITMAP
0003F000
0007E000
0007E000
000F0000
003E0000
003C0000
00380000
00000300
00000780
007FEFC0
03FFFF00
07A47F00
1F801F00
7E007F00
7C00E700
7C00E380
7C03E3C0
FC07E3C0
FC07C3C0
E00F83C0
E00F03C0
E01E03C0
E00C03C0
E03803C0
F07003C0
F06003C0
7DF003C0
7FC00F80
3FC00F00
1F801F00
1FC07E00
1FC07E00
1FFFFC00
7C7FE000
387FC000
ENDCHAR
STARTCHAR $0200
ENCODING 512
SWIDTH 740 0
DWIDTH 35 0
BBX 32 43 1 4
BITMAP
1E0C0000
07C7C000
03C7E000
03E3F000
01E0F000
01E0F000
00301000
00000000
00000000
00078000
000FE000
000FE000
000FE000
001C7000
00387000
00387000
00387000
00787000
00787000
00601C00
00601C00
00F01C00
01E00E00
01C00F00
01C00F00
01C00F80
03800FC0
03FFFFC0
03FFFFC0
0FFFFFC0
1FFFFFC0
1FFFFFC0
1E0000E0
1E0000E0
3E000070
7C000038
7C000038
E000003C
E000003C
E000001F
E000001F
E000000E
E0000004
ENDCHAR
STARTCHAR $0201
ENCODING 513
SWIDTH 666 0
DWIDTH 31 0
BBX 27 35 1 0
BITMAP
7C380000
7E3C0000
3E3C0000
0F878000
0383C000
0381E000
01C0E000
00000000
00000000
007FE0E0
03FFFCE0
07A47CE0
1F801FE0
7E000FE0
7C0007E0
7C0003E0
7C0003E0
FC0003E0
FC0003E0
E00000E0
E00000E0
E00000E0
E00000E0
F00001E0
F80003E0
FC0003E0
7C0003E0
7E000FE0
3E000FE0
1F801FE0
0FC07CE0
07C078E0
03FFF0E0
007FE0E0
007FC060
ENDCHAR
STARTCHAR $0204
ENCODING 516
SWIDTH 518 0
DWIDTH 24 0
BBX 22 45 0 1
BITMAP
002000
F83800
FC3800
7C0C00
7E0700
3E0700
0383E0
018080
010080
000000
0FFFFC
0FFFFC
1FFFFC
1E0000
1E0000
1E0000
1E0000
1E0000
1E0000
1E0000
1E0000
1E0000
1E0000
1E0000
1E0000
1E0000
1FFFFC
1FFFFC
1FFFF8
1E0000
1E0000
1E0000
1E0000
1E0000
1E0000
1E0000
1E0000
1E0000
1E0000
1E0000
1FFFF8
1FFFFC
1FFFFC
0FFFFC
07FFF8
ENDCHAR
STARTCHAR $0205
ENCODING 517
SWIDTH 666 0
DWIDTH 31 0
BBX 26 35 1 0
BITMAP
7C380000
7E3C0000
3E3C0000
1F878000
0F83C000
0F81E000
01C0E000
00000000
00000000
007FE000
03FFFC00
07A47C00
1F801E00
7E000F00
7C000700
7C000380
700003C0
F00003C0
F80007C0
FFFFFFC0
FFFFFFC0
FFFFFF80
F0000000
E0000000
F0000000
F0000000
7C0003C0
7E000F80
3E000F00
1F801E00
0FC07C00
07C07800
03FFF000
007F8000
007F8000
ENDCHAR
STARTCHAR $0208
ENCODING 520
SWIDTH 222 0
DWIDTH 11 0
BBX 17 43 -7 4
BITMAP
E07800
7E3C00
3E3C00
1F8700
0F8380
0F8180
018080
000000
000000
003800
003800
003800
003800
003800
003800
003800
003800
003800
003800
003800
003800
003800
003800
003800
003800
003800
003800
003800
003800
003800
003800
003800
003800
003800
003800
003800
003800
003800
003800
003800
003800
003800
001800
ENDCHAR
STARTCHAR $0209
ENCODING 521
SWIDTH 185 0
DWIDTH 9 0
BBX 19 36 -9 1
BITMAP
600000
F80800
FC0800
7C0F00
7E0780
3E0780
03C3E0
018060
010000
000000
000C00
000C00
000C00
001C00
000C00
000C00
000C00
001C00
000C00
000C00
000C00
001C00
000C00
000C00
000C00
000C00
001C00
000C00
000C00
000C00
000C00
000C00
000C00
000C00
001C00
000C00
ENDCHAR
STARTCHAR $020C
ENCODING 524
SWIDTH 851 0
DWIDTH 40 0
BBX 36 43 1 2
BITMAP
0183E00000
01E3F00000
01F3F00000
00787E0000
007C3F0000
007C1F0000
001C0F0000
0000000000
0000000000
0007FF0000
007FFFE000
00F445F000
01E001FC00
03F0003F00
0600001F80
0E00001F80
1E000007E0
3E000003E0
7E000003E0
7C000000F0
7C00000070
7800000070
F000000070
E000000070
E000000070
E000000070
E000000070
E000000070
E000000070
7000000070
7C000000F0
7C000000F0
7C000000E0
7E000003E0
3F000007E0
0F800007C0
03C0001F80
01E0007F00
01F000FF00
007FFFE000
001FFF8000
000FFF0000
001FFE0000
ENDCHAR
STARTCHAR $020D
ENCODING 525
SWIDTH 666 0
DWIDTH 31 0
BBX 27 35 1 0
BITMAP
7C380000
7E3C0000
3E3C0000
0F878000
0383C000
0381E000
01C0E000
00000000
00000000
007FE000
03FFFC00
07A47C00
1F801E00
7E000FC0
7C0007C0
7C0003C0
7C0003C0
FC0003C0
FC0003C0
E00003E0
E00000E0
E00000E0
E00001C0
F00003C0
F80003C0
FC0003C0
7C0003C0
7E000F80
3E000F00
1F801F00
0FC07E00
07C07E00
03FFFC00
007FE000
007FC000
ENDCHAR
STARTCHAR $0210
ENCODING 528
SWIDTH 592 0
DWIDTH 28 0
BBX 26 43 1 4
BITMAP
E0780000
7E3C0000
3E3C0000
1F870000
0F838000
0F818000
01808000
00000000
00000000
7FFF8000
7FFFF000
7EA47800
7C007C00
7C000E00
7C000F00
7C000F00
7C000F00
7C000FC0
7C000FC0
7C0003C0
7C000FC0
7C000F80
7C000F00
7C000F00
7C000F00
7C000F00
7C007C00
7C7FF000
7C7FF000
7C3F0000
7C1C0000
7C0E0000
7C070000
7C078000
7C07C000
7C03E000
7C00F000
7C007000
7C007000
7C001C00
7C001E00
3C001E00
10001E00
ENDCHAR
STARTCHAR $0211
ENCODING 529
SWIDTH 296 0
DWIDTH 14 0
BBX 19 35 -6 0
BITMAP
E06000
F87800
FC7800
1C0F00
0E0780
0E0780
038380
000000
000000
0060E0
007FE0
007F40
007F00
007C00
007800
007800
006000
007000
006000
006000
006000
007000
006000
006000
006000
006000
007000
006000
006000
006000
006000
006000
006000
006000
006000
ENDCHAR
STARTCHAR $0214
ENCODING 532
SWIDTH 666 0
DWIDTH 31 0
BBX 24 45 3 1
BITMAP
800000
C06000
E07000
703C00
7C1F00
3C0F00
0F9F80
038080
030080
000000
E0000E
E0000E
E0000F
E0000F
E0000F
E0000F
E0000F
E0000F
E0000F
E0000F
E0000F
E0000F
E0000F
E0000F
E0000F
E0000F
E0000F
E0000F
E0000F
E0000F
E0000F
E0000F
E0000F
E0000E
F0001E
F0001C
FC001C
7C001C
7C0018
7C0070
1FFFE0
1FFFC0
0FFF80
01FF80
00FF80
ENDCHAR
STARTCHAR $0215
ENCODING 533
SWIDTH 592 0
DWIDTH 28 0
BBX 24 35 1 1
BITMAP
E07800
7E3C00
3E3C00
1F8700
0F8380
0F8180
018080
000000
000000
7C000F
7C000F
7C000F
7C000F
7C000F
7C000F
7C000F
7C000F
7C000F
7C000F
7C000F
7C000F
7C000F
7C000F
7C000F
7C000F
7C000F
7C001F
7E001F
3E001F
1F807F
0FC0FF
07C0FF
03FFEF
01FC02
00FC02
ENDCHAR
STARTCHAR $0218
ENCODING 536
SWIDTH 481 0
DWIDTH 23 0
BBX 20 45 1 -10
BITMAP
03F800
07FF80
0FFF80
1E0780
3E03C0
7E03E0
7C03E0
E000E0
E000C0
E00000
F00000
7A0000
7E0000
1FC000
0FFC00
0FFC00
03FF00
003F80
003F80
0007E0
0003F0
0001F0
0000F0
000070
C00070
E00070
E00070
FC00E0
FC00E0
7E07E0
1E0780
1E0780
0FFF80
03F800
03F000
000000
006000
006000
006000
01C000
01C000
01C000
01C000
01C000
00C000
ENDCHAR
STARTCHAR $0219
ENCODING 537
SWIDTH 370 0
DWIDTH 18 0
BBX 17 36 0 -10
BITMAP
03E000
07FC00
0FFC00
1E0C00
3E0C00
7E0C00
7C1C00
7C0000
7C0000
7E0000
1FC000
03E000
01F800
003C00
001F00
000F00
000F80
F00780
F80780
7C0780
7C0700
3C0600
1FFC00
0FFC00
07F000
03E000
000000
01C000
01C000
01C000
01C000
01C000
01C000
01C000
03C000
038000
ENDCHAR
STARTCHAR $021A
ENCODING 538
SWIDTH 444 0
DWIDTH 21 0
BBX 19 45 0 -10
BITMAP
FFFFE0
FFFFE0
FFFFE0
006000
006000
006000
007000
006000
007000
006000
007000
006000
006000
007000
006000
006000
006000
007000
006000
006000
006000
007000
006000
006000
006000
006000
007000
006000
006000
006000
006000
006000
006000
006000
006000
000000
006000
006000
006000
01C000
01C000
01C000
01C000
01C000
00C000
ENDCHAR
STARTCHAR $021B
ENCODING 539
SWIDTH 333 0
DWIDTH 16 0
BBX 14 45 0 -10
BITMAP
03C0
03C0
03C0
03C0
03C0
03C0
03C0
0FC0
0FC0
FFFC
FFFC
0FE4
0FC0
03C0
03C0
03C0
03C0
03C0
03C0
03C0
03C0
03C0
03C0
03C0
03C0
03C0
03C0
03C0
03C0
03C0
03C0
03C0
03C0
03C0
03C0
0000
01C0
0180
0180
0380
0380
0380
0380
0380
0300
ENDCHAR
STARTCHAR $0237
ENCODING 567
SWIDTH 185 0
DWIDTH 9 0
BBX 9 35 -1 -9
BITMAP
0380
0380
0380
0380
0380
0380
0380
0380
0380
0380
0380
0380
0380
0380
0380
0380
0380
0380
0380
0380
0380
0380
0380
0380
0380
0380
0380
0600
0E00
1E00
1C00
1800
F000
E000
C000
ENDCHAR
STARTCHAR $0258
ENCODING 600
SWIDTH 666 0
DWIDTH 31 0
BBX 26 26 1 0
BITMAP
007FE000
03FFF800
03FFFC00
0FC07E00
1E003F00
1E001F00
7C000F00
700007C0
700003C0
F00003C0
FFFFFFC0
FFFFFFC0
FFFFFFC0
000003C0
000003C0
000003C0
000003C0
3C0003C0
7C0007C0
7E000F00
1F807C00
1F807800
0FFFF000
03FFF000
00FFC000
007F8000
ENDCHAR
STARTCHAR $0259
ENCODING 601
SWIDTH 666 0
DWIDTH 31 0
BBX 26 26 1 0
BITMAP
007FE000
03FFF000
03FFF000
0FC0FE00
1E007F00
1E007F00
7C000F00
700007C0
300003C0
000003C0
000003C0
02A447C0
FFFFFFC0
FFFFFFC0
F80007C0
F00003C0
F00003C0
7C0003C0
7C0007C0
7E000F00
1F801F00
1F803F00
0FFFF000
03FFF000
00FFE000
007FE000
ENDCHAR
STARTCHAR $02BE
ENCODING 702
SWIDTH 518 0
DWIDTH 24 0
BBX 17 19 3 14
BITMAP
1FE000
3FFC00
7FFC00
F00F00
E00780
E00780
E00780
000380
000380
000380
000380
000780
E00780
F00700
7FFE00
7FFC00
7FF800
03C000
03C000
ENDCHAR
STARTCHAR $02BF
ENCODING 703
SWIDTH 518 0
DWIDTH 24 0
BBX 17 19 3 14
BITMAP
03F800
3FFC00
7FFC00
7C0F00
780780
700780
E00380
E00000
E00000
800000
E00000
E00000
E00380
700780
1FFF00
1FFF00
0FFC00
01F000
01E000
ENDCHAR
STARTCHAR $02C6
ENCODING 710
SWIDTH 518 0
DWIDTH 24 0
BBX 13 6 6 29
BITMAP
1F80
3FC0
7FC0
FC78
F878
F078
ENDCHAR
STARTCHAR $02C7
ENCODING 711
SWIDTH 518 0
DWIDTH 24 0
BBX 13 6 6 29
BITMAP
E078
78F0
3DE0
1FE0
0FC0
0FC0
ENDCHAR
STARTCHAR $02D8
ENCODING 728
SWIDTH 444 0
DWIDTH 21 0
BBX 13 7 3 28
BITMAP
E038
E038
E038
7FE0
7FE0
3FE0
0380
ENDCHAR
STARTCHAR $02D9
ENCODING 729
SWIDTH 222 0
DWIDTH 11 0
BBX 3 6 3 29
BITMAP
E0
E0
E0
E0
E0
E0
ENDCHAR
STARTCHAR $02DA
ENCODING 730
SWIDTH 333 0
DWIDTH 16 0
BBX 9 9 3 29
BITMAP
7E00
FF00
F380
E380
C180
8180
8180
7E00
3E00
ENDCHAR
STARTCHAR $02DB
ENCODING 731
SWIDTH 296 0
DWIDTH 14 0
BBX 7 12 3 -10
BITMAP
7C
F8
F0
E0
E0
E0
E0
E0
E0
FE
7E
02
ENDCHAR
STARTCHAR $02DC
ENCODING 732
SWIDTH 444 0
DWIDTH 21 0
BBX 13 7 3 28
BITMAP
1C00
FE20
FE30
E1F8
C1F8
81F8
0040
ENDCHAR
STARTCHAR $02DD
ENCODING 733
SWIDTH 555 0
DWIDTH 26 0
BBX 19 9 7 29
BITMAP
018000
0387C0
0387E0
0E0F80
1E0F00
1E1F00
FC7800
E03000
E02000
ENDCHAR
STARTCHAR $0300
ENCODING 768
SWIDTH 0 0
DWIDTH 0 0
BBX 10 7 -22 30
BITMAP
FC00
7E00
3E00
1FC0
0FC0
0FC0
0180
ENDCHAR
STARTCHAR $0301
ENCODING 769
SWIDTH 0 0
DWIDTH 0 0
BBX 10 7 -19 30
BITMAP
03C0
3F80
7F80
FC00
F800
F000
E000
ENDCHAR
STARTCHAR $0302
ENCODING 770
SWIDTH 0 0
DWIDTH 0 0
BBX 13 6 -22 29
BITMAP
1F80
3FC0
7FC0
FC78
F878
F078
ENDCHAR
STARTCHAR $0303
ENCODING 771
SWIDTH 0 0
DWIDTH 0 0
BBX 13 7 -22 28
BITMAP
7C00
FE20
FE30
EFF8
C3F8
83F8
0040
ENDCHAR
STARTCHAR $0304
ENCODING 772
SWIDTH 0 0
DWIDTH 0 0
BBX 14 3 -24 30
BITMAP
FFFC
FFFC
FFFC
ENDCHAR
STARTCHAR $0305
ENCODING 773
SWIDTH 0 0
DWIDTH 0 0
BBX 13 3 -17 33
BITMAP
FFF8
FFF8
FFF8
ENDCHAR
STARTCHAR $0306
ENCODING 774
SWIDTH 0 0
DWIDTH 0 0
BBX 13 6 -22 29
BITMAP
8038
C038
E038
7FE0
7FE0
3FE0
ENDCHAR
STARTCHAR $0307
ENCODING 775
SWIDTH 0 0
DWIDTH 0 0
BBX 3 6 -17 29
BITMAP
E0
E0
E0
E0
E0
E0
ENDCHAR
STARTCHAR $0308
ENCODING 776
SWIDTH 0 0
DWIDTH 0 0
BBX 10 6 -20 29
BITMAP
E1C0
E1C0
E1C0
E1C0
E1C0
E1C0
ENDCHAR
STARTCHAR $0309
ENCODING 777
SWIDTH 0 0
DWIDTH 0 0
BBX 9 9 -20 29
BITMAP
7F80
F980
F180
0380
0380
0380
0380
1E00
1E00
ENDCHAR
STARTCHAR $030A
ENCODING 778
SWIDTH 0 0
DWIDTH 0 0
BBX 10 9 -20 29
BITMAP
7E00
FF00
F380
E3C0
C1C0
C1C0
F380
7F80
3F00
ENDCHAR
STARTCHAR $030B
ENCODING 779
SWIDTH 0 0
DWIDTH 0 0
BBX 17 7 -20 30
BITMAP
1F8780
3F3F00
7E3F00
F07C00
E07800
E07800
804000
ENDCHAR
STARTCHAR $030C
ENCODING 780
SWIDTH 0 0
DWIDTH 0 0
BBX 13 6 -22 29
BITMAP
E038
78F0
3DE0
1FE0
0FC0
0FC0
ENDCHAR
STARTCHAR $030F
ENCODING 783
SWIDTH 0 0
DWIDTH 0 0
BBX 17 9 -27 29
BITMAP
800000
C06000
E07000
703C00
7C1F00
3C0F00
0F9F80
020080
020080
ENDCHAR
STARTCHAR $0311
ENCODING 785
SWIDTH 0 0
DWIDTH 0 0
BBX 13 7 -22 28
BITMAP
0200
3FE0
7FF0
F078
E078
E078
8038
ENDCHAR
STARTCHAR $0323
ENCODING 803
SWIDTH 0 0
DWIDTH 0 0
BBX 3 6 -17 -9
BITMAP
E0
E0
E0
E0
E0
E0
ENDCHAR
STARTCHAR $0326
ENCODING 806
SWIDTH 0 0
DWIDTH 0 0
BBX 6 9 -19 -9
BITMAP
7C
7C
7C
F0
E0
E0
E0
E0
E0
ENDCHAR
STARTCHAR $0327
ENCODING 807
SWIDTH 0 0
DWIDTH 0 0
BBX 9 10 -19 -9
BITMAP
6000
FE00
FE00
FF80
FF80
FF80
0380
8F80
CF00
FE00
ENDCHAR
STARTCHAR $0328
ENCODING 808
SWIDTH 0 0
DWIDTH 0 0
BBX 9 12 -20 -10
BITMAP
1E00
3C00
7C00
7C00
7800
7000
F000
7C00
7C00
7F80
1F80
0200
ENDCHAR
STARTCHAR $032C
ENCODING 812
SWIDTH 0 0
DWIDTH 0 0
BBX 13 6 -22 -9
BITMAP
E078
7FC0
3FC0
1F80
0E00
0E00
ENDCHAR
STARTCHAR $032D
ENCODING 813
SWIDTH 0 0
DWIDTH 0 0
BBX 13 6 -22 -9
BITMAP
1FC0
3DE0
7DF0
F038
E018
E008
ENDCHAR
STARTCHAR $032E
ENCODING 814
SWIDTH 0 0
DWIDTH 0 0
BBX 13 6 -22 -9
BITMAP
E038
FFF0
FFE0
7FE0
7FC0
3FC0
ENDCHAR
STARTCHAR $032F
ENCODING 815
SWIDTH 0 0
DWIDTH 0 0
BBX 13 7 -22 -8
BITMAP
0200
3FE0
7FF0
F038
E038
E038
8038
ENDCHAR
STARTCHAR $0330
ENCODING 816
SWIDTH 0 0
DWIDTH 0 0
BBX 13 4 -22 -6
BITMAP
7E20
FFF8
FFF8
0060
ENDCHAR
STARTCHAR $0331
ENCODING 817
SWIDTH 0 0
DWIDTH 0 0
BBX 14 3 -24 -6
BITMAP
FFFC
FFFC
FFFC
ENDCHAR
STARTCHAR $0332
ENCODING 818
SWIDTH 0 0
DWIDTH 0 0
BBX 13 3 -17 -6
BITMAP
FFF8
FFF8
FFF8
ENDCHAR
STARTCHAR $0333
ENCODING 819
SWIDTH 0 0
DWIDTH 0 0
BBX 13 10 -17 -11
BITMAP
FFF8
FFF8
FFF8
0000
0000
0000
0000
FFF8
FFF8
FFF8
ENDCHAR
STARTCHAR $0338
ENCODING 824
SWIDTH 0 0
DWIDTH 0 0
BBX 14 37 -17 -5
BITMAP
000C
000C
000C
000C
0038
0038
0038
0038
0038
0060
0070
00E0
01E0
01F0
01C0
01C0
01C0
03C0
03C0
0380
0380
0780
0F80
1F80
1F00
1E00
1E00
3C00
7C00
7C00
7C00
7800
7000
E000
E000
E000
E000
ENDCHAR
STARTCHAR $033F
ENCODING 831
SWIDTH 0 0
DWIDTH 0 0
BBX 13 10 -17 34
BITMAP
FFF8
FFF8
FFF8
0000
0000
0000
0000
FFF8
FFF8
FFF8
ENDCHAR
STARTCHAR $034D
ENCODING 845
SWIDTH 0 0
DWIDTH 0 0
BBX 27 13 -24 -13
BITMAP
00607000
03E07800
03E07C00
1FC00F00
3F800FC0
7F800FC0
FFFFFFE0
FFFFFFE0
FFFFFFE0
1F801FC0
01E07E00
00E06400
00606000
ENDCHAR
STARTCHAR $0361
ENCODING 865
SWIDTH 259 0
DWIDTH 12 0
BBX 13 6 6 32
BITMAP
1FE0
FFF8
FFF8
F038
E018
E008
ENDCHAR
STARTCHAR $0391
ENCODING 913
SWIDTH 740 0
DWIDTH 35 0
BBX 32 35 1 0
BITMAP
00078000
000FC000
000FE000
000FE000
000FE000
001FE000
00387000
00387000
00387000
00787000
00701C00
00601C00
00601C00
01F00E00
01C00F00
01C00F00
01C00F00
03800FC0
03800FC0
03FFFFC0
0FFFFFC0
0FFFFFC0
1E0001E0
1E0000E0
1E0000E0
1E000060
7C000038
7C000038
7C000038
F000003C
E000003F
E000003F
E000001F
E000001C
C000000C
ENDCHAR
STARTCHAR $0392
ENCODING 914
SWIDTH 592 0
DWIDTH 28 0
BBX 22 35 3 0
BITMAP
FFF800
FFFF80
FFFF80
F00780
E003C0
E003E0
E003E0
E000F0
E000F0
E00070
E000E0
E001E0
E003E0
E003E0
FFFFE0
FFFFE0
FFFF80
FFFFE0
FFFFE0
E003F0
E00070
E00038
E0001C
E0001C
E0001C
E0001C
E0001C
E00070
E00070
E000F0
F003F0
F803F0
FFFFE0
FFFC00
FFFC00
ENDCHAR
STARTCHAR $0393
ENCODING 915
SWIDTH 481 0
DWIDTH 23 0
BBX 17 35 3 0
BITMAP
FFFF80
FFFF80
FFFF80
F00000
E00000
E00000
E00000
E00000
E00000
E00000
E00000
E00000
E00000
E00000
E00000
E00000
E00000
E00000
E00000
E00000
E00000
E00000
E00000
E00000
E00000
E00000
E00000
E00000
E00000
E00000
E00000
E00000
E00000
E00000
C00000
ENDCHAR
STARTCHAR $0394
ENCODING 916
SWIDTH 629 0
DWIDTH 29 0
BBX 29 32 0 0
BITMAP
000F8000
000F8000
000F8000
000F8000
003FC000
003FE000
003BE000
0038F000
0038F000
00607000
00707C00
00E03C00
01E01C00
01F01C00
01C00E00
01C00E00
01C00F00
03800F00
03800F80
03800FC0
0F8007C0
0F0003C0
1E0003E0
1E0001E0
3E0000E0
7E0000E0
7C0000E0
7FFFFFF8
7FFFFFF8
FFFFFFF8
FFFFFFE0
FFFFFFE0
ENDCHAR
STARTCHAR $0395
ENCODING 917
SWIDTH 518 0
DWIDTH 24 0
BBX 19 35 3 0
BITMAP
FFFFE0
FFFFE0
FFFFE0
F00000
E00000
E00000
E00000
E00000
E00000
E00000
E00000
E00000
E00000
E00000
FFFF80
FFFF80
FFFFE0
FFFFE0
FFFFC0
E00000
E00000
E00000
E00000
E00000
E00000
E00000
E00000
E00000
E00000
E00000
F00000
F80000
FFFFE0
FFFFE0
FFFFC0
ENDCHAR
STARTCHAR $0396
ENCODING 918
SWIDTH 481 0
DWIDTH 23 0
BBX 22 35 0 0
BITMAP
7FFFF0
7FFFF0
3FFFF0
0000F0
0000F0
0000F0
0003E0
0003E0
0003C0
000780
000F80
000F00
000F00
001C00
003C00
003C00
003800
007000
00E000
01E000
01C000
01C000
03C000
03C000
038000
038000
1E0000
3E0000
7E0000
7C0000
7C0000
7C0000
FFFFFC
FFFFFC
FFFFF8
ENDCHAR
STARTCHAR $0397
ENCODING 919
SWIDTH 666 0
DWIDTH 31 0
BBX 24 35 3 0
BITMAP
E0000F
E0000F
E0000F
E0000F
E0000F
E0000F
E0000F
E0000F
E0000F
E0000F
E0000F
E0000F
E0000F
E0000F
FFFFFF
FFFFFF
FFFFFF
FFFFFF
FFFFFF
E0000F
E0000F
E0000F
E0000F
E0000F
E0000F
E0000F
E0000F
E0000F
E0000F
E0000F
E0000F
E0000F
E0000F
E00002
C00002
ENDCHAR
STARTCHAR $0398
ENCODING 920
SWIDTH 851 0
DWIDTH 40 0
BBX 36 35 1 0
BITMAP
0007FF0000
007FFFE000
007FFFE000
01E001FC00
01E000FE00
01E0007F00
03C0001F80
1E000007C0
1E000007E0
7E000003E0
7C000000E0
7C000000E0
7C000000F0
F000000070
E007FF0070
E007FF8070
E00FFFC070
E01FFFC070
E00FFFC070
E000000070
7C00000070
7C00000070
7C000000F0
7C000000E0
7E000001E0
3E000003E0
1F800007E0
03C0000F80
03C0001F80
01E000FF00
01F801F800
01F801F000
007FFFC000
001FFE0000
000FFE0000
ENDCHAR
STARTCHAR $0399
ENCODING 921
SWIDTH 222 0
DWIDTH 11 0
BBX 3 35 3 0
BITMAP
E0
E0
E0
E0
E0
E0
E0
E0
E0
E0
E0
E0
E0
E0
E0
E0
E0
E0
E0
E0
E0
E0
E0
E0
E0
E0
E0
E0
E0
E0
E0
E0
E0
E0
C0
ENDCHAR
STARTCHAR $039A
ENCODING 922
SWIDTH 592 0
DWIDTH 28 0
BBX 22 35 3 0
BITMAP
E0001C
E0003C
E0007C
E000FC
E001F0
E003F0
E007E0
E00780
E00780
E00F00
E01C00
E03C00
E07C00
E1F800
E1F000
E1E000
E1C000
F3C000
FBC000
FE6000
FE3800
FE3800
FC3C00
F00F00
E00780
E00780
E00380
E003C0
E001E0
E000F0
E000F8
E000FC
E0007C
E0001C
C00018
ENDCHAR
STARTCHAR $039B
ENCODING 923
SWIDTH 740 0
DWIDTH 35 0
BBX 32 35 1 0
BITMAP
00078000
000FC000
000FE000
000FE000
000FE000
001FE000
0038F000
00387000
00387000
00787000
00701C00
00601C00
00601C00
01F00E00
01C00F00
01C00F00
01C00F00
03800FC0
03800FC0
038003C0
0F8003C0
0F0003C0
1E0001E0
1E0000E0
1E0000E0
1E000060
7C000038
7C000038
7C000038
F000003C
E000003F
E000003F
E000001F
E000001C
C000000C
ENDCHAR
STARTCHAR $039C
ENCODING 924
SWIDTH 925 0
DWIDTH 43 0
BBX 36 35 3 0
BITMAP
FC000007F0
FE000007F0
FE000007F0
FE000007F0
FE000007F0
FE000007F0
E380001F70
E380001C70
E380001C70
E380003870
E1C0003870
E1C0007870
E1C000F870
E1F000E070
E0E000E070
E06000E070
E06001E070
E03803C070
E03803C070
E03803C070
E0380F8070
E0380F0070
E00C0F0070
E00C0F0070
E0061F0070
E0071F0070
E0079C0070
E0079C0070
E007980070
E007F00070
E003F00070
E003F00070
E003F00070
E000E00070
C000C00020
ENDCHAR
STARTCHAR $039D
ENCODING 925
SWIDTH 740 0
DWIDTH 35 0
BBX 27 35 3 0
BITMAP
FC0000E0
FE0000E0
FE0000E0
FE0000E0
FE0000E0
FE0000E0
E38000E0
E3C000E0
E3C000E0
E1C000E0
E06000E0
E07000E0
E07800E0
E03800E0
E01C00E0
E00C00E0
E00F00E0
E01F80E0
E00F80E0
E007E0E0
E003E0E0
E001E0E0
E000F0E0
E00070E0
E00078E0
E0007CE0
E0001CE0
E0000FE0
E0000FE0
E0000FE0
E00007E0
E00003E0
E00001E0
E00000E0
C0000060
ENDCHAR
STARTCHAR $039E
ENCODING 926
SWIDTH 666 0
DWIDTH 31 0
BBX 27 35 1 0
BITMAP
FFFFFFE0
FFFFFFE0
FFFFFFE0
00000000
00000000
00000000
00000000
00000000
00000000
00000000
00000000
00000000
00000000
00000000
07FFFE00
0FFFFE00
1FFFFF00
0FFFFF00
07FFFF00
00000000
00000000
00000000
00000000
00000000
00000000
00000000
00000000
00000000
00000000
00000000
00000000
00000000
FFFFFFE0
FFFFFFE0
FFFFFFE0
ENDCHAR
STARTCHAR $039F
ENCODING 927
SWIDTH 851 0
DWIDTH 40 0
BBX 36 35 1 0
BITMAP
0007FF0000
007FFFE000
007FFFE000
01E001FC00
01E000FE00
01E0007F00
03C0001F80
1E000007C0
1E000007E0
7E000003E0
7C000000E0
7C000000E0
7C000000F0
F000000070
E000000070
E000000070
E000000070
E000000070
E000000070
E000000070
7C00000070
7C00000070
7C000000F0
7C000000E0
7E000001E0
3E000003E0
1F800007E0
03C0000F80
03C0001F80
01E000FF00
01F801F800
01F801F000
007FFFC000
001FFE0000
000FFE0000
ENDCHAR
STARTCHAR $03A0
ENCODING 928
SWIDTH 629 0
DWIDTH 29 0
BBX 24 32 3 0
BITMAP
FFFFFF
FFFFFF
FFFFFF
F0000F
E0000F
E0000F
E0000F
E0000F
E0000F
E0000F
E0000F
E0000F
E0000F
E0000F
E0000F
E0000F
E0000F
E0000F
E0000F
E0000F
E0000F
E0000F
E0000F
E0000F
E0000F
E0000F
E0000F
E0000F
E0000F
E0000F
E00006
E00002
ENDCHAR
STARTCHAR $03A1
ENCODING 929
SWIDTH 592 0
DWIDTH 28 0
BBX 22 35 3 0
BITMAP
FFFF80
FFFFF0
FFFFF0
F000F0
E00070
E00070
E0001C
E0001C
E0001C
E0001C
E0001C
E0001C
E0001C
E0001C
E0003C
E00078
F003F0
FFFFE0
FFFFC0
FFFC00
F00000
F00000
E00000
E00000
E00000
E00000
E00000
E00000
E00000
E00000
E00000
E00000
E00000
E00000
C00000
ENDCHAR
STARTCHAR $03A3
ENCODING 931
SWIDTH 444 0
DWIDTH 21 0
BBX 20 32 0 0
BITMAP
FFFFF0
FFFFF0
FFFFF0
7C0000
7C0000
7C0000
7E0000
1F8000
1F8000
038000
03C000
03C000
01C000
01F000
01E000
01E000
01E000
01C000
01C000
03C000
038000
070000
0E0000
1E0000
3E0000
7E0000
7C0000
FFFFF0
FFFFF0
FFFFF0
FFFFF0
FFFFF0
ENDCHAR
STARTCHAR $03A4
ENCODING 932
SWIDTH 444 0
DWIDTH 21 0
BBX 19 35 0 0
BITMAP
FFFFE0
FFFFE0
FFFFE0
006000
006000
006000
007000
006000
007000
006000
007000
006000
006000
007000
006000
006000
006000
007000
006000
006000
006000
007000
006000
006000
006000
006000
007000
006000
006000
006000
006000
006000
006000
006000
006000
ENDCHAR
STARTCHAR $03A5
ENCODING 933
SWIDTH 592 0
DWIDTH 28 0
BBX 27 35 0 0
BITMAP
FC0003E0
7C0003C0
7C0003C0
7C0003C0
7E000FC0
3E000FC0
1E000F00
1F801F00
1F801F00
03801C00
03C07C00
03C07C00
01C07C00
01F0F000
01E1E000
01E3E000
0063E000
007F8000
007F8000
003F8000
001F0000
001E0000
000C0000
000C0000
000C0000
000C0000
001C0000
000C0000
000C0000
000C0000
000C0000
000C0000
000C0000
000C0000
000C0000
ENDCHAR
STARTCHAR $03A6
ENCODING 934
SWIDTH 814 0
DWIDTH 38 0
BBX 32 35 3 0
BITMAP
00078000
00078000
00078000
00078000
00078000
00078000
00078000
007FF800
00FFFC00
03FFFFC0
1F8783F8
3E0780F8
FC0780F8
F007803C
E007801E
E007801F
E007801F
E007801F
E007801F
E007801F
FC078038
FC078078
7F8781F8
1F8783F8
0FFFFFC0
0FFFFFC0
007FFC00
00078000
00078000
00078000
00078000
00078000
00078000
00038000
00018000
ENDCHAR
STARTCHAR $03A7
ENCODING 935
SWIDTH 592 0
DWIDTH 28 0
BBX 24 35 1 0
BITMAP
E0000F
78001F
7C001F
7C001E
7E001C
3E001C
0E007C
038070
038070
03C0E0
01C3E0
01E7C0
01F780
01FF00
00FE00
007C00
003C00
007F00
007F00
007F80
01FF80
01FFC0
01E3E0
01C3E0
0381F0
0380F0
1F8070
1E0038
1E001C
7C001E
7C001F
78001F
F0000F
E00001
C00001
ENDCHAR
STARTCHAR $03A8
ENCODING 936
SWIDTH 777 0
DWIDTH 36 0
BBX 32 35 3 0
BITMAP
E007801F
E007801F
E007801F
E007801F
E007801F
E007801F
E007801F
E007801F
E007801F
E007801F
E007801F
E007803F
E007803F
F0078038
78078078
7C0780F8
7C0781F8
7E0783E0
3E0787E0
1FC78FC0
01FFFF80
00FFFF00
007FF000
007FF000
0007C000
00078000
00078000
00078000
00078000
00078000
00078000
00078000
00078000
00038000
00018000
ENDCHAR
STARTCHAR $03A9
ENCODING 937
SWIDTH 814 0
DWIDTH 38 0
BBX 35 33 1 1
BITMAP
000FFC0000
007FFF8000
007FFFC000
03FC0FE000
07F80FE000
0FF80FE000
1F8000F800
1E00003F00
1E00003F00
7C00001F80
7C00000780
6000000780
E000000780
E000000780
E0000007C0
E0000007E0
E0000007E0
E0000007E0
E0000007C0
E000000780
FC00000780
FC00000F80
7C00001F80
7C00001F00
7E00001F00
3E00001F00
1F80003F00
03E003F800
03F007F800
7FF80FFC00
7FF80FFF00
7FF80FFE00
7FF80FFC00
ENDCHAR
STARTCHAR $03B1
ENCODING 945
SWIDTH 703 0
DWIDTH 33 0
BBX 26 26 3 0
BITMAP
01FC03C0
03FFC3C0
03FFE3C0
0FC3E300
1E00EF00
1E00EF00
7C007F00
F0007F00
F0003F00
F0001F00
E0001E00
E0001C00
E0001C00
E0001C00
E0001C00
E0001C00
E0007C00
F0007C00
F8007C00
7C007F00
7F80EF00
3F81C780
0FFF83C0
03FF01C0
01FE00C0
01FC0040
ENDCHAR
STARTCHAR $03B2
ENCODING 946
SWIDTH 481 0
DWIDTH 23 0
BBX 17 45 1 -9
BITMAP
01F800
07FC00
0FFC00
1E0C00
1E0700
1E0700
7C0780
7C0780
7C0780
7C0780
7C0780
7C0F80
7C0F80
7C1F00
7DFE00
7DFC00
7DF800
7DF800
7DF800
7C3C00
7C1F80
7C0F80
7C0780
7C0780
7C0780
7C0780
7C0780
7C0780
7C0780
7C0780
7C0780
7C0780
7E0F80
7FFC00
7FFC00
7FF800
7C0000
7C0000
7C0000
7C0000
F00000
F00000
E00000
E00000
C00000
ENDCHAR
STARTCHAR $03B3
ENCODING 947
SWIDTH 481 0
DWIDTH 23 0
BBX 24 33 0 -6
BITMAP
FC000F
7E000F
3E000F
1F801E
0F801C
0F801C
03801C
03C07C
03C078
01C070
01E070
00E060
0060E0
0073E0
007FE0
007FE0
007FE0
003F80
003F80
003F80
003F00
003E00
003C00
003C00
003800
003800
003800
003800
003800
003800
003800
003800
000800
ENDCHAR
STARTCHAR $03B4
ENCODING 948
SWIDTH 703 0
DWIDTH 33 0
BBX 26 35 3 0
BITMAP
1FFFFC00
1FFFFC00
1FFFF800
0FE00000
03E00000
03F00000
01FC0000
003F0000
003F0000
01FFE000
03FFF000
07A47800
1E007C00
7C000E00
F8000F00
F0000F80
E0000FC0
E00007C0
E00003C0
E00003C0
E00003C0
E00003C0
E00003C0
E00003C0
F00003C0
F00007C0
FC000FC0
7C000F80
3C000F00
1F807E00
0FC0FC00
07C0F800
03FFF000
007F8000
007F8000
ENDCHAR
STARTCHAR $03B5
ENCODING 949
SWIDTH 481 0
DWIDTH 23 0
BBX 17 29 3 0
BITMAP
03F800
3FFF80
7FFF80
7C0780
780300
700100
E00000
E00000
E00000
E00000
700000
7AA000
7FE000
7FF000
FC0000
FC0000
F00000
E00000
E00000
E00000
E00000
E00000
E00000
F00000
7E0780
7E0780
7FFF80
03F800
03F800
ENDCHAR
STARTCHAR $03B6
ENCODING 950
SWIDTH 407 0
DWIDTH 19 0
BBX 13 43 3 -8
BITMAP
FFF8
FFF8
FFF8
03E0
01C0
01C0
0380
1E00
1E00
1E00
7C00
7C00
7C00
F000
E000
E000
E000
E000
E000
E000
E000
E000
E000
E000
E000
E000
E000
E000
E000
7000
7C00
7C00
7FE0
1FE0
1FF0
0070
0038
0038
0038
0038
0038
0038
0018
ENDCHAR
STARTCHAR $03B7
ENCODING 951
SWIDTH 592 0
DWIDTH 28 0
BBX 22 35 3 -9
BITMAP
E1FC00
FFFFC0
FFFFE0
FE03F0
FE00F0
FE00F0
FC0070
E00070
E00030
E0001C
E0001C
E0001C
E0001C
E0001C
E0001C
E0001C
E0001C
E0001C
E0001C
E0001C
E0001C
E0001C
E0001C
E0001C
E0001C
E0001C
00001C
00001C
00001C
00001C
00001C
00001C
00001C
00001C
000018
ENDCHAR
STARTCHAR $03B8
ENCODING 952
SWIDTH 555 0
DWIDTH 26 0
BBX 19 35 3 0
BITMAP
03F800
07FC00
0FFC00
1E0F00
3E0780
7E0780
7C0780
E00380
E003C0
E003E0
E003E0
E003E0
E003E0
E003E0
FFFFE0
FFFFE0
FFFFE0
FFFFE0
FFFFE0
E003E0
E003E0
E003E0
E003E0
E003E0
E003E0
E003E0
E00780
7C0780
7C0780
7E0F00
1E0C00
1E1C00
0FFC00
03F000
03E000
ENDCHAR
STARTCHAR $03B9
ENCODING 953
SWIDTH 333 0
DWIDTH 16 0
BBX 7 26 6 0
BITMAP
E0
E0
E0
E0
E0
E0
E0
E0
E0
E0
E0
E0
E0
E0
E0
E0
E0
70
78
7C
7C
7C
7E
1E
0E
0E
ENDCHAR
STARTCHAR $03BA
ENCODING 954
SWIDTH 518 0
DWIDTH 24 0
BBX 19 26 3 0
BITMAP
E007E0
E00FC0
E00F80
E00F00
E00E00
E01C00
E03800
E07800
E0F800
E1E000
E1F000
E3A000
E38000
FFC000
FFE000
FFE000
FFE000
FCF800
FC7800
E03C00
E01C00
E00E00
E00700
E00780
E007C0
E007E0
ENDCHAR
STARTCHAR $03BB
ENCODING 955
SWIDTH 592 0
DWIDTH 28 0
BBX 22 35 3 0
BITMAP
1E0000
1FC000
1FC000
03E000
01E000
01E000
007000
003800
003800
003800
003800
003C00
003C00
007C00
007C00
007C00
007F00
01F780
01E780
01C780
03C780
03C7C0
0383E0
0F83E0
1F83E0
1F83E0
1E03E0
3E00F0
7E00F0
7C0070
7C0070
780070
F00070
E0007C
C00038
ENDCHAR
STARTCHAR $03BC
ENCODING 956
SWIDTH 592 0
DWIDTH 28 0
BBX 22 35 3 -9
BITMAP
E0001C
E0001C
E0001C
E0001C
E0001C
E0001C
E0001C
E0001C
E0001C
E0001C
E0001C
E0001C
E0001C
E0001C
E0001C
E0001C
E0001C
F0007C
F8007C
FC007C
FE00FC
FF01FC
FFFF9C
E3FF1C
E1FE1C
E1FC18
E00000
E00000
E00000
E00000
E00000
E00000
E00000
E00000
C00000
ENDCHAR
STARTCHAR $03BD
ENCODING 957
SWIDTH 481 0
DWIDTH 23 0
BBX 19 26 1 0
BITMAP
E00780
E00780
E00780
F00380
FC03C0
FC03E0
7C03E0
7C03E0
7C03E0
7C03E0
1E03E0
1E03C0
1E0380
1E0780
1E0780
1E0780
0F8780
038F00
039F00
03BC00
03F800
03F800
01F800
01E000
01C000
01C000
ENDCHAR
STARTCHAR $03BE
ENCODING 958
SWIDTH 407 0
DWIDTH 19 0
BBX 12 43 3 -8
BITMAP
FFE0
FFE0
FFE0
7C00
7800
7000
E000
E000
E000
E000
F000
7A00
7E00
1FC0
1FC0
1FC0
1FC0
3E00
7E00
FC00
F000
F000
E000
E000
E000
E000
E000
E000
E000
F000
FC00
FC00
7FC0
1FC0
1FE0
0060
0060
0060
0060
0060
0060
0060
0030
ENDCHAR
STARTCHAR $03BF
ENCODING 959
SWIDTH 666 0
DWIDTH 31 0
BBX 27 26 1 0
BITMAP
007FE000
03FFF800
03FFFC00
0FC07E00
1E003F00
1E001F80
7C000FC0
7C0007C0
7C0003C0
FC0003C0
F00003E0
E00001E0
E00001E0
E00001C0
F00003C0
F00003C0
FC0003C0
7C0003C0
7C0007C0
7E000F00
1F801F00
1F803F00
0FFFFE00
03FFFC00
00FFE000
007FE000
ENDCHAR
STARTCHAR $03C0
ENCODING 960
SWIDTH 666 0
DWIDTH 31 0
BBX 24 26 3 0
BITMAP
FFFFFF
FFFFFF
FFFFFF
1E00FC
1E0070
1E0070
1E0070
1E0070
1E0070
1E0070
1E0070
1E0070
1E0070
1E0070
1E0070
1E0070
1E0070
1E0070
1E0070
1E0070
1E0070
1E0038
1E001C
1E001C
0E000C
0E0008
ENDCHAR
STARTCHAR $03C1
ENCODING 961
SWIDTH 592 0
DWIDTH 28 0
BBX 22 33 3 -6
BITMAP
01FC00
07FF80
0FFF80
1E0780
3E03C0
7E01E0
7C00F0
E00070
E00070
E00070
E0001C
E0001C
E0001C
E0001C
E0001C
E00018
E00070
E00070
E00070
E003F0
FE07E0
FF07C0
FFFF80
FFFF00
E1F800
E1F800
E00000
E00000
E00000
E00000
E00000
E00000
E00000
ENDCHAR
STARTCHAR $03C2
ENCODING 962
SWIDTH 555 0
DWIDTH 26 0
BBX 19 35 3 -9
BITMAP
01F800
07FC00
0FFC00
1E0700
3E0380
7E0380
7C03E0
E00080
E00080
E00000
E00000
E00000
E00000
E00000
E00000
E00000
E00000
F00000
F80000
7C0000
7E0000
3F0000
1FFC00
0FFF00
01FF80
01FF80
0003E0
0003E0
0003E0
0003E0
0003E0
0003E0
0003E0
0000E0
0000C0
ENDCHAR
STARTCHAR $03C3
ENCODING 963
SWIDTH 740 0
DWIDTH 35 0
BBX 29 27 3 2
BITMAP
000000F8
007FFFF8
007FFFF8
03FFFE00
07FFFC00
0FFFFC00
1F807C00
3C001F00
7C001F80
FC000FC0
F00003C0
E00003C0
E00003C0
E00003C0
E00003C0
E00003C0
E00003C0
F00003C0
F80007C0
FC000FC0
7C000F80
3C000F00
1F807E00
0F80FC00
07FFF800
03FFF000
007F8000
ENDCHAR
STARTCHAR $03C4
ENCODING 964
SWIDTH 481 0
DWIDTH 23 0
BBX 14 26 3 0
BITMAP
FFFC
FFFC
FFFC
0FC0
0380
0380
0380
0380
0380
0380
0380
0380
0380
0380
0380
0380
03C0
01C0
01C0
01C0
0060
0070
007C
007C
0004
0004
ENDCHAR
STARTCHAR $03C5
ENCODING 965
SWIDTH 555 0
DWIDTH 26 0
BBX 19 26 3 0
BITMAP
E00780
E007C0
E007E0
E003E0
E003E0
E003E0
E003E0
E003E0
E003E0
E003E0
E003E0
E003E0
E003E0
E003E0
E003E0
E003E0
E003E0
E007E0
E007C0
E00780
FC0780
FC0780
7FFF00
1FFC00
07F000
03E000
ENDCHAR
STARTCHAR $03C6
ENCODING 966
SWIDTH 703 0
DWIDTH 33 0
BBX 26 33 3 -6
BITMAP
0203FC00
0607FE00
0E07FE00
1E0F8F00
3E0F0F00
7E0F0F80
7C1C03C0
E00C03C0
E01C03C0
E00C03C0
E01C03C0
E00C03C0
E00C03C0
E01C03C0
E03C03C0
E03C03C0
F03C03C0
FC3C0FC0
FC3C0FC0
7E3C0F00
1FBC7C00
1FBE7800
0FFFF000
03FFF000
01FFC000
01FF8000
003C0000
003C0000
003C0000
003C0000
003C0000
003C0000
000C0000
ENDCHAR
STARTCHAR $03C7
ENCODING 967
SWIDTH 555 0
DWIDTH 26 0
BBX 19 33 3 -6
BITMAP
E003E0
F807E0
FC07E0
7C0780
7C0780
7C0780
7E0780
1E0C00
1E1C00
1F8C00
0F9C00
07BC00
03F800
03F800
01F000
01E000
01E000
01F000
01F000
01F800
03B800
03B800
03BC00
0F8C00
1F0E00
1E0F00
1E1F80
3C0780
7C0780
7C07E0
7003E0
7001E0
E000E0
ENDCHAR
STARTCHAR $03C8
ENCODING 968
SWIDTH 703 0
DWIDTH 33 0
BBX 26 40 3 -3
BITMAP
000C0000
000C0000
000C0000
000C0000
000C0000
000C0000
001C0000
000C0000
001C0000
E00C03C0
E01C03C0
E00C03C0
E00C03C0
E01C03C0
E00C03C0
E00C03C0
E00C03C0
E01C03C0
E00C03C0
E00C03C0
E00C03C0
E01C03C0
E00C03C0
E00C03C0
E00C03C0
E00C03C0
E01C03C0
E00C03C0
E00E07C0
7E0F1F00
1E0FFE00
1E1FFE00
0FFFFC00
01FFE000
00FFC000
000C0000
000C0000
000C0000
000C0000
000C0000
ENDCHAR
STARTCHAR $03C9
ENCODING 969
SWIDTH 703 0
DWIDTH 33 0
BBX 27 26 3 0
BITMAP
E00003C0
E00003C0
E00003C0
E00003C0
E00001C0
E00001C0
E00000E0
E00000E0
E00000E0
E00C00E0
E01C00E0
E00C00E0
E00C00E0
E01C00E0
E00C00E0
E00C00E0
E00C00E0
E01C00C0
E01C00C0
E03C03C0
7C3F83C0
7C3FC780
7FFFFF00
1FE3FE00
0FC1FC00
0FC0F800
ENDCHAR
STARTCHAR $03D1
ENCODING 977
SWIDTH 592 0
DWIDTH 28 0
BBX 20 36 3 1
BITMAP
03F800
07FC00
0FFC00
1C0F00
380780
700780
E00380
E003E0
E003E0
E003E0
F003E0
7A03E0
7F83E0
1FFFF0
00FFF0
007FF0
000FF0
0003E0
0003E0
E003E0
E003E0
E003E0
E003E0
E003E0
E003E0
E003E0
E003E0
E003E0
E003E0
F00780
FC0780
FC0780
7E0F80
1FFC00
1FFC00
03F800
ENDCHAR
STARTCHAR $03D5
ENCODING 981
SWIDTH 666 0
DWIDTH 31 0
BBX 27 40 1 -3
BITMAP
000C0000
000C0000
000C0000
000C0000
000C0000
000C0000
001C0000
000F0000
001F0000
007FE000
03FFFC00
07BF7C00
1F8F1E00
7E1C0F00
7C0C0700
7C0C0380
700C03C0
E01C03C0
E00C03C0
E00C03E0
E00C00E0
E01C00E0
E00C01C0
F00C03C0
F80C03C0
FC0C03C0
7C1C03C0
7E0C0FC0
3E0E0FC0
1F8F1F00
0FCFFE00
07DFFE00
03FFFC00
007FE000
007FC000
000C0000
000C0000
000C0000
000C0000
000C0000
ENDCHAR
STARTCHAR $03D6
ENCODING 982
SWIDTH 703 0
DWIDTH 33 0
BBX 27 35 3 0
BITMAP
007F8000
07FFF000
0FFFF000
1FC0FC00
0E007E00
0E007E00
00000F00
00000F00
00000F80
E00003C0
E00003C0
E00003C0
E00003C0
E00003C0
E00001E0
E00001E0
E00000E0
E00C00E0
E00C00E0
E00C00E0
E00C00E0
E01C00E0
E00C00E0
E00C00E0
E00C00E0
E00C00E0
E01C00C0
E03F03C0
E03F03C0
703F83C0
7C7FE380
7CFFE700
7FE3FE00
1FC0FC00
1FC0F800
ENDCHAR
STARTCHAR $03F0
ENCODING 1008
SWIDTH 592 0
DWIDTH 28 0
BBX 24 26 1 0
BITMAP
60000C
7E001E
3E001E
1E001F
1E001E
1E001E
0F807C
03807C
038078
0380F0
038FF0
03BFE0
03FFE0
03FBE0
07C3E0
0FC3E0
1F80E0
1E0070
1E0070
7E0070
7E0078
7E003C
FC001E
FC001F
7C000F
3C000F
ENDCHAR
STARTCHAR $03F1
ENCODING 1009
SWIDTH 703 0
DWIDTH 33 0
BBX 26 36 3 -10
BITMAP
007F8000
03FFF000
03FFF000
0FC0FC00
1E007E00
1E007E00
7C001F00
F0000FC0
F0000FC0
F00003C0
E00003C0
E00003C0
E00003C0
E00003C0
E00003C0
E00003C0
F00003C0
FC000FC0
FC000FC0
FC000F00
FF807C00
FF807800
7FFFF000
7FFFF000
7FFFC000
3E7F8000
1F800000
03C00000
03C00000
01FF8000
01FFE000
01FFE000
000FFE00
00001F00
00001F80
000001C0
ENDCHAR
STARTCHAR $03F4
ENCODING 1012
SWIDTH 814 0
DWIDTH 38 0
BBX 36 35 1 0
BITMAP
0007FF0000
007FFFE000
007FFFE000
01E001FC00
01E000FE00
01E0007F00
03C0001F80
1E000007C0
1E000007E0
7E000003E0
7C000000E0
7C000000E0
7C000000F0
F000000070
FFFFFFFFF0
FFFFFFFFF0
FFFFFFFFF0
FFFFFFFFF0
FFFFFFFFF0
E0000000F0
7C00000070
7C00000070
7C000000F0
7C000000E0
7E000001E0
3E000003E0
1F800007E0
03C0000F80
03C0001F80
01E000FF00
01F801F800
01F801F000
007FFFC000
001FFE0000
000FFE0000
ENDCHAR
STARTCHAR $03F5
ENCODING 1013
SWIDTH 629 0
DWIDTH 29 0
BBX 26 26 1 0
BITMAP
007FE000
03FFF800
03FFFC00
0FC07E00
1E003F00
1E001F80
7C000FC0
70000000
70000000
F0000000
FFFFE000
FFFFE000
FFFFE000
F0000000
F0000000
F0000000
FC000000
7C000000
7C000000
7E000FC0
1F801F80
1F803F00
0FFFFE00
03FFFC00
00FFE000
007FE000
ENDCHAR
STARTCHAR $0E3F
ENCODING 3647
SWIDTH 592 0
DWIDTH 28 0
BBX 22 40 3 0
BITMAP
006000
006000
007000
FFF800
FFFC00
FFFE00
FFFF80
E003E0
E003E0
E003E0
E003F0
E00070
E00070
E000F0
E001E0
E003E0
E003E0
F007E0
F807C0
FFFF80
FFFFE0
FFFFE0
F003F0
E000F0
E00070
E00070
E0001C
E0001C
E0001C
E0001C
E0007C
E00078
E00070
E003F0
FFFFF0
FFFFE0
FFFF00
00F000
006000
006000
ENDCHAR
STARTCHAR $1E0C
ENCODING 7692
SWIDTH 740 0
DWIDTH 35 0
BBX 29 43 3 -8
BITMAP
FFFF8000
FFFFF000
FFFFF000
F000FE00
E0007F00
E0007F80
E0000FC0
E00007C0
E00003C0
E00000E0
E00000E0
E00000F0
E00000F8
E0000038
E0000038
E0000038
E0000038
E0000038
E0000038
E0000038
E0000038
E0000070
E00000E0
E00000E0
E00000E0
E00000E0
E00003C0
E0000FC0
E0000FC0
E0007F00
F000FE00
F800FE00
FFFFF000
FFFF8000
FFFF8000
00000000
00000000
00600000
00600000
00600000
00600000
00600000
00300000
ENDCHAR
STARTCHAR $1E0D
ENCODING 7693
SWIDTH 703 0
DWIDTH 33 0
BBX 27 40 1 -3
BITMAP
000000E0
000000E0
000000E0
000000E0
000000E0
000000E0
000000E0
000000E0
000000E0
007FE0E0
03FFFCE0
07A47CE0
1F801FE0
7E000FE0
7C0007E0
7C0003E0
7C0003E0
FC0003E0
FC0003E0
E00000E0
E00000E0
E00000E0
E00000E0
F00000E0
F80000E0
FC0000E0
7C0003E0
7E000FE0
3E000FE0
1F801FE0
0FC07CE0
07C078E0
03FFF0E0
007FE0E0
007FC060
00000000
000C0000
000C0000
000C0000
000C0000
ENDCHAR
STARTCHAR $1E0E
ENCODING 7694
SWIDTH 740 0
DWIDTH 35 0
BBX 29 40 3 -3
BITMAP
FFFF8000
FFFFF000
FFFFF000
F000FE00
E0007F00
E0007F80
E0000FC0
E00007C0
E00003C0
E00000E0
E00000E0
E00000F0
E00000F8
E0000038
E0000038
E0000038
E0000038
E0000038
E0000038
E0000038
E0000038
E0000070
E00000E0
E00000E0
E00000E0
E00000E0
E00003C0
E0000FC0
E0000FC0
E0007F00
F000FE00
F800FE00
FFFFF000
FFFF8000
FFFF8000
00000000
00000000
3FFFC000
7FFFE000
7FFFE000
ENDCHAR
STARTCHAR $1E0F
ENCODING 7695
SWIDTH 703 0
DWIDTH 33 0
BBX 27 40 1 -3
BITMAP
000000E0
000000E0
000000E0
000000E0
000000E0
000000E0
000000E0
000000E0
000000E0
007FE0E0
03FFFCE0
07A47CE0
1F801FE0
7E000FE0
7C0007E0
7C0003E0
7C0003E0
FC0003E0
FC0003E0
E00000E0
E00000E0
E00000E0
E00000E0
F00000E0
F80000E0
FC0000E0
7C0003E0
7E000FE0
3E000FE0
1F801FE0
0FC07CE0
07C078E0
03FFF0E0
007FE0E0
007FC060
00000000
00000000
01FFF800
01FFFC00
01FFFC00
ENDCHAR
STARTCHAR $1E24
ENCODING 7716
SWIDTH 666 0
DWIDTH 31 0
BBX 24 43 3 -8
BITMAP
E0000F
E0000F
E0000F
E0000F
E0000F
E0000F
E0000F
E0000F
E0000F
E0000F
E0000F
E0000F
E0000F
E0000F
FFFFFF
FFFFFF
FFFFFF
FFFFFF
FFFFFF
E0000F
E0000F
E0000F
E0000F
E0000F
E0000F
E0000F
E0000F
E0000F
E0000F
E0000F
E0000F
E0000F
E0000F
E00002
C00002
000000
000000
003800
003800
003800
003800
003800
001800
ENDCHAR
STARTCHAR $1E25
ENCODING 7717
SWIDTH 592 0
DWIDTH 28 0
BBX 22 43 3 -8
BITMAP
E00000
E00000
E00000
E00000
E00000
E00000
E00000
E00000
E00000
E1FF00
FFFFE0
FFA7E0
FE03F0
FC0070
F80070
F00070
E00070
E00018
E0001C
E0001C
E0001C
E0001C
E0001C
E0001C
E0001C
E0001C
E0001C
E0001C
E0001C
E0001C
E0001C
E0001C
E0001C
E0001C
C00018
000000
000000
006000
006000
006000
006000
006000
003000
ENDCHAR
STARTCHAR $1E26
ENCODING 7718
SWIDTH 666 0
DWIDTH 31 0
BBX 24 43 3 2
BITMAP
01C780
01C780
01C780
01C780
01C300
01C100
000000
000000
000000
E0000F
E0000F
E0000F
E0000F
E0000F
E0000F
E0000F
E0000F
E0000F
E0000F
E0000F
E0000F
E0000F
E0000F
F0000F
FFFFFF
FFFFFF
FFFFFF
F8000F
F0000F
E0000F
E0000F
E0000F
E0000F
E0000F
E0000F
E0000F
E0000F
E0000F
E0000F
E0000F
E0000F
E0000F
E00002
ENDCHAR
STARTCHAR $1E27
ENCODING 7719
SWIDTH 592 0
DWIDTH 28 0
BBX 22 43 3 2
BITMAP
038C00
038C00
038C00
038C00
020400
020400
000000
000000
000000
E00000
E00000
E00000
E00000
E00000
E00000
E00000
E00000
F1FF00
F9FF00
FFFFE0
FE03F0
FE01F0
FC00F0
F00070
E00070
E00070
E0001C
E0001C
E0001C
E0001C
E0001C
E0001C
E0001C
E0001C
E0001C
E0001C
E0001C
E0001C
E0001C
E0001C
E0001C
E0001C
E0001C
ENDCHAR
STARTCHAR $1E2A
ENCODING 7722
SWIDTH 666 0
DWIDTH 31 0
BBX 24 43 3 -8
BITMAP
E0000F
E0000F
E0000F
E0000F
E0000F
E0000F
E0000F
E0000F
E0000F
E0000F
E0000F
E0000F
E0000F
E0000F
FFFFFF
FFFFFF
FFFFFF
FFFFFF
FFFFFF
E0000F
E0000F
E0000F
E0000F
E0000F
E0000F
E0000F
E0000F
E0000F
E0000F
E0000F
E0000F
E0000F
E0000F
E00002
C00002
000000
000000
0300C0
0380E0
03FFE0
01FF80
01FF80
003F00
ENDCHAR
STARTCHAR $1E2B
ENCODING 7723
SWIDTH 592 0
DWIDTH 28 0
BBX 22 43 3 -8
BITMAP
E00000
E00000
E00000
E00000
E00000
E00000
E00000
E00000
E00000
E1FF00
FFFFE0
FFA7E0
FE03F0
FC0070
F80070
F00070
E00070
E00018
E0001C
E0001C
E0001C
E0001C
E0001C
E0001C
E0001C
E0001C
E0001C
E0001C
E0001C
E0001C
E0001C
E0001C
E0001C
E0001C
C00018
000000
000000
1E0180
1E0380
03FF80
01FF00
01FF00
01FC00
ENDCHAR
STARTCHAR $1E2E
ENCODING 7726
SWIDTH 222 0
DWIDTH 11 0
BBX 11 52 0 1
BITMAP
01E0
03C0
03C0
1E00
3E00
3E00
0C00
0000
0000
E1C0
E1C0
E1C0
E1C0
0000
0000
0000
0000
1E00
1E00
1E00
1E00
1E00
1E00
1E00
1E00
1E00
1E00
1E00
1E00
1E00
1E00
1E00
1E00
1E00
1E00
1E00
1E00
1E00
1E00
1E00
1E00
1E00
1E00
1E00
1E00
1E00
1E00
1E00
1E00
1E00
0E00
0E00
ENDCHAR
STARTCHAR $1E2F
ENCODING 7727
SWIDTH 185 0
DWIDTH 9 0
BBX 11 45 0 1
BITMAP
0040
03E0
03E0
0FC0
1E00
1E00
7C00
6000
2000
0000
E1C0
E1C0
E1C0
E1C0
0000
0000
0000
0000
0000
1E00
1E00
1E00
1E00
1E00
1E00
1E00
1E00
1E00
1E00
1E00
1E00
1E00
1E00
1E00
1E00
1E00
1E00
1E00
1E00
1E00
1E00
1E00
1E00
0E00
0600
ENDCHAR
STARTCHAR $1E36
ENCODING 7734
SWIDTH 444 0
DWIDTH 21 0
BBX 17 43 3 -8
BITMAP
E00000
E00000
E00000
E00000
E00000
E00000
E00000
E00000
E00000
E00000
E00000
E00000
E00000
E00000
E00000
E00000
E00000
E00000
E00000
E00000
E00000
E00000
E00000
E00000
E00000
E00000
E00000
E00000
E00000
E00000
F00000
F80000
FFFF80
FFFF80
FFFF80
000000
000000
01C000
01C000
01C000
01C000
01C000
01C000
ENDCHAR
STARTCHAR $1E37
ENCODING 7735
SWIDTH 185 0
DWIDTH 9 0
BBX 3 43 3 -8
BITMAP
E0
E0
E0
E0
E0
E0
E0
E0
E0
E0
E0
E0
E0
E0
E0
E0
E0
E0
E0
E0
E0
E0
E0
E0
E0
E0
E0
E0
E0
E0
E0
E0
E0
E0
C0
00
00
E0
E0
E0
E0
E0
E0
ENDCHAR
STARTCHAR $1E38
ENCODING 7736
SWIDTH 444 0
DWIDTH 21 0
BBX 24 49 -3 -7
BITMAP
FFFF80
FFFF80
FFFF80
000000
000000
000000
000000
01C000
01C000
01C000
01C000
01C000
01C000
01C000
01C000
01C000
01C000
01C000
01C000
01C000
01C000
01C000
01C000
01C000
01C000
01C000
01C000
01C000
01C000
01C000
01C000
01C000
01C000
01C000
01C000
01C000
01C000
01FFFF
01FFFF
01FFFF
000000
000000
000000
000000
000000
000780
000780
000780
000780
ENDCHAR
STARTCHAR $1E39
ENCODING 7737
SWIDTH 185 0
DWIDTH 9 0
BBX 14 49 -3 -7
BITMAP
FFFC
FFFC
FFFC
0000
0000
0000
0000
01C0
01C0
01C0
01C0
01C0
01C0
01C0
01C0
01C0
01C0
01C0
01C0
01C0
01C0
01C0
01C0
01C0
01C0
01C0
01C0
01C0
01C0
01C0
01C0
01C0
01C0
01C0
01C0
01C0
01C0
01C0
01C0
01C0
0000
0000
0000
0000
0000
01C0
01C0
01C0
01C0
ENDCHAR
STARTCHAR $1E42
ENCODING 7746
SWIDTH 925 0
DWIDTH 43 0
BBX 36 43 3 -8
BITMAP
FC000007F0
FE000007F0
FE000007F0
FE000007F0
FE000007F0
FE000007F0
E380001F70
E380001C70
E380001C70
E380003870
E1C0003870
E1C0007870
E1C000F870
E1F000E070
E0E000E070
E06000E070
E06001E070
E03803C070
E03803C070
E03803C070
E0380F8070
E0380F0070
E00C0F0070
E00C0F0070
E0061F0070
E0071F0070
E0079C0070
E0079C0070
E007980070
E007F00070
E003F00070
E003F00070
E003F00070
E000E00070
C000C00020
0000000000
0000000000
0000C00000
0000E00000
0003E00000
0003E00000
0001C00000
0000800000
ENDCHAR
STARTCHAR $1E43
ENCODING 7747
SWIDTH 925 0
DWIDTH 43 0
BBX 37 35 3 -9
BITMAP
E3F803FF00
FFFF87FFC0
FFFF8FFFE0
FC07FE03E0
F803FC01F0
F003F800F0
E003F00070
E000F00070
E000F00070
E000700038
E000700038
E000700038
E000700038
E000700038
E000700038
E000700038
E000700038
E000700038
E000700038
E000700038
E000700038
E000700038
E000700038
E000700038
E000700038
E000700018
0000000000
0000000000
0000000000
0000700000
0000700000
0000700000
0000700000
0000700000
0000300000
ENDCHAR
STARTCHAR $1E44
ENCODING 7748
SWIDTH 740 0
DWIDTH 35 0
BBX 27 43 3 2
BITMAP
000C0000
000C0000
000C0000
000C0000
00040000
00040000
00000000
00000000
00000000
FC0000E0
FE0000E0
FE0000E0
FE0000E0
FE0000E0
E70000E0
E38000E0
E3C000E0
E1C000E0
E1C000E0
E06000E0
E07800E0
E07800E0
E03800E0
E00C00E0
E00E00E0
E00F00E0
E01F80E0
E007C0E0
E007E0E0
E003E0E0
E000E0E0
E000E0E0
E00070E0
E0007CE0
E0003FE0
E0001FE0
E0000FE0
E0000FE0
E0000FE0
E00003E0
E00001E0
E00001E0
E00000E0
ENDCHAR
STARTCHAR $1E45
ENCODING 7749
SWIDTH 592 0
DWIDTH 28 0
BBX 22 33 3 1
BITMAP
006000
006000
006000
006000
006000
006000
000000
E1FF00
E1FF00
FFFFE0
FE03F0
FE0070
FC0070
F00070
E00078
E0007C
E0001C
E0001C
E0001C
E0001C
E0001C
E0001C
E0001C
E0001C
E0001C
E0001C
E0001C
E0001C
E0001C
E0001C
E0001C
E0001C
E0000C
ENDCHAR
STARTCHAR $1E46
ENCODING 7750
SWIDTH 740 0
DWIDTH 35 0
BBX 27 43 3 -8
BITMAP
FC0000E0
FE0000E0
FE0000E0
FE0000E0
FE0000E0
FE0000E0
E38000E0
E3C000E0
E3C000E0
E1C000E0
E06000E0
E07000E0
E07800E0
E03800E0
E01C00E0
E00C00E0
E00F00E0
E01F80E0
E00F80E0
E007E0E0
E003E0E0
E001E0E0
E000F0E0
E00070E0
E00078E0
E0007CE0
E0001CE0
E0000FE0
E0000FE0
E0000FE0
E00007E0
E00003E0
E00001E0
E00000E0
C0000060
00000000
00000000
000C0000
000C0000
000C0000
000C0000
000C0000
001C0000
ENDCHAR
STARTCHAR $1E47
ENCODING 7751
SWIDTH 592 0
DWIDTH 28 0
BBX 22 35 3 -9
BITMAP
E1FC00
FFFFC0
FFFFE0
FE03F0
FE00F0
FE00F0
FC0070
E00070
E00030
E0001C
E0001C
E0001C
E0001C
E0001C
E0001C
E0001C
E0001C
E0001C
E0001C
E0001C
E0001C
E0001C
E0001C
E0001C
E0001C
E00018
000000
000000
000000
006000
006000
006000
006000
006000
006000
ENDCHAR
STARTCHAR $1E58
ENCODING 7768
SWIDTH 592 0
DWIDTH 28 0
BBX 24 43 3 2
BITMAP
006000
006000
006000
006000
006000
006000
000000
000000
000000
FFFF00
FFFFE0
E2A7E0
E003F0
E0001C
E0001C
E0001C
E0001E
E0001F
E0001F
E0000F
E0001F
E0001F
E0001E
E0001C
E0001C
E00018
E003F0
E1FFE0
E1FFE0
E07800
E03800
E03800
E00C00
E00F00
E01F80
E00F80
E007E0
E003E0
E003E0
E00070
E00078
E0007C
E0007C
ENDCHAR
STARTCHAR $1E59
ENCODING 7769
SWIDTH 296 0
DWIDTH 14 0
BBX 10 33 3 1
BITMAP
7C00
7C00
7C00
7C00
7800
3000
0000
E1C0
E1C0
FFC0
FE00
FE00
FC00
F000
E000
E000
E000
E000
E000
E000
E000
E000
E000
E000
E000
E000
E000
E000
E000
E000
E000
E000
E000
ENDCHAR
STARTCHAR $1E5A
ENCODING 7770
SWIDTH 592 0
DWIDTH 28 0
BBX 24 43 3 -8
BITMAP
FFFC00
FFFFC0
FFFFE0
F003F0
E000F0
E000F0
E0001C
E0001C
E0001C
E0001F
E0000F
E0000F
E0001F
E0001E
E0001C
E0001C
E0001C
E000F0
E000F0
E1FFE0
E07800
E07800
E03800
E00C00
E00E00
E00F00
E01F80
E007C0
E007E0
E003E0
E000E0
E000E0
E00070
E0007C
C00038
000000
000000
006000
006000
006000
006000
006000
003000
ENDCHAR
STARTCHAR $1E5B
ENCODING 7771
SWIDTH 296 0
DWIDTH 14 0
BBX 10 35 3 -9
BITMAP
E1C0
FFC0
FFC0
FE00
FE00
FE00
FC00
E000
E000
E000
E000
E000
E000
E000
E000
E000
E000
E000
E000
E000
E000
E000
E000
E000
E000
E000
0000
0000
0000
E000
E000
E000
E000
E000
C000
ENDCHAR
STARTCHAR $1E5C
ENCODING 7772
SWIDTH 592 0
DWIDTH 28 0
BBX 24 49 3 -7
BITMAP
1FFFE0
1FFFE0
1FFFE0
000000
000000
000000
000000
FFFF00
FFFF00
FFFFE0
F003F0
E00078
E0001C
E0001C
E0001E
E0001E
E0001F
E0000F
E0000F
E0001F
E0001C
E0001C
E0001C
E0001C
E001F8
E003F0
E1FFE0
E0F800
E07800
E03800
E01C00
E00E00
E00F00
E00F80
E00FC0
E003E0
E000E0
E00070
E00070
E0007C
000000
000000
000000
000000
000000
006000
007000
006000
006000
ENDCHAR
STARTCHAR $1E5D
ENCODING 7773
SWIDTH 296 0
DWIDTH 14 0
BBX 14 40 -1 -6
BITMAP
FFFC
FFFC
FFFC
0000
0000
0000
0000
038C
039C
03FC
03F0
03E0
03C0
0380
0380
0380
0380
0380
0380
0380
0380
0380
0380
0380
0380
0380
0380
0380
0380
0380
0380
0300
0200
0000
0000
0000
0380
0380
0380
0380
ENDCHAR
STARTCHAR $1E62
ENCODING 7778
SWIDTH 481 0
DWIDTH 23 0
BBX 20 40 1 -3
BITMAP
03F800
07FF80
0FFF80
1E0780
3E03C0
7E03E0
7C03E0
E000E0
E000C0
E00000
F00000
7A0000
7E0000
1FC000
0FFC00
0FFC00
03FF00
003F80
003F80
0007E0
0003F0
0001F0
0000F0
000070
C00070
E00070
E00070
FC00E0
FC00E0
7E07E0
1E0780
1E0780
0FFF80
03F800
03F000
000000
006000
006000
006000
006000
ENDCHAR
STARTCHAR $1E63
ENCODING 7779
SWIDTH 370 0
DWIDTH 18 0
BBX 17 33 0 -6
BITMAP
03E000
07FC00
0FFC00
1E0C00
3E0C00
7E0C00
7C1C00
7C0000
7C0000
7E0000
1FC000
03E000
01F800
003C00
001F00
000F00
000F80
F00780
F80780
7C0780
7C0700
3C0600
1FFC00
0FFC00
07F000
03E000
000000
01C000
01C000
01C000
01C000
01C000
01C000
ENDCHAR
STARTCHAR $1E6C
ENCODING 7788
SWIDTH 444 0
DWIDTH 21 0
BBX 19 43 0 -8
BITMAP
FFFFE0
FFFFE0
FFFFE0
006000
006000
006000
007000
006000
007000
006000
007000
006000
006000
007000
006000
006000
006000
007000
006000
006000
006000
007000
006000
006000
006000
006000
007000
006000
006000
006000
006000
006000
006000
006000
006000
000000
000000
006000
006000
006000
006000
006000
003000
ENDCHAR
STARTCHAR $1E6D
ENCODING 7789
SWIDTH 333 0
DWIDTH 16 0
BBX 14 43 0 -8
BITMAP
03C0
03C0
03C0
03C0
03C0
03C0
03C0
0FC0
0FC0
FFFC
FFFC
0FE4
0FC0
03C0
03C0
03C0
03C0
03C0
03C0
03C0
03C0
03C0
03C0
03C0
03C0
03C0
03C0
03C0
03C0
03C0
03C0
03C0
03C0
03C0
03C0
0000
0000
03C0
03C0
03C0
03C0
03C0
03C0
ENDCHAR
STARTCHAR $1E6E
ENCODING 7790
SWIDTH 444 0
DWIDTH 21 0
BBX 19 40 0 -3
BITMAP
FFFFE0
FFFFE0
FFFFE0
006000
006000
006000
007000
006000
007000
006000
007000
006000
006000
007000
006000
006000
006000
007000
006000
006000
006000
007000
006000
006000
006000
006000
007000
006000
006000
006000
006000
006000
006000
006000
006000
000000
000000
3FFF80
7FFF80
7FFF80
ENDCHAR
STARTCHAR $1E6F
ENCODING 7791
SWIDTH 333 0
DWIDTH 16 0
BBX 14 40 0 -3
BITMAP
03C0
03C0
03C0
03C0
03C0
03C0
03C0
0FC0
0FC0
FFFC
FFFC
0FE4
0FC0
03C0
03C0
03C0
03C0
03C0
03C0
03C0
03C0
03C0
03C0
03C0
03C0
03C0
03C0
03C0
03C0
03C0
03C0
03C0
03C0
03C0
03C0
0000
0000
FFFC
FFFC
FFFC
ENDCHAR
STARTCHAR $1E80
ENCODING 7808
SWIDTH 962 0
DWIDTH 45 0
BBX 43 43 0 4
BITMAP
0003F0000000
000078000000
00007C000000
00007F000000
00003FC00000
00001FC00000
000003000000
000000000000
000000000000
E0000F0001C0
70000F0001E0
78000F0001E0
7C001F0001E0
7C001FC001E0
1C001FC001C0
1C001FC001C0
1E001FC00700
1E0077C00700
1E0073C00700
1E0070E00700
1E0070E00E00
1F0070E00E00
0F8070E00E00
0380F0E00E00
0381E0F00E00
0383E0780E00
0383E0380E00
01C3E0381C00
01C3E0383800
01C3E0383800
01C3803C3800
01C3803C3800
01C7801F7800
01C7801F7000
00E7801F7000
0077001F7000
007F001F7000
007E000FF000
007C0007F000
003C0007E000
003C0007E000
003C0007E000
001C0003E000
ENDCHAR
STARTCHAR $1E81
ENCODING 7809
SWIDTH 814 0
DWIDTH 38 0
BBX 37 36 0 1
BITMAP
0004000000
000F800000
000F800000
0003F00000
0000F00000
0000F00000
00007C0000
0000000000
0000000000
0000000000
E000000018
6000000038
7000000038
7C00700070
7C00780070
7C007C0070
7E007C0070
1E00FC0070
1E00FC0070
1E03FC00E0
0383EF00E0
0383CF01C0
03838F0380
03838F0780
03878F0780
03878F8780
01C783C700
01C703CF00
01C703DE00
01FC03DC00
01FC01DC00
01FC01DC00
007C00F800
007800F800
007800F800
000800F800
ENDCHAR
STARTCHAR $1E82
ENCODING 7810
SWIDTH 962 0
DWIDTH 45 0
BBX 43 43 0 4
BITMAP
000000F80000
000001F00000
000001E00000
00001F000000
00001E000000
00001E000000
00001C000000
000000000000
000000000000
E0000F0001C0
70000F0001E0
78000F0001E0
7C001F0001E0
7C001FC001E0
1C001FC001C0
1C001FC001C0
1E001FC00700
1E0077C00700
1E0073C00700
1E0070E00700
1E0070E00E00
1F0070E00E00
0F8070E00E00
0380F0E00E00
0381E0F00E00
0383E0780E00
0383E0380E00
01C3E0381C00
01C3E0383800
01C3E0383800
01C3803C3800
01C3803C3800
01C7801F7800
01C7801F7000
00E7801F7000
0077001F7000
007F001F7000
007E000FF000
007C0007F000
003C0007E000
003C0007E000
003C0007E000
001C0003E000
ENDCHAR
STARTCHAR $1E83
ENCODING 7811
SWIDTH 814 0
DWIDTH 38 0
BBX 37 36 0 1
BITMAP
000000C000
000007C000
00000FC000
00007F0000
0000FE0000
0000FE0000
0000F00000
0000000000
0000000000
0000000000
E000000018
6000000038
7000000038
7C00700070
7C00780070
7C007C0070
7E007C0070
1E00FC0070
1E00FC0070
1E03FC00E0
0383EF00E0
0383CF01C0
03838F0380
03838F0780
03878F0780
03878F8780
01C783C700
01C703CF00
01C703DE00
01FC03DC00
01FC01DC00
01FC01DC00
007C00F800
007800F800
007800F800
000800F800
ENDCHAR
STARTCHAR $1E84
ENCODING 7812
SWIDTH 962 0
DWIDTH 45 0
BBX 43 43 0 2
BITMAP
000070E00000
000070E00000
000070E00000
000070E00000
000070E00000
000070600000
000000000000
000000000000
000000000000
E0000F0001C0
70000F0001E0
78000F0001E0
7C001F0001E0
7C001FC001E0
1C001FC001C0
1C001FC001C0
1E001FC00700
1E0077C00700
1E0073C00700
1E0070E00700
1E0070E00E00
1F0070E00E00
0F8070E00E00
0380F0E00E00
0381E0F00E00
0383E0780E00
0383E0380E00
01C3E0381C00
01C3E0383800
01C3E0383800
01C3803C3800
01C3803C3800
01C7801F7800
01C7801F7000
00E7801F7000
0077001F7000
007F001F7000
007E000FF000
007C0007F000
003C0007E000
003C0007E000
003C0007E000
001C0003E000
ENDCHAR
STARTCHAR $1E85
ENCODING 7813
SWIDTH 814 0
DWIDTH 38 0
BBX 37 35 0 0
BITMAP
00078F0000
00078F0000
00078F0000
00078F0000
00030E0000
00010E0000
0000000000
0000000000
0000000000
E000000038
7000000038
7800000030
7C00700070
7C007C0070
1E00FC0070
1E00FC0070
1E00FC0060
0E01FC00E0
0603FC00E0
0383EF00E0
03838F0780
03838F0780
03838F0780
03878F0780
01C7878780
01C783C780
01C403DF00
01FC03DC00
01FC03DC00
007C01D800
007C00D800
007C00D800
007800F800
003800F800
0010007000
ENDCHAR
STARTCHAR $1E92
ENCODING 7826
SWIDTH 481 0
DWIDTH 23 0
BBX 22 43 0 -8
BITMAP
7FFFF0
7FFFF0
3FFFF0
0000F0
0000F0
0000F0
0003E0
0003E0
0003C0
000780
000F80
000F00
000F00
001C00
003C00
003C00
003800
007000
00E000
01E000
01C000
01C000
03C000
03C000
038000
038000
1E0000
3E0000
7E0000
7C0000
7C0000
7C0000
FFFFFC
FFFFFC
FFFFF8
000000
000000
003800
003800
003800
003800
003800
001800
ENDCHAR
STARTCHAR $1E93
ENCODING 7827
SWIDTH 407 0
DWIDTH 19 0
BBX 19 35 0 -9
BITMAP
7FFFE0
7FFFE0
3FFFE0
000780
000700
000700
001C00
003C00
003C00
003800
007000
00E000
01E000
01F000
03C000
03C000
0F8000
1F8000
1F0000
7E0000
7C0000
7C0000
FFFFE0
FFFFE0
FFFFE0
FFFFE0
000000
000000
000000
006000
006000
006000
006000
006000
006000
ENDCHAR
STARTCHAR $1E97
ENCODING 7831
SWIDTH 333 0
DWIDTH 16 0
BBX 14 43 0 2
BITMAP
7E60
7E60
7E60
7E60
7E60
3E60
0000
0000
0000
03C0
03C0
03C0
03C0
03C0
03C0
03C0
0FE0
FFFC
FFFC
FFFC
03C0
03C0
03C0
03C0
03C0
03C0
03C0
03C0
03C0
03C0
03C0
03C0
03C0
03C0
03C0
03C0
03C0
03C0
03C0
03C0
03C0
03C0
03C0
ENDCHAR
STARTCHAR $1EA0
ENCODING 7840
SWIDTH 740 0
DWIDTH 35 0
BBX 32 43 1 -8
BITMAP
00078000
000FC000
000FE000
000FE000
000FE000
001FE000
00387000
00387000
00387000
00787000
00701C00
00601C00
00601C00
01F00E00
01C00F00
01C00F00
01C00F00
03800FC0
03800FC0
03FFFFC0
0FFFFFC0
0FFFFFC0
1E0001E0
1E0000E0
1E0000E0
1E000060
7C000038
7C000038
7C000038
F000003C
E000003F
E000003F
E000001F
E000001C
C000000C
00000000
00000000
00018000
00038000
00078000
00078000
00078000
00030000
ENDCHAR
STARTCHAR $1EA1
ENCODING 7841
SWIDTH 666 0
DWIDTH 31 0
BBX 27 33 1 -6
BITMAP
007FE0E0
03FFF8E0
03FFFCE0
0FC07FE0
1E003FE0
1E001FE0
7C000FE0
7C0007E0
7C0003E0
FC0003E0
F00001E0
E00000E0
E00000E0
E00000E0
F00001E0
F00001E0
FC0003E0
7C0003E0
7C0007E0
7E000FE0
1F801CE0
1F8038E0
0FFFF0E0
03FFF0E0
00FFE0E0
007FE060
00000000
000C0000
000C0000
000C0000
000C0000
000C0000
00040000
ENDCHAR
STARTCHAR $1EA2
ENCODING 7842
SWIDTH 740 0
DWIDTH 35 0
BBX 32 45 1 1
BITMAP
000FE000
00087000
00087000
00007000
0000F000
0000F000
0003E000
00038000
00018000
00000000
00030000
00074000
000FE000
001FE000
000EF000
001CF000
00387000
00387000
00387000
00787000
00781800
00781C00
00601C00
00601E00
00C00F00
01C00F00
01C00F00
03800FC0
03800FC0
03FFFFC0
0FFFFFC0
0FFFFFC0
1FFFFFC0
1E0000E0
1E0000E0
1E0000E0
7C000038
7C000038
7C000038
F000003C
E000001E
E000001F
E000001F
E000001C
C000000C
ENDCHAR
STARTCHAR $1EA3
ENCODING 7843
SWIDTH 666 0
DWIDTH 31 0
BBX 27 36 1 1
BITMAP
003F8000
0073C000
0063E000
0003E000
0003E000
0003E000
00078000
000C0000
000C0000
00000000
007FE0E0
02FFE0E0
03FFFCE0
0F801FE0
1E000FE0
1E000FE0
7E000FE0
7C0007E0
7C0003E0
FC0003E0
F00000E0
F00000E0
E00000E0
E00000E0
F00000E0
F00000E0
FC0003E0
7C0003E0
7C0007E0
7E000FE0
1E000FE0
1E000FE0
0F801CE0
03FFF0E0
03FFF0E0
007FE0E0
ENDCHAR
STARTCHAR $1EA4
ENCODING 7844
SWIDTH 740 0
DWIDTH 35 0
BBX 32 52 1 0
BITMAP
00001000
00003800
00007C00
0003FC00
0007F000
0007F000
001F8000
00000000
00000000
00078000
000FE000
001E6000
003C7000
01F81E00
00000000
00000000
00000000
00078000
00078000
000FE000
000FE000
001FE000
000CF000
00387000
00387000
00387000
00787000
00703800
00601C00
00601C00
01E01E00
01E01E00
01C00F00
01C00F00
03C00F80
03800FC0
03FFFFC0
1FFFFFC0
1FFFFFC0
1E0000E0
1E0000E0
1E0000F0
1C0000F8
3C000038
7C000038
7C000038
E000003F
E000001F
E000001F
E000001F
E000001C
E000001C
ENDCHAR
STARTCHAR $1EA5
ENCODING 7845
SWIDTH 666 0
DWIDTH 31 0
BBX 27 40 1 5
BITMAP
0003F000
0007E000
0007E000
000F0000
003E0000
003C0000
00380000
00000000
00000000
003F8000
0073E000
00E06000
01C07000
00000000
003F8060
003F80E0
007FE0E0
03FFF8E0
03FFFCE0
1F801FE0
3E000FE0
7E0007E0
7C0003E0
7C0003E0
FC0003E0
FC0003E0
E00000E0
E00000E0
E00000E0
E00000E0
F00001E0
F80001E0
FC0003E0
7C0003E0
7E0007E0
7E000FE0
1F801CE0
0FFFF0E0
0FFFF0E0
007FE0E0
ENDCHAR
STARTCHAR $1EA6
ENCODING 7846
SWIDTH 740 0
DWIDTH 35 0
BBX 32 52 1 0
BITMAP
00200000
00780000
00780000
003F0000
001F8000
000F8000
0003E000
00000000
00000000
00078000
000FE000
001E6000
003C7000
01F81E00
00000000
00000000
00000000
00078000
00078000
000FE000
000FE000
001FE000
000CF000
00387000
00387000
00387000
00787000
00703800
00601C00
00601C00
01E01E00
01E01E00
01C00F00
01C00F00
03C00F80
03800FC0
03FFFFC0
1FFFFFC0
1FFFFFC0
1E0000E0
1E0000E0
1E0000F0
1C0000F8
3C000038
7C000038
7C000038
E000003F
E000001F
E000001F
E000001F
E000001C
E000001C
ENDCHAR
STARTCHAR $1EA7
ENCODING 7847
SWIDTH 666 0
DWIDTH 31 0
BBX 27 40 1 5
BITMAP
01E00000
00F80000
00780000
003F0000
001F0000
000F0000
00000000
00000000
00000000
003F8000
0073E000
00E06000
01C07000
00000000
003F8060
003F80E0
007FE0E0
03FFF8E0
03FFFCE0
1F801FE0
3E000FE0
7E0007E0
7C0003E0
7C0003E0
FC0003E0
FC0003E0
E00000E0
E00000E0
E00000E0
E00000E0
F00001E0
F80001E0
FC0003E0
7C0003E0
7E0007E0
7E000FE0
1F801CE0
0FFFF0E0
0FFFF0E0
007FE0E0
ENDCHAR
STARTCHAR $1EA8
ENCODING 7848
SWIDTH 740 0
DWIDTH 35 0
BBX 32 53 1 1
BITMAP
0003FC00
0003EE00
0003EE00
00038F00
00030E00
00010E00
00001C00
00001000
00001000
00000000
00030000
00074000
000FE000
001C7000
01F87E00
01F87E00
01E01E00
00000000
00000000
00038000
0007E000
0007E000
000FE000
000FE000
00387000
00387000
00387000
00787000
00787000
00601C00
00601C00
00E01C00
01E00E00
01C00F00
01C00F00
01C00F00
03800FC0
03FFFFC0
03FFFFC0
0FFFFFC0
1E0001E0
1E0001E0
1E0000E0
1E0000E0
3E000070
7C000038
7C000038
F800003C
F000003C
E000001F
E000001F
E000001E
E000001C
ENDCHAR
STARTCHAR $1EA9
ENCODING 7849
SWIDTH 666 0
DWIDTH 31 0
BBX 27 43 1 2
BITMAP
0007F000
000F3800
000F1C00
00001C00
00001C00
00001800
00007000
0000E000
0000C000
00000000
000F0000
002F4000
0067E000
01F07000
00000000
00000000
00000000
007FE060
00FFE0E0
03FFFCE0
0F801FE0
0F001FE0
1E000FE0
7E000FE0
7C0007E0
7C0003E0
FC0003E0
F80000E0
F00000E0
E00000E0
E00000E0
E00000E0
F00001E0
FC0003E0
FC0003E0
7C0003E0
7E000FE0
1F001CE0
1F8018E0
03FFF0E0
01FFE0E0
01FFC0E0
003F80E0
ENDCHAR
STARTCHAR $1EAA
ENCODING 7850
SWIDTH 740 0
DWIDTH 35 0
BBX 32 49 1 1
BITMAP
00080000
007C1000
007C1000
0063FC00
0060FC00
0060F800
00006000
00078000
0007C000
000FE000
001CF000
00A47C00
01E01E00
00000000
00010000
00030000
00078000
000FE000
000FE000
000FE000
00387000
00387000
00387000
00387000
00787000
00787000
00701C00
00601C00
00E01C00
01E00E00
01C00F00
01C00F00
03C00F00
03800FC0
07FFFFC0
0FFFFFC0
1FFFFFC0
1E0000E0
1E0000E0
1E0000E0
3C000038
7C000038
7C000038
7C000038
78000038
E000003F
E000001F
E000001F
E000001F
ENDCHAR
STARTCHAR $1EAB
ENCODING 7851
SWIDTH 666 0
DWIDTH 31 0
BBX 27 39 1 3
BITMAP
00786000
00FFF000
01FFF000
00038000
00000000
00000000
00000000
003F8000
003FC000
0060E000
01F0F000
00A04000
00000000
007FE0C0
03FFF8E0
03FFFCE0
0FFFFFE0
1F801FE0
1F001FE0
7E000FE0
7C0007E0
7C0003E0
FC0003E0
F00001E0
E00000E0
E00000E0
E00000E0
E00000E0
E00000E0
F00001E0
FC0003E0
FC0003E0
7C0003E0
7E000FE0
3F001FE0
0F801CE0
03FFF0E0
00FFE0E0
007FE060
ENDCHAR
STARTCHAR $1EAC
ENCODING 7852
SWIDTH 740 0
DWIDTH 35 0
BBX 32 52 1 -9
BITMAP
00078000
000FC000
000FE000
000CF000
00387000
00387000
01F01F00
00000000
00000000
00078000
000FE000
000FE000
000FE000
001C7000
00387000
00387000
00387000
00787000
00787000
00601C00
00601C00
00F01C00
01E00E00
01C00F00
01C00F00
01C00F80
03800FC0
03FFFFC0
03FFFFC0
0FFFFFC0
1FFFFFC0
1FFFFFC0
1E0000E0
1E0000E0
3E000070
7C000038
7C000038
E000003C
E000003C
E000001F
E000001F
E000000E
E0000004
00000000
00000000
00000000
00078000
00078000
00078000
00078000
00030000
00010000
ENDCHAR
STARTCHAR $1EAD
ENCODING 7853
SWIDTH 666 0
DWIDTH 31 0
BBX 27 40 1 -3
BITMAP
000C0000
003F8000
003F8000
00638000
01E0C000
01E0E000
03C07000
00000000
00000000
007FE0E0
03FFFCE0
07A47CE0
1F801FE0
7E000FE0
7C0007E0
7C0003E0
7C0003E0
FC0003E0
FC0003E0
E00000E0
E00000E0
E00000E0
E00000E0
F00001E0
F80003E0
FC0003E0
7C0003E0
7E000FE0
3E000FE0
1F801FE0
0FC07CE0
07C078E0
03FFF0E0
007FE0E0
007FC060
00000000
000C0000
000C0000
000C0000
000C0000
ENDCHAR
STARTCHAR $1EAE
ENCODING 7854
SWIDTH 740 0
DWIDTH 35 0
BBX 32 52 1 0
BITMAP
00000C00
00003C00
00007C00
0003FC00
0007F000
0007F000
00038000
00000000
00000000
00601C00
00701C00
00347C00
003FFC00
00078000
00000000
00000000
00000000
00078000
00078000
000FE000
000FE000
001FE000
000CF000
00387000
00387000
00387000
00787000
00703800
00601C00
00601C00
01E01E00
01E01E00
01C00F00
01C00F00
03C00F80
03800FC0
03FFFFC0
1FFFFFC0
1FFFFFC0
1E0000E0
1E0000E0
1E0000F0
1C0000F8
3C000038
7C000038
7C000038
E000003F
E000001F
E000001F
E000001F
E000001C
E000001C
ENDCHAR
STARTCHAR $1EAF
ENCODING 7855
SWIDTH 666 0
DWIDTH 31 0
BBX 27 43 1 2
BITMAP
00001000
00003000
00007000
0003F000
0007F000
0007F000
003F8000
00180000
00080000
00000000
01C07000
01E46000
01FFE000
003F8000
00000000
00000000
00000000
007FE060
00FFE0E0
03FFFCE0
0F801FE0
0F001FE0
1E000FE0
7E000FE0
7C0007E0
7C0003E0
FC0003E0
F80000E0
F00000E0
E00000E0
E00000E0
E00000E0
F00001E0
FC0003E0
FC0003E0
7C0003E0
7E000FE0
1F001CE0
1F8018E0
03FFF0E0
01FFE0E0
01FFC0E0
003F80E0
ENDCHAR
STARTCHAR $1EB0
ENCODING 7856
SWIDTH 740 0
DWIDTH 35 0
BBX 32 52 1 0
BITMAP
00400000
00780000
00780000
003F0000
001F8000
000F8000
00038000
00000000
00000000
00601C00
00701C00
00347C00
003FFC00
00078000
00000000
00000000
00000000
00078000
00078000
000FE000
000FE000
001FE000
000CF000
00387000
00387000
00387000
00787000
00703800
00601C00
00601C00
01E01E00
01E01E00
01C00F00
01C00F00
03C00F80
03800FC0
03FFFFC0
1FFFFFC0
1FFFFFC0
1E0000E0
1E0000E0
1E0000F0
1C0000F8
3C000038
7C000038
7C000038
E000003F
E000001F
E000001F
E000001F
E000001C
E000001C
ENDCHAR
STARTCHAR $1EB1
ENCODING 7857
SWIDTH 666 0
DWIDTH 31 0
BBX 27 40 1 5
BITMAP
01C00000
01F80000
01F80000
003C0000
001C0000
000C0000
00000000
00000000
00000000
01C07000
01FFE000
00BFC000
003F8000
00000000
003F8060
003F80E0
007FE0E0
03FFF8E0
03FFFCE0
1F801FE0
3E000FE0
7E0007E0
7C0003E0
7C0003E0
FC0003E0
FC0003E0
E00000E0
E00000E0
E00000E0
E00000E0
F00001E0
F80001E0
FC0003E0
7C0003E0
7E0007E0
7E000FE0
1F801CE0
0FFFF0E0
0FFFF0E0
007FE0E0
ENDCHAR
STARTCHAR $1EB2
ENCODING 7858
SWIDTH 740 0
DWIDTH 35 0
BBX 32 52 1 0
BITMAP
000FE000
000F7000
000F7000
000C7000
0008F000
0008F000
0003E000
00038000
00038000
00679C00
00701C00
00347C00
003FFC00
00078000
00000000
00000000
00000000
00078000
00078000
000FE000
000FE000
001FE000
000CF000
00387000
00387000
00387000
00787000
00703800
00601C00
00601C00
01E01E00
01E01E00
01C00F00
01C00F00
03C00F80
03800FC0
03FFFFC0
1FFFFFC0
1FFFFFC0
1E0000E0
1E0000E0
1E0000F0
1C0000F8
3C000038
7C000038
7C000038
E000003F
E000001F
E000001F
E000001F
E000001C
E000001C
ENDCHAR
STARTCHAR $1EB3
ENCODING 7859
SWIDTH 666 0
DWIDTH 31 0
BBX 27 40 1 4
BITMAP
003F8000
0073C000
0063E000
0003E000
0003E000
0003E000
00078000
000C0000
000C0000
01C07000
01FFE000
00BFC000
003F8000
00000000
003F8060
003F80E0
007FE0E0
03FFF8E0
03FFFCE0
1F801FE0
3E000FE0
7E0007E0
7C0003E0
7C0003E0
FC0003E0
FC0003E0
E00000E0
E00000E0
E00000E0
E00000E0
F00001E0
F80001E0
FC0003E0
7C0003E0
7E0007E0
7E000FE0
1F801CE0
0FFFF0E0
0FFFF0E0
007FE0E0
ENDCHAR
STARTCHAR $1EB4
ENCODING 7860
SWIDTH 740 0
DWIDTH 35 0
BBX 32 49 1 1
BITMAP
00080000
007FF800
007FFC00
0063FC00
0000F000
0000F000
00000000
00601800
00701C00
00601C00
003FF000
000FC000
00078000
00000000
00010000
00030000
00078000
000FE000
000FE000
000FE000
00387000
00387000
00387000
00387000
00787000
00787000
00701C00
00601C00
00E01C00
01E00E00
01C00F00
01C00F00
03C00F00
03800FC0
07FFFFC0
0FFFFFC0
1FFFFFC0
1E0000E0
1E0000E0
1E0000E0
3C000038
7C000038
7C000038
7C000038
78000038
E000003F
E000001F
E000001F
E000001F
ENDCHAR
STARTCHAR $1EB5
ENCODING 7861
SWIDTH 666 0
DWIDTH 31 0
BBX 27 40 1 4
BITMAP
00600000
00F80000
01F86000
01CFF000
0007F000
0007F000
00008000
00000000
00000000
01C07000
01FFE000
00BFC000
003F8000
00000000
003F8060
003F80E0
007FE0E0
03FFF8E0
03FFFCE0
1F801FE0
3E000FE0
7E0007E0
7C0003E0
7C0003E0
FC0003E0
FC0003E0
E00000E0
E00000E0
E00000E0
E00000E0
F00001E0
F80001E0
FC0003E0
7C0003E0
7E0007E0
7E000FE0
1F801CE0
0FFFF0E0
0FFFF0E0
007FE0E0
ENDCHAR
STARTCHAR $1EB6
ENCODING 7862
SWIDTH 740 0
DWIDTH 35 0
BBX 32 52 1 -9
BITMAP
00601C00
00601C00
00701C00
003FFC00
001FF000
000FF000
00038000
00000000
00000000
00078000
000FE000
000FE000
000FE000
001C7000
00387000
00387000
00387000
00787000
00787000
00601C00
00601C00
00F01C00
01E00E00
01C00F00
01C00F00
01C00F80
03800FC0
03FFFFC0
03FFFFC0
0FFFFFC0
1FFFFFC0
1FFFFFC0
1E0000E0
1E0000E0
3E000070
7C000038
7C000038
E000003C
E000003C
E000001F
E000001F
E000000E
E0000004
00000000
00000000
00000000
00078000
00078000
00078000
00078000
00030000
00010000
ENDCHAR
STARTCHAR $1EB7
ENCODING 7863
SWIDTH 666 0
DWIDTH 31 0
BBX 27 40 1 -3
BITMAP
01C07000
01C07000
01C07000
007FE000
007FE000
007FE000
001C0000
00000000
00000000
007FE0E0
03FFFCE0
07A47CE0
1F801FE0
7E000FE0
7C0007E0
7C0003E0
7C0003E0
FC0003E0
FC0003E0
E00000E0
E00000E0
E00000E0
E00000E0
F00001E0
F80003E0
FC0003E0
7C0003E0
7E000FE0
3E000FE0
1F801FE0
0FC07CE0
07C078E0
03FFF0E0
007FE0E0
007FC060
00000000
000C0000
000C0000
000C0000
000C0000
ENDCHAR
STARTCHAR $1EB8
ENCODING 7864
SWIDTH 518 0
DWIDTH 24 0
BBX 19 43 3 -8
BITMAP
FFFFE0
FFFFE0
FFFFE0
F00000
E00000
E00000
E00000
E00000
E00000
E00000
E00000
E00000
E00000
E00000
FFFF80
FFFF80
FFFFE0
FFFFE0
FFFFC0
E00000
E00000
E00000
E00000
E00000
E00000
E00000
E00000
E00000
E00000
E00000
F00000
F80000
FFFFE0
FFFFE0
FFFFC0
000000
000000
01C000
01C000
01C000
01C000
01C000
01C000
ENDCHAR
STARTCHAR $1EB9
ENCODING 7865
SWIDTH 666 0
DWIDTH 31 0
BBX 26 33 1 -6
BITMAP
007FE000
03FFF800
03FFFC00
0FC07E00
1E003F00
1E001F00
7C000F00
700007C0
700003C0
F00003C0
FFFFFFC0
FFFFFFC0
FFFFFFC0
F0000000
E0000000
E0000000
F0000000
7C0003C0
7C0007C0
7E000F00
1F801C00
1F803800
0FFFF000
03FFF000
00FFC000
007F8000
00000000
000C0000
000C0000
000C0000
000C0000
000C0000
00040000
ENDCHAR
STARTCHAR $1EBA
ENCODING 7866
SWIDTH 518 0
DWIDTH 24 0
BBX 19 45 3 1
BITMAP
03F800
031800
020800
000800
003800
003800
007000
004000
004000
000000
FFFFE0
FFFFE0
FFFFE0
F00000
E00000
E00000
E00000
E00000
E00000
E00000
E00000
E00000
E00000
E00000
F00000
F00000
FFFFE0
FFFFE0
FFFFE0
F00000
E00000
E00000
E00000
E00000
E00000
E00000
E00000
E00000
E00000
E00000
FFFFE0
FFFFE0
FFFFE0
FFFFE0
FFFFC0
ENDCHAR
STARTCHAR $1EBB
ENCODING 7867
SWIDTH 666 0
DWIDTH 31 0
BBX 26 36 1 1
BITMAP
003F8000
00738000
00638000
00038000
00038000
00038000
00078000
000C0000
000C0000
00000000
007FE000
02FFE000
03FFFC00
0F801E00
1E000F00
1E000F00
7E000F00
7C0007C0
7C0003C0
E00003C0
FFFFFFC0
FFFFFFC0
FFFFFFC0
FFFFFFC0
E0000000
E0000000
E0000000
7C0003C0
7C0007C0
7E000F00
1E000E00
1E000E00
0F801C00
03FFF000
03FFF000
007F0000
ENDCHAR
STARTCHAR $1EBC
ENCODING 7868
SWIDTH 518 0
DWIDTH 24 0
BBX 19 43 3 2
BITMAP
020000
07C400
0FC400
1C7C00
007C00
007C00
001800
000000
000000
FFFFE0
FFFFE0
E2A440
E00000
E00000
E00000
E00000
E00000
E00000
E00000
E00000
E00000
E00000
E00000
F00000
FFFFC0
FFFFE0
FFFFE0
F80000
F00000
E00000
E00000
E00000
E00000
E00000
E00000
E00000
E00000
E00000
E00000
FFFFE0
FFFFE0
FFFFC0
FFFF80
ENDCHAR
STARTCHAR $1EBD
ENCODING 7869
SWIDTH 666 0
DWIDTH 31 0
BBX 26 35 1 0
BITMAP
00600000
00F80000
01F86000
01CFF000
0007F000
0007F000
00008000
00000000
00000000
007FE000
03FFFC00
07A47C00
1F801E00
7E000F00
7C000700
7C000380
700003C0
F00003C0
F80007C0
FFFFFFC0
FFFFFFC0
FFFFFF80
F0000000
E0000000
F0000000
F0000000
7C0003C0
7E000F80
3E000F00
1F801E00
0FC07C00
07C07800
03FFF000
007F8000
007F8000
ENDCHAR
STARTCHAR $1EBE
ENCODING 7870
SWIDTH 518 0
DWIDTH 24 0
BBX 19 52 3 0
BITMAP
000400
003F80
003F80
007C00
01F800
01F800
01C000
018000
018000
01E000
03F800
07BC00
1F8C00
7C0780
000000
000000
000000
FFFFE0
FFFFE0
FFFFE0
F00000
F00000
E00000
E00000
E00000
E00000
E00000
E00000
E00000
E00000
E00000
E00000
F00000
FFFFE0
FFFFE0
FFFFE0
E00000
E00000
E00000
E00000
E00000
E00000
E00000
E00000
E00000
E00000
E00000
FFFFC0
FFFFE0
FFFFE0
FFFFE0
FFFFE0
ENDCHAR
STARTCHAR $1EBF
ENCODING 7871
SWIDTH 666 0
DWIDTH 31 0
BBX 26 40 1 5
BITMAP
0003F000
000FE000
000FE000
000F0000
003E0000
003C0000
00380000
00000000
00000000
003F8000
0077E000
00E46000
01C07000
00000000
003F8000
003F8000
007FE000
03FFF800
03FFFC00
1F801F00
3E000F00
7E000780
7C0003C0
700003C0
F00003C0
F00007C0
FFFFFFC0
FFFFFFC0
FFFFFFC0
F0000000
E0000000
E0000000
F0000000
7C000300
7E000700
7E000E00
1F801C00
0FFFF000
0FFFF000
007F8000
ENDCHAR
STARTCHAR $1EC0
ENCODING 7872
SWIDTH 518 0
DWIDTH 24 0
BBX 19 52 3 0
BITMAP
1C0000
3F0000
3F8000
0FC000
03E000
03E000
007000
002000
003000
01E000
03F800
07BC00
1F8C00
7C0780
000000
000000
000000
FFFFE0
FFFFE0
FFFFE0
F00000
F00000
E00000
E00000
E00000
E00000
E00000
E00000
E00000
E00000
E00000
E00000
F00000
FFFFE0
FFFFE0
FFFFE0
E00000
E00000
E00000
E00000
E00000
E00000
E00000
E00000
E00000
E00000
E00000
FFFFC0
FFFFE0
FFFFE0
FFFFE0
FFFFE0
ENDCHAR
STARTCHAR $1EC1
ENCODING 7873
SWIDTH 666 0
DWIDTH 31 0
BBX 26 40 1 5
BITMAP
01E00000
00F80000
00780000
003F0000
001F0000
000F0000
00000000
00000000
00000000
003F8000
0077E000
00E46000
01C07000
00000000
003F8000
003F8000
007FE000
03FFF800
03FFFC00
1F801F00
3E000F00
7E000780
7C0003C0
700003C0
F00003C0
F00007C0
FFFFFFC0
FFFFFFC0
FFFFFFC0
F0000000
E0000000
E0000000
F0000000
7C000300
7E000700
7E000E00
1F801C00
0FFFF000
0FFFF000
007F8000
ENDCHAR
STARTCHAR $1EC2
ENCODING 7874
SWIDTH 518 0
DWIDTH 24 0
BBX 19 53 3 1
BITMAP
003C00
007780
006780
006380
000380
000380
000780
000C00
000C00
000000
01E000
03F000
03F800
0F9C00
1C0700
1C0700
700700
000000
000000
FFFFE0
FFFFE0
FFFFC0
F00000
E00000
E00000
E00000
E00000
E00000
E00000
E00000
E00000
E00000
E00000
E00000
FFFFC0
FFFFE0
FFFFE0
E00000
E00000
E00000
E00000
E00000
E00000
E00000
E00000
E00000
E00000
E00000
E00000
FFFF80
FFFFC0
FFFFE0
FFFFE0
ENDCHAR
STARTCHAR $1EC3
ENCODING 7875
SWIDTH 666 0
DWIDTH 31 0
BBX 26 43 1 2
BITMAP
0007F000
000F3800
000F1C00
00007C00
00007000
00007000
00006000
0000E000
0000C000
00000000
000F0000
002F4000
0067E000
01F3F000
00000000
00000000
00000000
007FE000
00FFE000
03FFFC00
0F801F00
0F001F00
1E000F00
7E000F00
7C000780
7C0003C0
E00003C0
FFFFFFC0
FFFFFFC0
FFFFFFC0
FFFFFF80
FFFFFF00
E0000000
E0000000
F8000380
7C0003C0
7E000F00
1F001C00
1F801800
03FFF000
01FF8000
01FF8000
003F0000
ENDCHAR
STARTCHAR $1EC4
ENCODING 7876
SWIDTH 518 0
DWIDTH 24 0
BBX 19 49 3 1
BITMAP
020000
07C400
0FC400
1C7C00
007C00
007C00
001800
01E000
01F000
03F800
0F9C00
0E0E00
7C0780
000000
FFFF80
FFFF80
FFFFE0
FFFFE0
FFFFC0
E00000
E00000
E00000
E00000
E00000
E00000
E00000
E00000
E00000
E00000
E00000
F00000
F80000
FFFFE0
FFFFE0
FFFFC0
E00000
E00000
E00000
E00000
E00000
E00000
E00000
E00000
E00000
E00000
E00000
FFFFE0
FFFFE0
FFFFE0
ENDCHAR
STARTCHAR $1EC5
ENCODING 7877
SWIDTH 666 0
DWIDTH 31 0
BBX 26 39 1 3
BITMAP
00786000
00FFF000
01FFF000
00038000
00000000
00000000
00000000
003F8000
003FC000
0067E000
01F0F000
00A04000
00000000
007FE000
03FFF800
03FFFC00
0FFFFE00
1F801F00
1F001F00
7E000F00
7C0007C0
780003C0
F00003C0
F00003C0
FFFFFFC0
FFFFFFC0
FFFFFFC0
F8000000
F0000000
E0000000
F0000000
F8000000
7C0003C0
7E000E00
3F001E00
0F801C00
03FFF000
00FFC000
007F8000
ENDCHAR
STARTCHAR $1EC6
ENCODING 7878
SWIDTH 518 0
DWIDTH 24 0
BBX 19 52 3 -9
BITMAP
01E000
03F800
03F800
0FCC00
1E0700
1E0700
7C0380
000000
000000
FFFFE0
FFFFE0
E2A440
E00000
E00000
E00000
E00000
E00000
E00000
E00000
E00000
E00000
E00000
E00000
F00000
FFFFC0
FFFFE0
FFFFE0
F80000
F00000
E00000
E00000
E00000
E00000
E00000
E00000
E00000
E00000
E00000
E00000
FFFFE0
FFFFE0
FFFFC0
FFFF80
000000
000000
000000
01C000
01C000
01C000
01C000
01C000
01C000
ENDCHAR
STARTCHAR $1EC7
ENCODING 7879
SWIDTH 666 0
DWIDTH 31 0
BBX 26 40 1 -3
BITMAP
000C0000
003F8000
003F8000
01E38000
01E0C000
01E0E000
03C07000
00000000
00000000
007FE000
03FFFC00
07A47C00
1F801E00
7E000F00
7C000700
7C000380
700003C0
F00003C0
F80007C0
FFFFFFC0
FFFFFFC0
FFFFFF80
F0000000
E0000000
F0000000
F0000000
7C0003C0
7E000F80
3E000F00
1F801E00
0FC07C00
07C07800
03FFF000
007F8000
007F8000
00000000
000C0000
000C0000
000C0000
000C0000
ENDCHAR
STARTCHAR $1EC8
ENCODING 7880
SWIDTH 222 0
DWIDTH 11 0
BBX 10 45 0 1
BITMAP
7F80
F9C0
F1C0
01C0
01C0
01C0
0380
1E00
1E00
0000
0E00
0E00
1E00
1E00
1E00
1E00
1E00
1E00
1E00
1E00
1E00
1E00
1E00
1E00
1E00
1E00
1E00
1E00
1E00
1E00
1E00
1E00
1E00
1E00
1E00
1E00
1E00
1E00
1E00
1E00
1E00
1E00
1E00
0E00
0600
ENDCHAR
STARTCHAR $1EC9
ENCODING 7881
SWIDTH 185 0
DWIDTH 9 0
BBX 9 36 0 1
BITMAP
7F80
F980
F180
0380
0600
0E00
1E00
1E00
1E00
0000
0E00
0E00
1E00
1E00
1E00
1E00
1E00
1E00
1E00
1E00
1E00
1E00
1E00
1E00
1E00
1E00
1E00
1E00
1E00
1E00
1E00
1E00
1E00
1E00
1E00
0E00
ENDCHAR
STARTCHAR $1ECA
ENCODING 7882
SWIDTH 222 0
DWIDTH 11 0
BBX 3 43 3 -8
BITMAP
E0
E0
E0
E0
E0
E0
E0
E0
E0
E0
E0
E0
E0
E0
E0
E0
E0
E0
E0
E0
E0
E0
E0
E0
E0
E0
E0
E0
E0
E0
E0
E0
E0
E0
C0
00
00
E0
E0
E0
E0
E0
E0
ENDCHAR
STARTCHAR $1ECB
ENCODING 7883
SWIDTH 185 0
DWIDTH 9 0
BBX 3 43 3 -8
BITMAP
E0
E0
E0
E0
E0
E0
00
00
00
E0
E0
E0
E0
E0
E0
E0
E0
E0
E0
E0
E0
E0
E0
E0
E0
E0
E0
E0
E0
E0
E0
E0
E0
E0
C0
00
00
E0
E0
E0
E0
E0
E0
ENDCHAR
STARTCHAR $1ECC
ENCODING 7884
SWIDTH 851 0
DWIDTH 40 0
BBX 36 40 1 -3
BITMAP
0007FF0000
007FFFE000
007FFFE000
01E001FC00
01E000FE00
01E0007F00
03C0001F80
1E000007C0
1E000007E0
7E000003E0
7C000000E0
7C000000E0
7C000000F0
F000000070
E000000070
E000000070
E000000070
E000000070
E000000070
E000000070
7C00000070
7C00000070
7C000000F0
7C000000E0
7E000001E0
3E000003E0
1F800007E0
03C0000F80
03C0001F80
01E000FF00
01F801F800
01F801F000
007FFFC000
001FFE0000
000FFE0000
0000000000
0000700000
0000700000
0000700000
0000700000
ENDCHAR
STARTCHAR $1ECD
ENCODING 7885
SWIDTH 666 0
DWIDTH 31 0
BBX 27 33 1 -6
BITMAP
007FE000
03FFF800
03FFFC00
0FC07E00
1E003F00
1E001F80
7C000FC0
7C0007C0
7C0003C0
FC0003C0
F00003E0
E00001E0
E00001E0
E00001C0
F00003C0
F00003C0
FC0003C0
7C0003C0
7C0007C0
7E000F00
1F801F00
1F803F00
0FFFFE00
03FFFC00
00FFE000
007FE000
00000000
000C0000
000C0000
000C0000
000C0000
000C0000
00040000
ENDCHAR
STARTCHAR $1ECE
ENCODING 7886
SWIDTH 851 0
DWIDTH 40 0
BBX 36 45 1 1
BITMAP
0003FC0000
0007CC0000
00078C0000
00000C0000
00000C0000
00000C0000
00001C0000
0000700000
0000300000
0000000000
0003FE0000
0027FE2000
007FFFE000
01F801FC00
03F0001E00
03E0001F00
0FC0001F80
1E000007C0
1E000007E0
7E000000E0
7C000000F0
7C000000F0
7C000000F0
7000000070
E000000070
E000000070
E000000070
E000000070
E000000070
E000000070
F000000070
F800000070
7C000000F0
7C000000F0
7E000001E0
7E000003E0
1F800007E0
0FC0000F80
0FC0001F80
03E000FF00
01FFFFE000
01FFFFE000
003FFFE000
001FFE0000
000FFE0000
ENDCHAR
STARTCHAR $1ECF
ENCODING 7887
SWIDTH 666 0
DWIDTH 31 0
BBX 27 36 1 1
BITMAP
003F8000
0073C000
0063E000
00038000
00038000
00038000
00078000
000C0000
000C0000
00000000
007FE000
02FFE000
03FFFC00
0F801E00
1E000F00
1E000F80
7E000FC0
7C0007C0
7C0003C0
FC0003C0
F00003E0
F00003E0
E00001E0
E00001E0
F00003C0
F00003C0
FC0003C0
7C0003C0
7C0007C0
7E000F00
1E000F00
1E000F00
0F801E00
03FFFC00
03FFF800
007FE000
ENDCHAR
STARTCHAR $1ED0
ENCODING 7888
SWIDTH 851 0
DWIDTH 40 0
BBX 36 49 1 3
BITMAP
00000FC000
00003F8000
00007F0000
0000FC0000
0001F00000
0001F00000
0000E00000
0000000000
0000000000
0000FC0000
00039E0000
00070E0000
000F0F0000
0000000000
0001FE0000
0003FE0000
0007FF0000
007FFFE000
00FFFFF000
01E000FF00
03C0001F80
07C0000F80
0E00000780
1E000003E0
3E000001E0
7E000000E0
7C000000F0
7C00000070
7C00000070
F000000070
E000000070
E000000070
E000000070
E000000070
F000000070
F000000070
7C00000070
7C000000F0
7C000000F0
7C000000E0
1E000003E0
1E000003E0
0F800007E0
03C0001F80
03C0001F80
01E000FF00
007FFFE000
001FFF8000
000FFF0000
ENDCHAR
STARTCHAR $1ED1
ENCODING 7889
SWIDTH 666 0
DWIDTH 31 0
BBX 27 40 1 5
BITMAP
0003F000
000FE000
000FE000
000F0000
003E0000
003C0000
00380000
00000000
00000000
003F8000
0073E000
00E06000
01C07000
00000000
003F8000
003F8000
007FE000
03FFF800
03FFFC00
1F801F00
3E000FC0
7E0007C0
7C0003C0
7C0003C0
FC0003C0
FC0003C0
E00003E0
E00000E0
E00000E0
E00001C0
F00003C0
F80003C0
FC0003C0
7C000300
7E000700
7E000F00
1F801F00
0FFFFC00
0FFFF800
007FE000
ENDCHAR
STARTCHAR $1ED2
ENCODING 7890
SWIDTH 851 0
DWIDTH 40 0
BBX 36 52 1 0
BITMAP
0008000000
000C000000
000C000000
000F800000
0007C00000
0007E00000
0000FC0000
0000100000
0000100000
0000000000
0000FC0000
0001FC0000
00039E0000
00070FC000
0000000000
0000000000
0000000000
0007FF0000
0007FF8000
007FFFE000
01F800FC00
01F8007E00
03E0001F00
0FC0001F80
1F00000FC0
1E000007E0
7E000000E0
7C000000F0
7C000000F0
7C00000070
7000000070
7000000070
E000000070
E000000070
E000000070
E000000070
F000000070
7000000070
7000000070
7C000000F0
7E000000E0
3E000001E0
1E000003E0
0F800007E0
0780000FC0
03C0001F80
01F000FF00
00FFFFF000
007FFFE000
000FFF0000
0007FE0000
0007FE0000
ENDCHAR
STARTCHAR $1ED3
ENCODING 7891
SWIDTH 666 0
DWIDTH 31 0
BBX 27 40 1 5
BITMAP
01E00000
00F80000
00780000
003F0000
001F0000
000F0000
00000000
00000000
00000000
003F8000
0073E000
00E06000
01C07000
00000000
003F8000
003F8000
007FE000
03FFF800
03FFFC00
1F801F00
3E000FC0
7E0007C0
7C0003C0
7C0003C0
FC0003C0
FC0003C0
E00003E0
E00000E0
E00000E0
E00001C0
F00003C0
F80003C0
FC0003C0
7C000300
7E000700
7E000F00
1F801F00
0FFFFC00
0FFFF800
007FE000
ENDCHAR
ENDFONT
